<svg xmlns="http://www.w3.org/2000/svg">
<defs>
<font id="UTMAptimaBold" horiz-adv-x="1028" >
  <font-face 
    font-family="UTM Aptima"
    font-weight="700"
    font-stretch="normal"
    units-per-em="2048"
    panose-1="2 4 6 3 5 5 6 2 2 4"
    ascent="1638"
    descent="-410"
    x-height="983"
    cap-height="1397"
    bbox="-40.002 -540.999 4942 2271"
    underline-thickness="109"
    underline-position="-143"
    unicode-range="U+0020-U+2026"
  />
<missing-glyph horiz-adv-x="5040" 
d="M3351 2045h10c24.667 -6.66699 37 -24 37 -52c0 -8 -10.667 -27 -32 -57h-28c0 16 9.33301 34 28 54l2 10c-3.33301 8.66699 -6.66602 13.667 -10 15h-9c-5.33301 0 -8.66602 -6.33301 -10 -19h-30c4 32.667 18 49 42 49zM2019 2016l29.001 -31
c0 -10.667 -13.333 -20.667 -40 -30h-19l-59 12l-11 -12l-28 25c7.33301 19.333 21.666 29 42.999 29h11l42 -11h2c6.66699 0 16.667 6 30 18zM468.001 1980h142v-60h-94v-75h89v-59h-89v-129l-5 -5h-49v323zM1155 1980h43l6 -5v-78h30v-52h-30v-188l-6 -5h-49v193h-25v52
h25v78zM1621 1980h41.999l4 -5v-94h3c15.333 16 33.333 24 54 24h2c38.667 0 66.334 -23.667 83.001 -71l2 -39v-143h-52v115c0 53.333 -14 80 -42 80h-7c-28.667 0 -43 -28.667 -43 -86v-109h-51v323zM2200 1980l49 -0.000976562l5 -5v-222c6.66699 -34 21.667 -51 45 -51
c29.333 4.66699 44 24.334 44 59.001v214l5 5h49v-216c0 -56.667 -22 -94 -66 -112c-10 -5.33301 -21.667 -8 -35 -8c-31.333 0 -58.666 18.333 -82 55c-9.33301 16 -14 35 -14 57v224zM2435 1980h159v-60h-56v-268h-53v268h-55v55zM2621 1980l71 0.000976562
c4.66699 -2.66699 32.334 -86.334 83 -251.001h2l80 251h73v-328h-54v242h-2l-74 -242h-44c-2.66699 0 -22 60.667 -58 182l-19 60h-3v-242h-55v328zM3760 1980l52 -0.000976562v-328h-45l-5 5v11l3 2l-3 14c-19.333 -26.667 -45.333 -40 -78 -40
c-44.667 0 -78 30.333 -100 91l-5 39v3c0 62.667 30.667 104.334 92 125.001l23 3c23.333 0 44.333 -10.667 63 -32h3v107zM2057 1928l36 0.00195312l4 -6v-49h-45v-221h-48v23c-15.333 -20.667 -35 -31 -59 -31c-59.333 9.33301 -89 41.666 -89 96.999v156h51v-104

<glyph glyph-name=".notdef" horiz-adv-x="5040" 
d="M3351 2045h10c24.667 -6.66699 37 -24 37 -52c0 -8 -10.667 -27 -32 -57h-28c0 16 9.33301 34 28 54l2 10c-3.33301 8.66699 -6.66602 13.667 -10 15h-9c-5.33301 0 -8.66602 -6.33301 -10 -19h-30c4 32.667 18 49 42 49zM2019 2016l29.001 -31
c0 -10.667 -13.333 -20.667 -40 -30h-19l-59 12l-11 -12l-28 25c7.33301 19.333 21.666 29 42.999 29h11l42 -11h2c6.66699 0 16.667 6 30 18zM468.001 1980h142v-60h-94v-75h89v-59h-89v-129l-5 -5h-49v323zM1155 1980h43l6 -5v-78h30v-52h-30v-188l-6 -5h-49v193h-25v52
h25v78zM1621 1980h41.999l4 -5v-94h3c15.333 16 33.333 24 54 24h2c38.667 0 66.334 -23.667 83.001 -71l2 -39v-143h-52v115c0 53.333 -14 80 -42 80h-7c-28.667 0 -43 -28.667 -43 -86v-109h-51v323zM2200 1980l49 -0.000976562l5 -5v-222c6.66699 -34 21.667 -51 45 -51
c29.333 4.66699 44 24.334 44 59.001v214l5 5h49v-216c0 -56.667 -22 -94 -66 -112c-10 -5.33301 -21.667 -8 -35 -8c-31.333 0 -58.666 18.333 -82 55c-9.33301 16 -14 35 -14 57v224zM2435 1980h159v-60h-56v-268h-53v268h-55v55zM2621 1980l71 0.000976562
c4.66699 -2.66699 32.334 -86.334 83 -251.001h2l80 251h73v-328h-54v242h-2l-74 -242h-44c-2.66699 0 -22 60.667 -58 182l-19 60h-3v-242h-55v328zM3760 1980l52 -0.000976562v-328h-45l-5 5v11l3 2l-3 14c-19.333 -26.667 -45.333 -40 -78 -40
c-44.667 0 -78 30.333 -100 91l-5 39v3c0 62.667 30.667 104.334 92 125.001l23 3c23.333 0 44.333 -10.667 63 -32h3v107zM2057 1928l36 0.00195312l4 -6v-49h-45v-221h-48v23c-15.333 -20.667 -35 -31 -59 -31c-59.333 9.33301 -89 41.666 -89 96.999v156h51v-104
c0 -52.667 8.66699 -81.334 26 -86.001l18 -5h6c17.333 0 30.333 12 39 36l3 26v133h53v25zM3476 1928v-55h-31v-221h-47v25h-2c-10 -22 -29 -33 -57 -33c-45.333 0 -74 26 -86 78l-3 29v146h52v-120c0 -33.333 6.33301 -56 19 -68l21 -7h9c28 0 42 23 42 69v126h27
c2.66699 0 4 9.33301 4 28l3 3h49zM758 1905c45.333 0 79.667 -25.667 103 -77c6 -12 10 -30 12 -54c0 -58.667 -30 -101 -90 -127l-32 -3c-42 0 -75.667 24.333 -101 73c-8 14.667 -12 32 -12 52v10c0 62.667 33.667 104.667 101 126h19zM1011 1905h3
c49.333 0 77 -33.667 83 -101v-152h-51v119c0 50.667 -14 76 -42 76h-5c-29.333 0 -44 -25.333 -44 -76v-119h-52v245h46v-21c20 19.333 40.667 29 62 29zM1466 1905l7 -0.000976562c48 0 83 -29.667 105 -89h-60c-10.667 20.667 -24.667 31 -42 31h-17
c-35.333 -9.33301 -53 -29.666 -53 -60.999l-3 -15c8 -46 28.333 -69 61 -69h9c14.667 0 30.334 9 47.001 27h40l2 3h3l2 -3l2 3l3 -3l2 3l2 -7c-22 -54 -58.667 -81 -110 -81c-50.667 0 -87.334 31.333 -110.001 94l-4 36v3c0 56.667 25.667 96.667 77 120
c10 5.33301 22.333 8 37 8zM3141 1905h1.99902c32.667 0 56 -20 70 -60v-14h-52c0 10.667 -5.33301 16 -16 16h-4c-9.33301 0 -15.666 -4.33301 -18.999 -13v-13c0 -6 22.667 -17.667 68 -35c20 -12.667 30 -32.334 30 -59.001c0 -38.667 -20.333 -65.334 -61 -80.001
l-23 -3c-50.667 8 -76 35.667 -76 83h54c0 -13.333 9 -21.666 27 -24.999h4c12.667 0 20.667 7.66699 24 23c0 14.667 -22.667 29.334 -68 44.001c-22.667 18 -34 37.667 -34 59c0 44 24.667 69.667 74 77zM4203 1905c36.666 0 62.333 -21 77 -63
c4.66602 -12 7 -33.667 7 -65v-125h-52v112c0 55.333 -13.334 83 -40 83h-11c-22 0 -35.334 -18 -40 -54v-141h-52v5h-2l2 2v238h47v-21c16.666 19.333 38 29 64 29zM4432 1905h5c26.666 0 49.666 -13.333 69 -40v18l-3 3l3 11h47v-208c0 -64.667 -28.334 -108.667 -85 -132
l-33 -4h-7c-46.666 0 -81.333 26.667 -104 80h59c16 -14.667 31 -22.334 45 -23.001h13c14.666 0 29 7.33301 43 22c10 8.66699 17.334 26 22 52h-3c-21.334 -26.667 -45.667 -40 -73 -40c-38 0 -70 23.333 -96 70c-6.66602 12 -11.333 33 -14 63
c0 58.667 29 100.334 87 125.001zM3851 1897l53 -0.000976562v-136c4 -39.333 17.333 -59 40 -59h7c30.667 0 46 31 46 93v102h51v-245h-47l-3 10h3l-3 3v5l3 2v3h-4c0 -15.333 -19 -25.666 -57 -30.999h-3c-39.333 0 -67.333 25 -84 75l-2 85v93zM690 1771
c6.66699 -46 27.6689 -69 63.002 -69h7c39.333 9.33301 59 31 59 65v15c-8.66699 43.333 -28.334 65 -59.001 65h-5c-38.667 0 -60.334 -25.333 -65.001 -76zM3630 1774c8.66699 -48 29 -72 61 -72h5c38.667 0 60.667 25 66 75c0 32.667 -17 56 -51 70h-22
c-24.667 0 -43.334 -19 -56 -57zM4374 1774c5.33398 -48 27 -71.999 65 -71.999h5c39.334 8 59 32 59 72c0 40.667 -19.666 65 -59 73h-14c-37.334 -10.667 -56 -31.334 -56 -62.001v-11zM3928 1620h52v-57h-52v57zM1054 1402c28.667 -7.33301 43 -23.667 43 -49v-4
c0 -11.333 -10.667 -31.333 -32 -60h-28c0 16.667 10.333 35.667 31 57v7c0 8 -2.33301 13 -7 15h-12c-6.66699 -2.66699 -10 -9 -10 -19h-28v6c0 21.333 11 36 33 44zM3349 1339c61.333 0 107.333 -33.001 138 -99.001h-60c-24.667 28 -51.334 42 -80 42
c-36.667 0 -65.667 -22.667 -87 -68c-6.66699 -14.667 -10 -30.334 -10 -47.001c0 -52 27 -88.667 81 -110l18 -1c24 0 49 13 75 39h61c-29.333 -64.667 -75.333 -97 -138 -97c-62 0 -109 37.333 -141 112c-6.66699 20.667 -10 41.334 -10 62.001
c0 64.667 30 115.334 90 152.001c19.333 10 40.333 15 63 15zM3664 1339c38 0 72.333 -15.666 103 -46.999c30.667 -34 46 -72.333 46 -115v-20c0 -59.333 -30.333 -108 -91 -146c-22 -8.66699 -43 -13 -63 -13c-59.333 0 -105.333 33.667 -138 101
c-8.66699 22 -13 42 -13 60v18c0 65.333 32.667 115.666 98 150.999c19.333 7.33301 38.666 11 58 11zM2261 1337h2l47 -11h3c7.33301 0 16 3.66699 26 11l18 -36c-12 -12.667 -23.667 -19 -35 -19h-3l-54 10l-20 -7l-20 36c12 10.667 24 16 36 16zM716.002 1334h19
c78.667 0 121.667 -8.66699 129 -26c16.667 -17.333 25 -38 25 -62c-6.66699 -38 -16.667 -57 -30 -57v-6c31.333 -15.333 47 -37.333 47 -66v-18c0 -42 -23 -71.333 -69 -88l-54 -5h-67v328zM2550 1334h53v-217c4 -40.667 19 -61 45 -61c19.333 0 34 13 44 39l3 30v203l4 6
h45l5 -6v-171c0 -78.667 -13.333 -123 -40 -133c-16 -17.333 -37.333 -26 -64 -26c-36.667 0 -67 25.333 -91 76l-4 54v206zM2805 1334h59c2.66699 0 43.334 -79 122 -237h4v237h50l4 -6v-322h-58c-19.333 32 -61 111.333 -125 238h-3v-238h-53v328zM3101 1334h54v-328h-54
v328zM3859 1334l8 0.000976562c103.333 0 161.333 -13.333 174 -40c15.333 -7.33301 31 -32.333 47 -75l4 -36v-11l3 -2c0 -62.667 -27.333 -112.334 -82 -149.001c-23.333 -10 -56.333 -15 -99 -15h-55v328zM4141 1334h153v-60h-103v-75h101v-57h-101v-74l4 -5h99v-57h-157
v322zM3563 1175v-10c0 -50.667 26.333 -86.667 79 -108l19 -1c45.333 0 77.333 28.667 96 86l3 20v15c0 40.667 -20 72 -60 94c-8 5.33301 -21 9 -39 11c-44 0 -76 -27.667 -96 -83zM770.002 1274v-67h9c36 0 54 9.33301 54 28l3 14c-7.33301 16.667 -17 25 -29 25h-37z
M3912 1274v-206.001l2 -3v-2c69.333 0 110 25.333 122 76l2 15v29c0 22.667 -10.667 45.334 -32 68.001c-16.667 15.333 -42.667 23 -78 23h-16zM1041 1259h5c25.333 0 49 -13.333 71 -40v32h49v-245h-49v32c-24 -26.667 -50.667 -40 -80 -40c-50 0 -83.667 32.333 -101 97
l-5 36c0 59.333 28.333 101 85 125zM1314 1259h3c49.333 0 77 -34 83 -102v-151h-51v128c0 44.667 -14 67 -42 67h-10c-22.667 0 -35.667 -20.667 -39 -62v-133h-52v245h47v-21c18.667 19.333 39 29 61 29zM1543 1259h5c30 0 53.667 -13.333 71 -40v32h47v-219
c0 -63.333 -34.667 -105.333 -104 -126h-16c-49.333 0 -85.333 27.333 -108 82h59c17.333 -16.667 32 -25 44 -25h14c34.667 0 56 25.667 64 77c-22 -28 -47.333 -42 -76 -42c-40 0 -73.667 27 -101 81l-7 44v16c0 52.667 28.333 91.667 85 117zM1912 1259l2 0.000976562
c28.667 0 49 -12.333 61 -37h2c21.333 24.667 44.333 37 69 37h4c38 0 64.333 -18.333 79 -55c5.33301 -16.667 8 -31.667 8 -45v-153h-52v138c0 29.333 -7.66699 47.666 -23 54.999l-12 2h-15c-21.333 0 -33.333 -21.667 -36 -65v-130h-52v136c0 39.333 -14.333 59 -43 59
h-8c-21.333 0 -33.333 -19 -36 -57v-138h-54v245h50v-21h2c4 16 22 25.667 54 29zM2282 1259c31.333 0 56.333 -14 75 -42v34h47v-245h-47v32c-24 -26.667 -50 -40 -78 -40c-49.333 0 -83.333 30.667 -102 92l-6 41c0 60 28.333 101.667 85 125zM985.002 1117
c0 -32 20.333 -52.333 61 -61h4c30 0 50.667 15.333 62 46l3 15v22c-8 41.333 -27 62 -57 62h-14c-27.333 0 -47 -19 -59 -57v-27zM1487 1128c0 -32 14.332 -54.667 42.999 -68l18 -4h5c31.333 0 52.333 19 63 57v23c-7.33301 43.333 -26.666 65 -57.999 65h-12
c-33.333 0 -53 -24.333 -59 -73zM2225 1131v-14.001c10 -40.667 29 -61 57 -61h14c38.667 8 58 29.333 58 64v11c0 30 -12.333 51.667 -37 65l-18 5h-10c-42.667 -5.33301 -64 -28.666 -64 -69.999zM770.001 1150v-82c0 -3.33301 2.33301 -5 7 -5c51.333 0 77 15 77 45
c0 22.667 -15.667 36.667 -47 42h-37zM2966 752.999l24 -28l-51 -55c-12 8 -21 16.667 -27 26zM1524 726.999l85 -54c0 -10 -7 -24 -21 -42l-87 54c12 27.333 19.667 41.333 23 42zM2850 692.999h38l55 -60h-54l-21 26l-23 -26h-54c36 40 55.667 60 59 60zM3422 692.999h40
l56 -60h-54l-24 26h-1c0 -3.33301 -6.33301 -12 -19 -26h-54zM622.001 684.999l52 0.00195312c5.33301 -2.66699 21 -48.334 47 -137.001l34 -110c6 5.33301 17.333 38.666 34 99.999l48 147h54v-2l-112 -326h-44zM1159 685.001h51v-54h-51v54zM1354 685.001h46l6 -5v-323
h-52v328zM2317 685.001h45l4 -5v-78h31v-52h-31v-193h-53v193h-26v52h26v78zM2425 685.001h52v-98h2c15.333 15.333 33.333 23 54 23h3c38 0 65 -23.667 81 -71l3 -38v-144h-52v115c0 54 -13 81 -39 81h-10c-28 0 -42 -29 -42 -87v-109h-52v328zM2664 685.001h52v-54h-52v54
zM3028 685.001h44l6 -5v-78h29v-52h-29v-193h-54v193h-27v52h27v78zM3234 685.001h52v-328h-52v328zM3957 685.001h52v-328h-52v328zM4316 685.001h51v-54h-51v54zM1555 610.001h5c55.333 0 92 -34 110 -102l3 -23v-11c0 -55.333 -28.333 -95.333 -85 -120l-35 -5
c-50.667 0 -87.667 32.333 -111 97l-4 32c0 64.667 31 108 93 130zM1811 610.001h4c35.333 0 61.333 -20 78 -60c4.66699 -16.667 7 -43.667 7 -81v-112h-54v146c-4.66699 33.333 -17 50 -37 50h-10c-25.333 0 -39.333 -19 -42 -57v-139h-54v245h49v-21
c17.333 19.333 37 29 59 29zM2046 610.001h4.00098c30 0 51 -13 63 -39h3v31h49v-206c0 -68 -29.667 -113 -89 -135l-28 -3h-5c-48.667 0 -84 27 -106 81h52l37 -20l15 -3h14c33.333 0 53.666 24 60.999 72c-22 -26 -46.333 -39 -73 -39c-41.333 0 -74 25.333 -98 76
c-7.33301 15.333 -11.333 35.333 -12 60c0 56.667 28.667 97.667 86 123zM2866 610.001l2 -0.000976562c54.667 0 91.667 -34.667 111 -104l2 -25l-2 -27h-172c10 -30 25 -45 45 -45l14 -3c19.333 0 35.666 7.33301 49 22h57v-3c-23.333 -50.667 -59.333 -76 -108 -76
c-51.333 0 -88.333 32.333 -111 97l-1 28v8c0 32.667 10.667 62.334 32 89.001c22.667 26 50 39 82 39zM3429 610h5c27.333 0 50.666 -13 70 -39h2v31h47v-245h-47v31h-2c-23.333 -26 -49 -39 -77 -39c-47.333 0 -81 29.667 -101 89l-5 36v14c0 57.333 28 97.333 84 120z
M3711 610l7 -0.000976562c58.667 0 94.334 -42.667 107 -128l-2 -1v-15c0 -43.333 -22 -78.666 -66 -105.999c-14 -7.33301 -29.333 -11 -46 -11c-22.667 0 -44 10.667 -64 32v-99l-5 -5h-49v325h49v-28c20.667 24 43.667 36 69 36zM4151 609.999
c29.334 0 54.334 -13 75 -39v31h49v-245h-49v31c-23.334 -26 -49 -39 -77 -39c-61.333 0 -97.333 44 -108 132c0 56 24.333 96.333 73 121c10 5.33301 22.334 8 37 8zM922.002 601.999h50v-136c2 -40 16 -60 42 -60h5c29.333 0 44 29 44 87v109h52v-245h-47v24h-5
c0 -15.333 -18.667 -26 -56 -32h-3c-36.667 0 -64 22.667 -82 68c-2.66699 23.333 -4 56.333 -4 99v81zM1159 601.999h51v-245h-51v245zM2664 601.999h52v-245h-52v245zM4316 601.999h51v-245h-51v245zM1492 487.999v-15.999c8.66699 -44 28.334 -66 59.001 -66h4
c39.333 0 61.333 25.333 66 76c-8.66699 47.333 -28.334 71 -59.001 71h-11c-39.333 -10.667 -59 -32.334 -59 -65.001zM1987 472c10 -44 29.667 -66 59 -66h11c32 0 51.667 25 59 75v1c-8.66699 47.333 -28.334 71 -59 71h-14c-26 0 -44.667 -19 -56 -57v-24zM2805 506h122
v2c-10.667 30 -30.334 45 -59 45h-7c-23.333 0 -42 -15.667 -56 -47zM3373 474c8.66699 -45.333 29 -68 61 -68h5c34.667 0 56.334 21 65 63v12c-6.66699 48 -25.667 72 -57 72h-16c-37.333 -9.33301 -56 -30.333 -56 -63zM3642 478c8 -48 28.333 -72.001 61 -72.001h3
c33.333 0 55 20 65 60v22c0 28.667 -16.333 50.334 -49 65.001h-22c-31.333 0 -50.666 -24 -58 -72v-3zM4095 471.999c6.66602 -44 28.666 -66 66 -66c28.666 0 49 16 61 48l2 15v16c0 36 -17.334 58.667 -52 68h-18c-28 0 -47.666 -20 -59 -60v-21zM3416 320.999h51v-52
h-51v52zM4137 320.999h51v-52h-51v52zM2733 132.999h4c23.333 0 37.666 -16.667 43 -50v-2c0 -10.667 -8 -24.334 -24 -41.001l-10 -17h-28c0 16.667 9.33301 35.334 28 56.001l3 2v2c-2 12.667 -5 19 -9 19h-10c-5.33301 0 -8.33301 -6.33301 -9 -19h-30
c4 33.333 18 50 42 50zM1546 115.999l52 -60l-26 -19l-52 52zM352.002 78.999h4c50 -32 78.333 -52 85 -60l-20 -37c-58.667 32.667 -88 52 -88 58zM3490 78.999l86 -58l-18 -39c-6.66699 0 -37 18.333 -91 55c10 24 17.667 38 23 42zM4578 75.999l19 -42l-91 -52l-20 39
l92 58v-3zM1204 52.999h51v-19l5 -5h14v-36h-14l-5 -5v-279h-46v31c-22.667 -26.667 -49.667 -40 -81 -40c-48 0 -82 35 -102 105l-3 26c0 68 33.667 111.667 101 131h14c22 0 44 -11 66 -33v59l-6 5h-43v36h49v24zM1480 44.999h40l56 -61h-53l-23 27l-23 -27h-53z
M2641 44.999h33c8 0 29 -20.333 63 -61h-54l-23 27c-12.667 -14 -19 -23 -19 -27h-58v4zM49.002 36.999h160v-60h-56v-268h-50l-4 5v245l2 3v2l-2 2l2 3l-2 2l2 3l-2 3h-54v54zM699.002 36.999h47v-73l2 -2l-2 -3v-3l2 -2l-2 -3v-3l2 -2v-2l-2 -3l2 -3h3
c11.333 16 28.333 24 51 24h3c35.333 0 61 -19.333 77 -58c4.66699 -11.333 7 -25.333 7 -42v-153h-52v127c0 45.333 -13.333 68 -40 68h-8c-28.667 0 -43 -28.667 -43 -86v-109h-52v322zM1297 36.999h47l5 -6v-49h-52v55zM1987 36.999h52v-198l70 115h62l-78 -118l90 -125
v-2h-70c-6.66699 14.667 -31.334 53 -74 115v-115h-52v328zM2271 36.999v-98.999c16 16 33.667 24 53 24c38 0 64.667 -18.667 80 -56c6.66699 -12.667 10 -38.334 10 -77.001v-120h-54v133c0 41.333 -13.667 62 -41 62h-11c-20.667 0 -33 -18.333 -37 -55v-140h-53v314
l-1 3v3l1 2l-1 3l1 3h53zM2458 37h51v-55h-51v55zM3148 37h51v-108c18 22 40.667 33 68 33h3c50 0 85 -31.333 105 -94l5 -37c0 -50 -21.333 -90 -64 -120c-20 -7.33301 -36.333 -11 -49 -11c-27.333 0 -51.333 13.333 -72 40v-31h-47v328zM4275 37h52v-99h2
c15.334 16 33.334 24 54 24h3c40 0 67.334 -24.667 82 -74l2 -41v-138h-52v111c0 54.667 -10.666 82 -32 82l-10 2h-12c-24.666 0 -37 -26.667 -37 -80v-115h-52v328zM329.002 -38h3v-58h-5c-28 0 -42 -19 -42 -57v-138h-53v245h47v-21c12 19.333 28.667 29 50 29z
M564.002 -38c47.333 0 75.999 -29 85.999 -87v-166h-51v136c-4 39.333 -17.667 59 -41 59h-6c-30 0 -45 -28 -45 -84v-111h-52v245h50v-21c16.667 19.333 36.334 29 59.001 29zM1504 -38c48 0 83 -31.333 105 -94l5 -39c-1.33301 -16 -3.66602 -24 -6.99902 -24h-169
c11.333 -31.333 32 -47 62 -47c16 0 32 7 48 21h57c-22 -52.667 -58 -79 -108 -79c-54.667 0 -92.334 35 -113.001 105v37c0 54 29.667 93 89 117zM2657 -38h5c51.333 0 87 -32.333 107 -97l3 -26v-21l-3 -13h-170c12 -31.333 29.667 -47 53 -47h12c14 0 28 7 42 21h59
c-22.667 -52.667 -57.667 -79 -105 -79c-56 0 -94.333 34 -115 102l-2 29c0 62 30.333 104.667 91 128zM2915 -38h3.99902c36 0 62 -20 78 -60c4.66699 -16.667 7 -44 7 -82v-111h-54v138c0 32 -11.667 51 -35 57h-11c-25.333 0 -39.666 -19 -42.999 -57v-138h-54v245h50
v-21c16.667 19.333 36 29 58 29zM3508 -38h6c26.667 0 50 -13.333 70 -40h2v32h47v-245h-47v31h-2c-22.667 -26.667 -48.667 -40 -78 -40c-47.333 0 -81 30 -101 90l-4 37v12c0 54.667 25.667 93.667 77 117c7.33301 4 17.333 6 30 6zM3781 -38h4
c41.333 0 68.666 -26 82 -78l3 -84v-91h-54v138c0 32 -12.667 51 -38 57h-9c-25.333 0 -39.333 -17.333 -42 -52v-143h-54v245h49v-21c17.333 19.333 37 29 59 29zM4133 -38h1c49.334 0 84 -31 104 -93l4 -40c0 -58.667 -28 -100.667 -84 -126l-25 -3
c-27.333 0 -50 11.333 -68 34v-106h-52v326h47v-29c20 24.667 44.334 37 73 37zM4714 -38h5c22.666 0 43.666 -12.333 63 -37c18 24.667 41 37 69 37h6c37.334 0 63.667 -22 79 -66l6 -51v-136h-52v122c0 48.667 -13 73 -39 73h-7c-23.334 0 -37 -16.667 -41 -50v-140l-5 -5
h-48v140c0 28 -10.334 46.333 -31 55h-17c-26.666 0 -40 -25.667 -40 -77v-118h-51v245h47v-21c14.666 19.333 33.333 29 56 29zM359 -46h49l5 -6v-234l-5 -5h-49v245zM1297 -46h52v-245h-52v245zM1649 -46h52v-136c2.66699 -40 17 -60 43 -60h4c29.333 0 44 27 44 81v115
h52v-245h-47v24h-5c-8 -22 -27.667 -33 -59 -33c-34.667 0 -61 21 -79 63c-3.33301 8 -5 19.333 -5 34v157zM2458 -46h51v-245h-51v245zM4515 -46h51v-245h-51v245zM1077 -169c0 -35.333 16.999 -59.666 50.999 -72.999h12c36 0 58 22 66 66v10
c0 35.333 -18 58.666 -54 69.999h-17c-25.333 0 -44.666 -19 -57.999 -57v-16zM1438 -143h122.001c-12 31.333 -29.667 47 -53 47h-7c-28.667 0 -49.334 -14.667 -62.001 -44v-3zM2599 -143h122c-14 31.333 -32 47 -54 47h-7c-30.667 0 -51 -15.667 -61 -47zM3196 -158v-11
c6.66699 -48.667 27 -73 61 -73h5c42.667 5.33301 64 29 64 71v5c0 30 -12.667 51.667 -38 65l-18 5h-14c-40 -9.33301 -60 -30 -60 -62zM3452 -173c9.33301 -46 30 -69 62 -69h11c27.333 0 47 20 59 60v13c-5.33301 48.667 -24 73 -56 73h-17
c-31.333 0 -51 -24.333 -59 -73v-4zM4062 -158v-22c0 -31.333 19.667 -52 59 -62h9c33.334 0 53.667 25.333 61 76c-8.66602 46.667 -28 70 -58 70h-15c-37.333 -11.333 -56 -32 -56 -62z" />
    <glyph glyph-name="space" unicode=" " horiz-adv-x="589" 
 />
    <glyph glyph-name="exclam" unicode="!" horiz-adv-x="700" 
d="M176 139c0 45.333 16.668 84.665 50.001 117.998s72.666 50 117.999 50s84.666 -16 117.999 -48s50 -72 50 -120c0 -47.333 -16 -87.166 -48 -119.499s-72 -48.5 -120 -48.5c-45.333 0 -84.666 16.833 -117.999 50.5s-50 72.834 -50 117.501zM369.001 454.999
l-58.001 -0.000976562c-16 76 -33.667 167 -53 273s-37 207.333 -53 304c-11.333 50.667 -19.666 94.5 -24.999 131.5s-8 72.5 -8 106.5c0 46 16.333 84.833 49 116.5s73.667 47.5 123 47.5c50.667 0 90.667 -16.167 120 -48.5s44 -75.166 44 -128.499
c0 -28.667 -5.83301 -74.667 -17.5 -138l-31.5 -177l-45 -233l-24 -122.5c-7.33301 -39 -14.333 -82.833 -21 -131.5z" />
    <glyph glyph-name="quotedbl" unicode="&#x22;" horiz-adv-x="700" 
d="M254 1270v-377c0 -28.667 -6.5 -51.5 -19.5 -68.5s-32.5 -25.5 -58.5 -25.5c-54.667 0 -82 31.333 -82 94l4 29v348l-4 49c0 76.667 27.333 115 82 115c52 0 78 -41 78 -123v-41zM590 1270v-377c0 -28.667 -6.5 -51.5 -19.5 -68.5s-32.5 -25.5 -58.5 -25.5
c-57.333 0 -86 28.667 -86 86l4 37v348l-4 37c0 84.667 28.667 127 86 127c52 0 78 -42.333 78 -127v-37z" />
    <glyph glyph-name="numbersign" unicode="#" horiz-adv-x="1159" 
d="M1019 590v-152h-213l-65 -438h-156l66 438h-221l-66 -438h-152l66 438h-213v152h238l32 213h-213v151h234l61 406h156l-62 -406h218l61 406h152l-58 -406h189v-151h-213l-33 -213h192zM708 803h-221l-33 -213h221z" />
    <glyph glyph-name="dollar" unicode="$" horiz-adv-x="1159" 
d="M495 74v487c-136.667 26 -236.334 64.333 -299.001 115c-79.333 64 -119 161 -119 291c0 95.333 25.667 175.5 77 240.5s124 111.833 218 140.5c38 10.667 79 18.667 123 24v164l57 -4l62 4v-164c70.667 0 136 -8.5 196 -25.5s114.667 -45.167 164 -84.5
c-18 -40 -31.667 -73 -41 -99c-14.667 -36.667 -25.667 -72 -33 -106h-28c-18 57.333 -50.5 105 -97.5 143s-100.5 61.333 -160.5 70v-443c138.667 -28.667 242.334 -69.334 311.001 -122.001c90 -70 135 -168.333 135 -295c0 -124.667 -44 -229 -132 -313
s-192.667 -126 -314 -126v-221c-22 5.33301 -42.667 8 -62 8c-16 0 -28.333 -0.666992 -37 -2c-9.33301 -4 -16 -6 -20 -6v221c-75.333 0 -147.5 11.333 -216.5 34s-132.167 56.334 -189.5 101.001l49 242h41c18 -70.667 56.333 -131 115 -181s125.667 -81 201 -93zM495 864
l0.000976562 406.001c-53.333 -5.33301 -96 -26.5 -128 -63.5s-48 -84.167 -48 -141.5c0 -54.667 16.333 -99 49 -133c27.333 -28.667 69.666 -51.334 126.999 -68.001zM614.001 528.001l-0.000976562 -454c40.667 0 83 19.667 127 59c51.333 46.667 77 103.334 77 170.001
c0 64 -25.667 118.667 -77 164c-41.333 35.333 -83.666 55.666 -126.999 60.999z" />
    <glyph glyph-name="percent" unicode="%" horiz-adv-x="2052" 
d="M597 -61l713 1482l53 -4l58 4l-713 -1482l-58 4zM1482 -29c-102.667 0 -183.666 30.501 -242.999 91.501s-89 142.5 -89 244.5c0 98.667 34.167 180 102.5 244s151.5 96 249.5 96c93.333 0 173.333 -28.333 240 -85s100 -133.334 100 -230.001
c0 -109.333 -33.333 -196.833 -100 -262.5s-153.334 -98.5 -260.001 -98.5zM1490 37.001c61.333 0 103.667 36.668 127 110.001c14 44 21 105.667 21 185c0 69.333 -7 122.666 -21 159.999c-22 60 -60.333 90 -115 90c-60 0 -101.333 -34.333 -124 -103
c-15.333 -43.333 -23 -102 -23 -176c0 -75.333 6 -132 18 -170c20.667 -64 59.667 -96 117 -96zM536.002 700.002c-101.333 0 -182 30.167 -242 90.5s-90 140.833 -90 241.5c0 100 34.167 181.667 102.5 245s152.833 95 253.5 95c92 0 170 -26.667 234 -80
c70.667 -58.667 106 -135.667 106 -231c0 -109.333 -34 -196.833 -102 -262.5s-155.333 -98.5 -262 -98.5zM548.002 766.002c60 0 101.667 35.999 125 107.999c15.333 46.667 23 109 23 187c0 65.333 -7.66699 117.333 -23 156c-23.333 60 -62.333 90 -117 90
c-60 0 -101.667 -33.667 -125 -101c-14.667 -43.333 -22 -102.666 -22 -177.999s6 -131.333 18 -168c20.667 -62.667 61 -94 121 -94z" />
    <glyph glyph-name="ampersand" unicode="&#x26;" horiz-adv-x="1486" 
d="M750 799l23.9971 -28.9971l295 -360c46.667 52.667 91.667 115.334 135 188.001c31.333 50.667 68.333 117.667 111 201l110 -115c-86 -126.667 -180 -245.334 -282 -356.001l278 -312v-28c-21.333 0 -53.166 2 -95.499 6s-74.5 6 -96.5 6s-54.833 -2 -98.5 -6
s-76.5 -6 -98.5 -6l-102 147c-56 -48 -124.667 -88.667 -206 -122s-157.333 -50 -228 -50c-60.667 0 -114.5 7.5 -161.5 22.5s-91 39.333 -132 73s-70.667 71.667 -89 114s-27.5 88.5 -27.5 138.5c0 97.333 39 184.666 117 261.999
c58.667 59.333 141.334 112.666 248.001 159.999c-50.667 72.667 -85.667 127.334 -105 164.001c-31.333 61.333 -47 122.666 -47 183.999c0 93.333 39.667 170.666 119 231.999c72 56 156.667 84 254 84c88.667 0 164.334 -19.333 227.001 -58
c75.333 -44.667 113 -108.667 113 -192c0 -74 -27.333 -142.333 -82 -205c-37.333 -42 -97.333 -89.667 -180 -143zM691.997 872.003c40 32 76.668 73.501 110.001 124.501s50 98.5 50 142.5c0 43.333 -12.667 80.666 -38 111.999s-59 47 -101 47
c-98.667 0 -148 -50.333 -148 -151c0 -40 15 -87.667 45 -143c15.333 -27.333 42.666 -71.333 81.999 -132zM507.998 655.004c-46.667 -32.667 -83.001 -67.334 -109.001 -104.001c-31.333 -45.333 -47 -92.333 -47 -141c0 -64.667 22 -123.667 66 -177
c36.667 -43.333 81.667 -74.666 135 -93.999c14.667 -6.66699 30.334 -11 47.001 -13s38 -3 64 -3c32.667 0 69.5 8.16699 110.5 24.5s73.5 36.833 97.5 61.5l-184 219z" />
    <glyph glyph-name="quotesingle" unicode="'" horiz-adv-x="589" 
d="M364 1270v-377c0 -28.667 -6.5 -51.5 -19.5 -68.5s-32.5 -25.5 -58.5 -25.5c-54.667 0 -82 31.333 -82 94l4 29v348l-4 37c0 84.667 27.333 127 82 127c52 0 78 -41 78 -123v-41z" />
    <glyph glyph-name="parenleft" unicode="(" horiz-adv-x="700" 
d="M561 1548l53.001 -57.0029c-96.667 -109.333 -166.334 -244.666 -209.001 -405.999c-35.333 -133.333 -53 -289 -53 -467c0 -167.333 18.333 -314.666 55 -441.999c42.667 -146 111.667 -275.667 207 -389l-57 -53c-144.667 124 -251.167 258 -319.5 402
s-102.5 313 -102.5 507c0 196.667 34.667 366.667 104 510c66 136.667 173.333 268.334 322 395.001z" />
    <glyph glyph-name="parenright" unicode=")" horiz-adv-x="700" 
d="M122 -266l-53 53.0029c96.667 112 166.334 248 209.001 408c35.333 133.333 53 289.666 53 468.999c0 167.333 -18.333 314.666 -55 441.999c-42.667 146 -111.667 275.667 -207 389l57 53c144.667 -126.667 251.167 -261.334 319.5 -404.001s102.5 -311 102.5 -505
c0 -196.667 -33.833 -365 -101.5 -505s-175.834 -273.333 -324.501 -400z" />
    <glyph glyph-name="asterisk" unicode="*" horiz-adv-x="917" 
d="M180 1262l224.998 -171.998l-28 282l77 -4l82 4l-32 -282l225 176c13.333 -30 25.5 -54.333 36.5 -73s26.167 -42.334 45.5 -71.001l-262 -110l262 -111l-82 -143l-225 164l32 -279h-159l28 279l-217 -172l-57 102l-33 37l270 123l-270 106
c16.667 22 31.834 44.667 45.501 68s25.834 48.666 36.501 75.999z" />
    <glyph glyph-name="plus" unicode="+" horiz-adv-x="1245" 
d="M532 610v426h176v-426h430v-176h-430v-434h-176v434h-426v176h426z" />
    <glyph glyph-name="comma" unicode="," horiz-adv-x="589" 
d="M45 -365l94.001 381c8 33.333 16.5 67 25.5 101s20.333 67 34 99s30 55.167 49 69.5s45.833 21.5 80.5 21.5c35.333 0 66.666 -13 93.999 -39s41 -55.333 41 -88c0 -26 -5.66699 -47.667 -17 -65l-174 -254l-178 -250z" />
    <glyph glyph-name="hyphen" unicode="-" horiz-adv-x="700" 
d="M86 348v217h512v-217h-512z" />
    <glyph glyph-name="hyphen" unicode="&#x2010;" horiz-adv-x="700" 
d="M86 348v217h512v-217h-512z" />
    <glyph glyph-name="period" unicode="." horiz-adv-x="589" 
d="M282 -29c-45.333 0 -84 16.833 -116 50.5s-48 72.834 -48 117.501c0 45.333 16 84.666 48 117.999s70.667 50 116 50c46 0 86.167 -16.333 120.5 -49s51.5 -72.334 51.5 -119.001c0 -47.333 -16.667 -87.166 -50 -119.499s-74 -48.5 -122 -48.5z" />
    <glyph glyph-name="slash" unicode="/" horiz-adv-x="811" 
d="M795 1548l-619.002 -1814c-14.667 2.66699 -28.167 4.66699 -40.5 6s-27.5 2 -45.5 2c-13.333 0 -28.666 -1 -45.999 -3s-30.666 -3.66699 -39.999 -5l618 1814c14 -2.66699 27.5 -4.66699 40.5 -6s28.5 -2 46.5 -2c13.333 0 28.5 1 45.5 3s30.5 3.66699 40.5 5z" />
    <glyph glyph-name="zero" unicode="0" horiz-adv-x="1159" 
d="M577 1372c174.667 0 302.33 -69 382.997 -207c64 -109.333 96 -258.666 96 -447.999c0 -168 -13 -294.333 -39 -379s-63.667 -156.334 -113 -215.001c-84.667 -101.333 -196.667 -152 -336 -152c-87.333 0 -161.666 17.167 -222.999 51.5s-113.166 88 -155.499 161
s-71 149 -86 228s-22.5 165.833 -22.5 260.5c0 86 7.83301 173 23.5 261s40.5 159.333 74.5 214c88.667 150 221.334 225 398.001 225zM383.996 647c0 -212.667 9.66895 -355.999 29.002 -429.999c26 -100.667 79.333 -151 160 -151c69.333 0 117.666 52.333 144.999 157
c23.333 90 35 241 35 453c0 225.333 -12.667 382.666 -38 471.999s-71.333 134 -138 134c-76.667 0 -129.334 -54.667 -158.001 -164c-23.333 -90 -35 -247 -35 -471z" />
    <glyph glyph-name="one" unicode="1" horiz-adv-x="1159" 
d="M455 -12l0.000976562 1159c-78 -42.667 -158.667 -83.667 -242 -123c-18 36.667 -45.333 70.667 -82 102v17c83.333 27.333 156.666 54 219.999 80s186.666 84 369.999 174l16 -13v-1396c-16 0 -39.833 2 -71.5 6s-55.5 6 -71.5 6c-19.333 0 -41.666 -1.33301 -66.999 -4
s-49.333 -5.33398 -72 -8.00098z" />
    <glyph glyph-name="two" unicode="2" horiz-adv-x="1159" 
d="M999 0l-901 0.000976562v90c124 116 210.667 200 260 252c102.667 109.333 181.334 211 236.001 305c68 118.667 102 232 102 340c0 78 -17.667 144.333 -53 199c-42.667 64 -101.334 96 -176.001 96c-60 0 -109.333 -34 -148 -102
c-32.667 -58.667 -49 -121.667 -49 -189l4 -8l-20 -4c-23.333 27.333 -49.333 53.333 -78 78s-56 43.667 -82 57c32.667 87.333 90 153.666 172 198.999c72.667 39.333 158.667 59 258 59c135.333 0 244.666 -28 327.999 -84c98 -65.333 147 -163 147 -293
c0 -90 -26 -173.333 -78 -250c-18.667 -30 -46.667 -64 -84 -102c-25.333 -26 -58.666 -57.333 -99.999 -94c-156.667 -135.333 -263 -231 -319 -287v-12h262c35.333 0 88.5 2.66699 159.5 8s124.167 8 159.5 8l-12 -131z" />
    <glyph glyph-name="three" unicode="3" horiz-adv-x="1159" 
d="M369 651l-0.000976562 103.003l53 -4c80.667 0 140 28 178 84c34 48.667 51 116 51 202c0 64.667 -11.667 118.667 -35 162c-30 56 -74.333 84 -133 84c-64 0 -111.667 -24.667 -143 -74c-23.333 -35.333 -41 -92.666 -53 -171.999h-29l-68 68
c-31.333 31.333 -55 53.666 -71 66.999c44.667 74 104 127.333 178 160c61.333 27.333 138.333 41 231 41c134 0 238.5 -28 313.5 -84s112.5 -131.667 112.5 -227c0 -83.333 -23 -151 -69 -203c-41.333 -46.667 -103 -84.334 -185 -113.001l-28 -12l-4 -12
c0 -5.33301 8.16699 -9.33301 24.5 -12s28.5 -4 36.5 -4c92.667 -28.667 152 -52.667 178 -72c67.333 -50.667 101 -133.334 101 -248.001c0 -122.667 -51.667 -222.334 -155 -299.001s-226.666 -115 -369.999 -115c-84.667 0 -157.667 11 -219 33
c-73.333 26 -132.666 68.333 -177.999 127l67.5 90c24.333 32.667 44.166 61.334 59.499 86.001l29 -4c9.33301 -70.667 30.333 -126 63 -166c40 -47.333 94 -71 162 -71c70.667 0 129.334 32 176.001 96c40.667 57.333 61 122 61 194
c0 117.333 -27.667 198.666 -83 243.999c-42.667 34 -106.334 51 -191.001 51h-61z" />
    <glyph glyph-name="four" unicode="4" horiz-adv-x="1159" 
d="M606 332l-537.003 -0.00195312l12 98c0 14 -1.33301 29.833 -4 47.5l-8 50.5l157.5 230.5l170.5 257.5l151 221c32.667 49.333 61.334 94.333 86.001 135c20.667 -2.66699 40.167 -4.66699 58.5 -6s41.166 -2 68.499 -2c20.667 0 43.334 1 68.001 3
s44.334 3.66699 59.001 5v-819h168c-2.66699 -19.333 -4.66699 -37.166 -6 -53.499s-2 -35.5 -2 -57.5c0 -17.333 0.666992 -35.666 2 -54.999s3.33301 -37.666 6 -54.999h-168v-344c-16 0 -39.833 2 -71.5 6s-55.5 6 -71.5 6c-19.333 0 -41.666 -1.33301 -66.999 -4
s-49.333 -5.33398 -72 -8.00098v344zM605.997 552.998v594l-390 -582l9 -12h381z" />
    <glyph glyph-name="five" unicode="5" horiz-adv-x="1159" 
d="M241 1360l679.999 -0.000976562c-2.66699 -20.667 -4.66699 -40.167 -6 -58.5s-2 -38.5 -2 -60.5c0 -20.667 0.666992 -41.167 2 -61.5s3.33301 -40.833 6 -61.5h-586l-16 -356l12 -4c30 16 62.167 27.5 96.5 34.5s70.5 10.5 108.5 10.5
c66.667 0 124.334 -6.83301 173.001 -20.5s96 -39.5 142 -77.5c84.667 -72.667 127 -167 127 -283c0 -70 -15.667 -134 -47 -192s-75.666 -107.333 -132.999 -148c-47.333 -34 -105.5 -61 -174.5 -81s-135.167 -30 -198.5 -30c-66.667 0 -130.334 9.33301 -191.001 28
s-117 47.667 -169 87c42 61.333 76 131 102 209h29c16.667 -62.667 41.334 -114 74.001 -154c40.667 -50 91 -75 151 -75c88.667 0 155 35.333 199 106c36.667 60 55 136.333 55 229c0 80.667 -23 150.334 -69 209.001c-22 26 -48 46.833 -78 62.5s-61.333 23.5 -94 23.5
c-33.333 0 -65.333 -7.5 -96 -22.5s-57.334 -34.833 -80.001 -59.5l-50 29z" />
    <glyph glyph-name="six" unicode="6" horiz-adv-x="1159" 
d="M859 1282l-11.9951 -19.999c-18 8 -42 13.333 -72 16s-47 4 -51 4c-44.667 0 -86.834 -12 -126.501 -36s-73.834 -55.667 -102.501 -95c-20.667 -26 -37.667 -54 -51 -84c-8.66699 -19.333 -22.167 -65.5 -40.5 -138.5s-27.5 -142.167 -27.5 -207.5l12 -8
c63.333 70.667 141.333 106 234 106c120 0 219.667 -35.5 299 -106.5s119 -166.5 119 -286.5c0 -134 -46.5 -243.333 -139.5 -328s-207.833 -127 -344.5 -127c-34 0 -72.167 4.5 -114.5 13.5s-76.5 20.833 -102.5 35.5c-64 30.667 -116 76 -156 136
c-36.667 51.333 -63.5 110.166 -80.5 176.499s-25.5 135.833 -25.5 208.5c0 142 21 273.667 63 395c50.667 143.333 125.334 253.333 224.001 330c47.333 35.333 102.166 61.833 164.499 79.5s126.166 26.5 191.499 26.5c18 0 35.167 -0.333008 51.5 -1s33.166 -3 50.499 -7
c3.33301 -12 8.66602 -25.167 15.999 -39.5zM380.005 406.001c0 -92 8.33105 -163 24.998 -213c27.333 -84.667 76.333 -127 147 -127c62.667 0 111.334 37.333 146.001 112c25.333 58.667 38 123.667 38 195c0 84.667 -10 153.667 -30 207
c-31.333 80 -82.666 120 -153.999 120c-62.667 0 -109 -34.667 -139 -104c-22 -52 -33 -115.333 -33 -190z" />
    <glyph glyph-name="seven" unicode="7" horiz-adv-x="1159" 
d="M135 1360l934.001 -0.000976562l16 -37c-134.667 -228 -256 -445.667 -364 -653c-126 -240.667 -234 -468 -324 -682l-135 12c-19.333 0 -40.5 -1.33301 -63.5 -4l-67.5 -8l373 583c133.333 216 238.333 391.667 315 527l-684 -17
c1.33301 16.667 3.66602 41.334 6.99902 74.001s5 54.667 5 66c0 18.667 -1.33301 40.667 -4 66z" />
    <glyph glyph-name="eight" unicode="8" horiz-adv-x="1159" 
d="M503 688c-44 -20.667 -76 -65.6689 -96 -135.002c-15.333 -52 -23 -109.333 -23 -172c0 -105.333 19 -186.666 57 -243.999c32 -47.333 74.333 -71 127 -71c63.333 0 112 38 146 114c26 58.667 39 124.334 39 197.001c0 40.667 -4.5 85 -13.5 133s-21.667 84.5 -38 109.5
s-36.833 44.667 -61.5 59s-50 21.5 -76 21.5c-20 0 -40.333 -4 -61 -12zM773 757.998l-0.00195312 -17.002c84.667 -12 153 -50.167 205 -114.5s78 -139.5 78 -225.5c0 -130.667 -45.833 -235 -137.5 -313s-208.5 -117 -350.5 -117c-66.667 0 -128.667 7.5 -186 22.5
s-109.166 40 -155.499 75s-82.166 79.5 -107.499 133.5s-38 111 -38 171c0 88.667 26.667 168.834 80 240.501s122.333 114.167 207 127.5v17c-67.333 12 -123.833 45 -169.5 99s-68.5 115 -68.5 183c0 112 46.333 197.333 139 256c79.333 50.667 179 76 299 76
c67.333 0 123.833 -4.83301 169.5 -14.5s90.5 -29.5 134.5 -59.5c90 -61.333 135 -141.666 135 -240.999c0 -76.667 -20.5 -141 -61.5 -193s-98.5 -87.333 -172.5 -106zM412.998 1020c0 -36.667 1.66992 -66.999 5.00293 -90.999s12.166 -47.667 26.499 -71
s32.166 -42.5 53.499 -57.5s44.666 -22.5 69.999 -22.5c58.667 0 101.667 31.333 129 94c20.667 46.667 31 102.667 31 168c0 68.667 -9.66699 122.667 -29 162c-25.333 53.333 -69 80 -131 80c-60 0 -103 -30.667 -129 -92c-17.333 -42.667 -26 -99.334 -26 -170.001z" />
    <glyph glyph-name="nine" unicode="9" horiz-adv-x="1159" 
d="M201 131l12 12.0029c39.333 -27.333 67.333 -45 84 -53c32.667 -16 64.667 -24 96 -24c118.667 0 211 63.333 277 190c52.667 102.667 79 219.334 79 350.001v21l-12 4c-31.333 -32.667 -68.5 -58 -111.5 -76s-87.833 -27 -134.5 -27
c-113.333 0 -207.333 33.667 -282 101c-79.333 70.667 -119 162.667 -119 276c0 78 9.5 143.333 28.5 196s54.5 104.667 106.5 156c41.333 41.333 88.5 70.833 141.5 88.5s112.5 26.5 178.5 26.5c82 0 156 -13.333 222 -40s121.667 -69.334 167 -128.001
c39.333 -53.333 68.166 -114.333 86.499 -183s27.5 -140 27.5 -214c0 -106.667 -11.333 -207 -34 -301c-27.333 -108 -67 -200.833 -119 -278.5s-123 -139.834 -213 -186.501s-182.333 -70 -277 -70c-42 0 -81.333 5.66699 -118 17l-31 10
c-4 1.33301 -8.16699 10.166 -12.5 26.499s-11.166 35.166 -20.499 56.499zM745 938.003c0 91.333 -8.00098 163 -24.001 215c-27.333 86 -76.666 129 -147.999 129c-60 0 -107 -33.333 -141 -100c-28.667 -56 -43 -117 -43 -183l4 -24c0 -80.667 9.66699 -147.667 29 -201
c30 -84.667 80.333 -127 151 -127c63.333 0 110 35 140 105c21.333 51.333 32 113.333 32 186z" />
    <glyph glyph-name="colon" unicode=":" horiz-adv-x="589" 
d="M286 639c-46.667 0 -86.3311 16.3301 -118.998 48.9971s-49 72.334 -49 119.001c0 44.667 16.667 83.834 50 117.501s72.666 50.5 117.999 50.5s84.666 -16 117.999 -48s50 -72 50 -120c0 -45.333 -16 -84.666 -48 -117.999s-72 -50 -120 -50zM286.003 -29.0029
c-46.667 0 -86.3301 16.501 -118.997 49.501s-49 72.5 -49 118.5c0 45.333 16.667 84.666 50 117.999s72.666 50 117.999 50s84.666 -16 117.999 -48s50 -72 50 -120c0 -46 -16.333 -85.5 -49 -118.5s-72.334 -49.5 -119.001 -49.5z" />
    <glyph glyph-name="semicolon" unicode=";" horiz-adv-x="589" 
d="M147 807c0 44.667 16.834 83.833 50.501 117.5s72.834 50.5 117.501 50.5c45.333 0 84.666 -16 117.999 -48s50 -72 50 -120c0 -45.333 -16 -84.666 -48 -117.999s-72 -50 -120 -50c-44.667 0 -83.834 16.667 -117.501 50s-50.5 72.666 -50.5 117.999zM45.001 -365.001
l94.001 381c8 33.333 16.5 67 25.5 101s20.333 67 34 99s30 55.167 49 69.5s45.833 21.5 80.5 21.5c35.333 0 66.666 -13 93.999 -39s41 -55.333 41 -88c0 -26 -5.66699 -47.667 -17 -65l-174 -254l-178 -250z" />
    <glyph glyph-name="less" unicode="&#x3c;" horiz-adv-x="1245" 
d="M327 524l815 -377v-172l-1040 471v152l1040 471v-172z" />
    <glyph glyph-name="equal" unicode="=" horiz-adv-x="1245" 
d="M1138 811v-176h-1032v176h1032zM1138 410v-177h-1032v177h1032z" />
    <glyph glyph-name="greater" unicode="&#x3e;" horiz-adv-x="1245" 
d="M98 147l815 377l-815 373v172l1044 -471v-152l-1044 -471v172z" />
    <glyph glyph-name="question" unicode="?" horiz-adv-x="917" 
d="M434 -29c-44.667 0 -83.833 16.832 -117.5 50.499s-50.5 72.834 -50.5 117.501c0 45.333 16.833 84.666 50.5 117.999s72.834 50 117.501 50c45.333 0 84.666 -16 117.999 -48s50 -72 50 -120c0 -47.333 -16 -87.166 -48 -119.499s-72 -48.5 -120 -48.5zM631.001 552.999
l20.0039 -8.00293l-12 -31c-9.33301 -22 -16.333 -40.333 -21 -55c-40.667 -5.33301 -81.334 -11 -122.001 -17c-40 0 -78 5.83301 -114 17.5s-66.667 28.834 -92 51.501s-46.5 50 -63.5 82s-25.5 63.667 -25.5 95c0 42.667 6.83301 80.334 20.5 113.001
s47.834 78.334 102.501 137.001l102 111c30 36.667 49.167 63.834 57.5 81.501s12.5 38.167 12.5 61.5c0 42 -14.333 75 -43 99s-65 36 -109 36c-84.667 0 -144.667 -35.333 -180 -106h-29l-4 135c27.333 23.333 65.833 42.166 115.5 56.499s94.5 21.5 134.5 21.5
c34 0 62 -1.16699 84 -3.5s44.333 -6.83301 67 -13.5c41.333 -12 74.666 -24.5 99.999 -37.5s48.166 -31.5 68.499 -55.5s36.333 -52 48 -84s17.5 -63 17.5 -93c0 -95.333 -54 -197 -162 -305s-162 -182.667 -162 -224c0 -26.667 10.667 -49 32 -67s45 -27 71 -27
c13.333 0 28.166 2.83301 44.499 8.5s30.166 12.5 41.499 20.5z" />
    <glyph glyph-name="at" unicode="@" horiz-adv-x="1552" 
d="M896 823c0 79.333 -30 119.002 -90 119.002c-71.333 0 -132 -54 -182 -162c-42.667 -91.333 -64 -178 -64 -260c0 -40.667 5.5 -71.334 16.5 -92.001s34.167 -31 69.5 -31c52 0 104.667 37.667 158 113c61.333 87.333 92 191.666 92 312.999zM953 954.002l21.002 77.9961
h197l-136 -500l-8 -44.5c-2.66699 -15 -4 -23.167 -4 -24.5c0 -44 15 -66 45 -66c57.333 0 113.333 39 168 117c62.667 90 94 198.667 94 326c0 125.333 -42.333 232.333 -127 321c-95.333 100 -223.666 150 -384.999 150c-174.667 0 -316.667 -56.667 -426 -170
s-164 -261.666 -164 -444.999c0 -186.667 57 -335 171 -445s262 -165 444 -165c95.333 0 182.666 23.833 261.999 71.5s147.666 113.834 204.999 198.501h135c-60 -118.667 -146.333 -213.834 -259 -285.501s-235.334 -107.5 -368.001 -107.5c-203.333 0 -376 67 -518 201
c-146 138 -219 311.333 -219 520s69.333 385.834 208 531.501s311 218.5 517 218.5c187.333 0 343 -59.667 467 -179c120 -114.667 180 -251.667 180 -411c0 -75.333 -11.167 -146.166 -33.5 -212.499s-57.5 -125.166 -105.5 -176.499
c-42.667 -45.333 -91.334 -84.333 -146.001 -117c-65.333 -39.333 -123.333 -59 -174 -59c-43.333 0 -77.666 17 -102.999 51s-40 75.667 -44 125c-38 -56 -71.333 -95.667 -100 -119c-38.667 -30 -84.667 -45 -138 -45c-83.333 0 -147.833 27.667 -193.5 83
s-68.5 127.333 -68.5 216c0 114.667 43 220.5 129 317.5s185 145.5 297 145.5c41.333 0 79 -11 113 -33c26 -16.667 48.333 -38.667 67 -66z" />
    <glyph glyph-name="A" unicode="A" horiz-adv-x="1376" 
d="M843 418h-479.001c-27.333 -78 -46.333 -133.333 -57 -166c-40 -113.333 -68.667 -200 -86 -260c-12.667 1.33301 -26.834 3 -42.501 5s-33.167 3 -52.5 3c-16 0 -33.667 -1 -53 -3s-34.333 -3.66699 -45 -5l586 1421c12 -2.66699 24.5 -4 37.5 -4h40.5h28h23
c12 2.66699 20.667 4 26 4l570 -1425c-27.333 0 -48.666 0.666992 -63.999 2c-72 6.66699 -109.333 10 -112 10c-27.333 -0 -48.666 -0.666992 -63.999 -2c-72 -6.66699 -109.667 -10 -113 -10c-47.333 166.667 -95 310 -143 430zM420.999 545h373l-180 475z" />
    <glyph glyph-name="B" unicode="B" horiz-adv-x="1269" 
d="M163 0l0.000976562 1397h528c118 0 211 -21.333 279 -64c84.667 -53.333 127 -136 127 -248c0 -91.333 -33.333 -167 -100 -227c-60.667 -53.333 -139.334 -86.666 -236.001 -99.999v-17c98 -10.667 178 -37 240 -79c86 -60.667 129 -147.667 129 -261
c0 -132 -52 -234.333 -156 -307c-90 -62.667 -203.333 -94 -340 -94h-471zM470.001 1278l0.000976562 -483.001l53 -4c36 0 68.667 3.66699 98 11s57 21.333 83 42c31.333 26 54.166 57.333 68.499 94s21.5 76.334 21.5 119.001c0 72 -19.5 128.167 -58.5 168.5
s-93.167 60.5 -162.5 60.5c-15.333 0 -32.833 -1 -52.5 -3zM470.002 675.998v-557h103c60 0 113.667 23 161 69c53.333 52 80 119 80 201c0 100 -24.5 172.833 -73.5 218.5s-121.5 68.5 -217.5 68.5h-53z" />
    <glyph glyph-name="C" unicode="C" horiz-adv-x="1376" 
d="M1249 242l25 -13.002l-45 -176c-59.333 -31.333 -123.333 -54.166 -192 -68.499s-140 -21.5 -214 -21.5c-224 0 -407 62.333 -549 187c-147.333 128 -221 296.333 -221 505c0 254 80 450 240 588c146 127.333 337.667 191 575 191c70 0 142.5 -9.33301 217.5 -28
s141.833 -43.667 200.5 -75l-45 -209h-29c-39.333 56 -89.833 101.5 -151.5 136.5s-124.5 52.5 -188.5 52.5c-156.667 0 -278.667 -67 -366 -201c-75.333 -116 -113 -258 -113 -426c0 -180 42.667 -324.667 128 -434s205 -164 359 -164c64.667 0 130 14.333 196 43
s123.667 66.334 173 113.001z" />
    <glyph glyph-name="D" unicode="D" horiz-adv-x="1617" 
d="M176 1397l700 0.000976562c205.333 0 363.333 -67.667 474 -203c96.667 -118.667 145 -271 145 -457c0 -226.667 -71.667 -407.334 -215 -542.001c-138 -130 -315 -195 -531 -195h-573v1397zM483 1278v-1159h172c156 0 275 43.667 357 131
c95.333 102 143 265.667 143 491c0 186 -42.333 323.333 -127 412c-79.333 83.333 -194 125 -344 125h-201z" />
    <glyph glyph-name="E" unicode="E" horiz-adv-x="1269" 
d="M159 1397l942.001 -0.000976562c-2.66699 -15.333 -5.33398 -33.166 -8.00098 -53.499s-4 -32.5 -4 -36.5l12 -86c-69.333 6.66699 -156.333 13 -261 19s-204.667 9 -300 9h-74v-442h328c64 0 112.333 1 145 3s84 7.66699 154 17l-16 -90
c0 -10.667 1.66699 -24.167 5 -40.5s7 -31.5 11 -45.5c-35.333 2.66699 -84.5 6.16699 -147.5 10.5s-113.5 6.5 -151.5 6.5h-328v-521c118.667 0 235 2.83301 349 8.5s209.333 12.5 286 20.5l-12 -86c0 -12 1.33301 -26.167 4 -42.5l8 -47.5h-942v1397z" />
    <glyph glyph-name="F" unicode="F" 
d="M466 668l0.00292969 -680c-16 0 -41.167 2 -75.5 6s-59.5 6 -75.5 6c-18 0 -44 -2 -78 -6s-60 -6 -78 -6v1409h782c-2.66699 -15.333 -5.33398 -33.166 -8.00098 -53.499s-4 -32.5 -4 -36.5l12 -86c-120 10.667 -210 18 -270 22s-128.333 6 -205 6v-442h217
c71.333 0 154.666 6.66699 249.999 20c-2.66699 -14.667 -5.33398 -32.334 -8.00098 -53.001s-4 -33 -4 -37l12 -86c-44.667 4 -92 7.83301 -142 11.5s-86 5.5 -108 5.5h-217z" />
    <glyph glyph-name="G" unicode="G" horiz-adv-x="1617" 
d="M1450 623l-0.00195312 -566.001c-105.333 -30 -201 -53.167 -287 -69.5s-172 -24.5 -258 -24.5c-233.333 0 -423.666 56 -570.999 168c-165.333 125.333 -248 303 -248 533c0 245.333 82 437 246 575c152.667 130 353.334 195 602.001 195c92.667 0 179 -10 259 -30
s157.333 -52.333 232 -97c-30 -70 -49 -138.333 -57 -205h-29c-46 66.667 -103.833 118.167 -173.5 154.5s-145.5 54.5 -227.5 54.5c-164 0 -292.333 -66.333 -385 -199c-84.667 -120 -127 -272.333 -127 -457c0 -177.333 43 -316.5 129 -417.5s206.667 -151.5 362 -151.5
c50.667 0 92.834 4.83301 126.501 14.5s66.834 23.834 99.501 42.501v480c17.333 0 43.166 -1.5 77.499 -4.5s60.166 -4.5 77.499 -4.5c16.667 0 45.5 1.5 86.5 4.5s62.833 4.5 65.5 4.5z" />
    <glyph glyph-name="H" unicode="H" horiz-adv-x="1617" 
d="M176 -12v1409c18 0 44 -2.16699 78 -6.5s60 -6.5 78 -6.5c16 0 41.167 2.16699 75.5 6.5s59.5 6.5 75.5 6.5v-557c36.667 0 97 -1.5 181 -4.5s129 -4.5 135 -4.5c34 0 93 1.5 177 4.5s128.667 4.5 134 4.5v557c18 0 44 -2.16699 78 -6.5s60 -6.5 78 -6.5
c16 0 41.167 2.16699 75.5 6.5s59.5 6.5 75.5 6.5v-1409c-16 0 -41.167 2 -75.5 6s-59.5 6 -75.5 6c-18 0 -44 -2 -78 -6s-60 -6 -78 -6v688c-34 0 -85.833 2 -155.5 6s-121.5 6 -155.5 6c-36 0 -88.833 -2 -158.5 -6s-122.167 -6 -157.5 -6v-688c-16 0 -41.167 2 -75.5 6
s-59.5 6 -75.5 6c-18 0 -44 -2 -78 -6s-60 -6 -78 -6z" />
    <glyph glyph-name="I" unicode="I" horiz-adv-x="700" 
d="M188 -12v1409c16.667 0 42 -2.16699 76 -6.5s59.333 -6.5 76 -6.5c17.333 0 43.166 2.16699 77.499 6.5s60.166 6.5 77.499 6.5v-1409c-17.333 0 -43.166 2 -77.499 6s-60.166 6 -77.499 6c-16.667 0 -42 -2 -76 -6s-59.333 -6 -76 -6z" />
    <glyph glyph-name="J" unicode="J" horiz-adv-x="700" 
d="M515 1397l0.00195312 -1106c0 -92.667 -2.66699 -160.334 -8 -203.001c-9.33301 -74 -28.333 -134.667 -57 -182c-41.333 -70 -96 -124.667 -164 -164c-62.667 -35.333 -137.667 -58.666 -225 -69.999l-33 99c76.667 20 128 68.333 154 145c17.333 53.333 26 144 26 272
v1209c16.667 0 42 -2.16699 76 -6.5s59.333 -6.5 76 -6.5c17.333 0 43.166 2.16699 77.499 6.5s60.166 6.5 77.499 6.5z" />
    <glyph glyph-name="K" unicode="K" horiz-adv-x="1269" 
d="M151 -12l-0.000976562 1409c16.667 0 42 -2.16699 76 -6.5s59.333 -6.5 76 -6.5c17.333 0 43.166 2.16699 77.499 6.5s60.166 6.5 77.499 6.5v-643l268 319l265 324c36.667 -4 73.334 -8.33301 110.001 -13c14 0 30.5 1.5 49.5 4.5s38.167 5.83301 57.5 8.5v-17
l-336 -352l-193 -217l549 -791v-32c-16 0 -41.167 2 -75.5 6s-59.5 6 -75.5 6c-18 0 -44 -2 -78 -6s-60 -6 -78 -6l-463 655v-655c-17.333 0 -43.166 2 -77.499 6s-60.166 6 -77.499 6c-16.667 0 -42 -2 -76 -6s-59.333 -6 -76 -6z" />
    <glyph glyph-name="L" unicode="L" 
d="M470 1397v-1250c88.667 0 172 3 250 9l221 20l-12 -86c0 -12 1.33301 -26.167 4 -42.5l8 -47.5h-778v1397c18 0 44 -2.16699 78 -6.5s60 -6.5 78 -6.5c16 0 41.167 2.16699 75.5 6.5s59.5 6.5 75.5 6.5z" />
    <glyph glyph-name="M" unicode="M" horiz-adv-x="1835" 
d="M921 434l153.999 298.999l161 320c53.333 107.333 106.666 222 159.999 344c28.667 -4 57.334 -8.33301 86.001 -13c12.667 0 27.167 1.5 43.5 4.5l46.5 8.5l60.5 -536.5c21 -184.333 39.833 -338.333 56.5 -462s37.667 -260.5 63 -410.5
c-27.333 0 -53.833 1.33301 -79.5 4s-56.5 5.33398 -92.5 8.00098c-18.667 0 -45.834 -2 -81.501 -6s-62.834 -6 -81.501 -6c0 133.333 -10.333 286.833 -31 460.5l-60 497.5l-153 -313l-152 -316l-149 -317l-45 4l-33 -4l-214 447.5l-232 474.5
c-14 -98.667 -28.167 -209 -42.5 -331s-25.166 -232.167 -32.499 -330.5s-11 -189.166 -11 -272.499l-99 12c-13.333 0 -28.5 -1.33301 -45.5 -4s-33.167 -5.33398 -48.5 -8.00098c26 142 50 286 72 432l65 456.5l72 520.5c28.667 -4 57.334 -8.33301 86.001 -13
c28.667 4.66699 57.334 9 86.001 13l149 -322l158 -321z" />
    <glyph glyph-name="N" unicode="N" horiz-adv-x="1617" 
d="M172 -8l0.000976562 1405h205l885 -959v959c20 -2.66699 34.167 -4.66699 42.5 -6s21.166 -2 38.499 -2l82 8v-1409l-176 4l-346 389l-342 373l-225 233v-995c-20.667 2.66699 -35 4.66699 -43 6s-21 2 -39 2z" />
    <glyph glyph-name="O" unicode="O" horiz-adv-x="1396" 
d="M1347 705c0 -206.667 -59.3359 -380.334 -178.003 -521.001c-125.333 -147.333 -287 -221 -485 -221c-191.333 0 -343.666 64.5 -456.999 193.5s-170 308.833 -170 539.5c0 210.667 58 384.334 174 521.001c122.667 144.667 287.334 217 494.001 217
c216.667 0 380.334 -82 491.001 -246c87.333 -130 131 -291 131 -483zM711.997 1311c-118.667 0 -210.333 -55.999 -275 -167.999s-97 -281.333 -97 -508c0 -150 26.333 -275 79 -375c62 -116 151.667 -174 269 -174c124 0 220.333 66.333 289 199
c61.333 118.667 92 270.667 92 456c0 153.333 -27.333 281.666 -82 384.999c-64 123.333 -155.667 185 -275 185z" />
    <glyph glyph-name="P" unicode="P" horiz-adv-x="1159" 
d="M454 606l-0.000976562 -617.999c-16 0 -41.167 2 -75.5 6s-59.5 6 -75.5 6c-18 0 -44 -2 -78 -6s-60 -6 -78 -6v1409h504c292 0 438 -116 438 -348c0 -170.667 -59.333 -290.334 -178 -359.001c-97.333 -56 -249.666 -84 -456.999 -84zM453.999 1286v-565
c49.333 0 94.333 4 135 12c64.667 18 112.667 53.667 144 107c27.333 46 41 103.333 41 172c0 82 -18.5 148.167 -55.5 198.5s-82.833 75.5 -137.5 75.5h-127z" />
    <glyph glyph-name="Q" unicode="Q" horiz-adv-x="1724" 
d="M860 1311c-160 0 -278.335 -65 -355.002 -195c-66.667 -113.333 -100 -273.666 -100 -480.999c0 -151.333 32.667 -276.333 98 -375c76.667 -116 187.334 -174 332.001 -174c140.667 0 251.667 60 333 180s122 278.333 122 475c0 153.333 -33 281.666 -99 384.999
c-77.333 123.333 -187.666 185 -330.999 185zM1044 -193l-220.999 155.999c-230.667 0 -413.667 63.667 -549 191c-139.333 130.667 -209 311.334 -209 542.001c0 224 78.667 404.333 236 541c150 131.333 340.333 197 571 197c226.667 0 409.667 -67 549 -201
s209 -310 209 -528c0 -166.667 -46.833 -312.834 -140.5 -438.501s-220.5 -214.5 -380.5 -266.5c183.333 -116 361 -219.667 533 -311c-104 -20.667 -199.667 -59 -287 -115c-110.667 88.667 -214.334 166.334 -311.001 233.001z" />
    <glyph glyph-name="R" unicode="R" horiz-adv-x="1269" 
d="M155 -12l0.000976562 1409h479c61.333 0 116.666 -2.83301 165.999 -8.5s89.666 -16.5 120.999 -32.5c61.333 -31.333 106.666 -70.666 135.999 -117.999s44 -106.333 44 -177c0 -98.667 -28.667 -179.334 -86 -242.001s-135 -105 -233 -127c38 -68 81 -140.333 129 -217
c13.333 -22 90.333 -140.667 231 -356l82 -131c-30 0 -52.667 0.666992 -68 2c-76 6.66699 -116 10 -120 10c-20.667 0 -51.5 -2 -92.5 -6s-71.833 -6 -92.5 -6l-241 434l-136 225h-12v-659c-17.333 0 -43.166 2 -77.499 6s-60.166 6 -77.499 6c-16.667 0 -42 -2 -76 -6
s-59.333 -6 -76 -6zM462.001 1286l0.000976562 -549l49 -4c180.667 0 271 98.333 271 295c0 15.333 -0.333008 30.833 -1 46.5s-3.33398 34.167 -8.00098 55.5c-10.667 63.333 -42.667 107.333 -96 132c-36.667 16 -89 24 -157 24h-58z" />
    <glyph glyph-name="S" unicode="S" 
d="M827 1130l-27.999 0.000976562c-22 58 -52.5 102.667 -91.5 134s-87.833 47 -146.5 47c-75.333 0 -131.666 -18.5 -168.999 -55.5s-56 -85.5 -56 -145.5c0 -74 53.333 -140.333 160 -199c190.667 -104.667 291 -161.334 301 -170.001
c107.333 -84.667 161 -193.667 161 -327c0 -131.333 -50.5 -239.333 -151.5 -324s-230.5 -127 -388.5 -127c-61.333 0 -120.333 7.16699 -177 21.5s-108.334 37.166 -155.001 68.499l35.5 134.5c11.667 45.667 20.167 86.834 25.5 123.501h37
c16.667 -69.333 50.5 -124.166 101.5 -164.499s111.5 -60.5 181.5 -60.5c68 0 124 17.667 168 53c49.333 40 74 93.333 74 160c0 87.333 -52.667 159.666 -158 216.999l-293 156c-106.667 80.667 -160 191.334 -160 332.001c0 122.667 39.667 223.667 119 303
c84.667 84.667 202 127 352 127c70 0 134.667 -10.333 194 -31s102.666 -43.334 129.999 -68.001c-12.667 -32.667 -25 -69.167 -37 -109.5z" />
    <glyph glyph-name="T" unicode="T" horiz-adv-x="1159" 
d="M728 1249v-1261c-16 0 -41.167 2 -75.5 6s-59.5 6 -75.5 6c-18 0 -44 -2 -78 -6s-60 -6 -78 -6v1261c-68 0 -134.167 -2.33301 -198.5 -7s-125.166 -11.667 -182.499 -21l8 54c2.66699 18.667 4 30.667 4 36c0 12 -1.33301 25.5 -4 40.5l-8 45.5h1057
c-4 -28.667 -8.33301 -57.334 -13 -86.001c0 -14 1.5 -29.167 4.5 -45.5l8.5 -44.5c-70 9.33301 -134.333 16.333 -193 21s-117.334 7 -176.001 7z" />
    <glyph glyph-name="U" unicode="U" horiz-adv-x="1396" 
d="M159 561l0.00195312 836c45.333 -4 90.333 -8.33301 135 -13c45.333 4.66699 90.333 9 135 13v-582c0 -65.333 0.333008 -131.833 1 -199.5s4.66699 -130.834 12 -189.501c13.333 -66.667 23.333 -109 30 -127c14 -38 36.667 -73.333 68 -106
c56 -60.667 124.333 -91 205 -91c84.667 0 151.5 19.167 200.5 57.5s89.833 102.5 122.5 192.5c11.333 30 19.666 78.5 24.999 145.5s8 159.167 8 276.5v623c16.667 -2.66699 28.667 -4.66699 36 -6s18.666 -2 33.999 -2c12 0 25.167 1 39.5 3s25.5 3.66699 33.5 5v-729
c0 -153.333 -8 -263.333 -24 -330c-26 -109.333 -82 -197.333 -168 -264c-46.667 -40 -99 -68.5 -157 -85.5s-120.333 -25.5 -187 -25.5c-126 0 -232 24 -318 72c-104.667 58.667 -172 149.334 -202 272.001c-10 41.333 -17.333 82 -22 122s-7 84 -7 132z" />
    <glyph glyph-name="V" unicode="V" horiz-adv-x="1376" 
d="M761 -12l-86 12c-14 0 -29.167 -1.33301 -45.5 -4s-31.166 -5.33398 -44.499 -8.00098l-174.5 467.5l-184.5 474.5l-190 467c30 0 58 -1.33301 84 -4s58 -5.66699 96 -9c20.667 0 51.5 2.16699 92.5 6.5s70.167 6.5 87.5 6.5c42.667 -139.333 101 -308.666 175 -507.999
l190 -508l202.5 512c65.667 173.333 125.167 341.333 178.5 504l94 -8c16.667 0 34.167 1 52.5 3s32.166 3.66699 41.499 5l-196 -465l-193 -467c-64 -160 -124 -319 -180 -477z" />
    <glyph glyph-name="W" unicode="W" horiz-adv-x="2052" 
d="M48 1335l-16.0049 62c19.333 0 47.333 -2.16699 84 -6.5s64.667 -6.5 84 -6.5c28.667 0 58.667 1.5 90 4.5s57.333 5.83301 78 8.5c43.333 -184.667 87.333 -359.167 132 -523.5l138 -500.5l121 338l123 346c50.667 146 88.334 259.333 113.001 340
c16 -2.66699 31.5 -4.66699 46.5 -6s33.5 -2 55.5 -2c16.667 0 34.834 1 54.501 3s35.5 3.66699 47.5 5c30 -114.667 68.333 -243 115 -385c132.667 -402.667 202.334 -615.667 209.001 -639l160 506c57.333 190.667 105 363.334 143 518.001
c16.667 -2.66699 32.5 -4.66699 47.5 -6s31.833 -2 50.5 -2l95 8c-94.667 -254 -178.667 -489 -252 -705c-83.333 -242.667 -159.333 -477.334 -228 -704.001c-17.333 2.66699 -37.666 5.33398 -60.999 8.00098s-37 4 -41 4c-14 0 -30.5 -1.33301 -49.5 -4
s-36.5 -5.33398 -52.5 -8.00098c-28.667 104.667 -62.334 218 -101.001 340l-108 334c-10 25.333 -49.667 135 -119 329l-117 -325l-119 -330l-121 -348c-17.333 2.66699 -37.666 5.33398 -60.999 8.00098s-37 4 -41 4c-13.333 0 -29.666 -1.33301 -48.999 -4
s-37 -5.33398 -53 -8.00098c-31.333 124 -73 274.667 -125 452l-134.5 449z" />
    <glyph glyph-name="X" unicode="X" horiz-adv-x="1269" 
d="M1204 1397l-201.002 -279l-237 -340l28 -45l202.5 -364.5c67.667 -121.667 134.167 -248.5 199.5 -380.5c-20.667 0 -50.834 2 -90.501 6s-69.5 6 -89.5 6c-27.333 -0 -48.666 -0.666992 -63.999 -2c-72 -6.66699 -109.333 -10 -112 -10l-134 264l-137 260l-188 -295
c-23.333 -36.667 -47 -76.167 -71 -118.5s-42.667 -77.833 -56 -106.5c-16.667 2.66699 -32.5 4.66699 -47.5 6s-33.5 2 -55.5 2c-16 0 -34 -1 -54 -3s-36 -3.66699 -48 -5c172 242.667 319.333 459.667 442 651l-417 754c20 0 49.833 -2.16699 89.5 -6.5
s69.834 -6.5 90.501 -6.5s51.334 2.16699 92.001 6.5s71.334 6.5 92.001 6.5c35.333 -76.667 87.333 -180 156 -310l98 -186l307 496c27.333 -4 46.166 -6.33301 56.499 -7s25.833 -1 46.5 -1c16 0 34 1 54 3s36 3.66699 48 5z" />
    <glyph glyph-name="Y" unicode="Y" horiz-adv-x="1376" 
d="M827 623l-0.000976562 -634.999c-18 0 -44 2 -78 6s-60 6 -78 6c-16.667 0 -42 -2 -76 -6s-59.333 -6 -76 -6v594c-30 47.333 -83.667 136.666 -161 267.999l-162 272l-160 275c32.667 0 63 -1.33301 91 -4s62 -5.66699 102 -9c21.333 0 53.833 2.16699 97.5 6.5
s76.5 6.5 98.5 6.5c56 -105.333 117.333 -227 184 -365l80 -155c24.667 -46.667 43.334 -77 56.001 -91c40.667 48 108.667 169 204 363l119 248c18 -2.66699 34.833 -4.66699 50.5 -6s34.5 -2 56.5 -2c17.333 0 36.333 1 57 3s37 3.66699 49 5l-155 -258l-156 -258
c-57.333 -98.667 -105 -184.667 -143 -258z" />
    <glyph glyph-name="Z" unicode="Z" horiz-adv-x="1269" 
d="M1200 0l-1151 -0.000976562v37c255.333 396 497 790.667 725 1184v28c-82 0 -224.667 -5.33301 -428 -16c-101.333 -5.33301 -171.666 -8 -210.999 -8c1.33301 13.333 3 26.833 5 40.5s3 28.834 3 45.501c0 23.333 -0.666992 41 -2 53c-4 14.667 -6 25.667 -6 33h1069
v-37l-246 -391l-237 -400l-230 -401v-21c96 0 189.667 2.33301 281 7c273.333 12 416 18 428 18c-2.66699 -14.667 -4.66699 -28.5 -6 -41.5s-2 -27.833 -2 -44.5c0 -23.333 0.666992 -41 2 -53c4 -15.333 6 -26.333 6 -33z" />
    <glyph glyph-name="bracketleft" unicode="[" horiz-adv-x="700" 
d="M172 -266v1814h430v-114l-225 12v-1610l225 8v-110h-430z" />
    <glyph glyph-name="backslash" unicode="\" horiz-adv-x="1073" 
d="M254 1548l762 -1548c-19.333 1.33301 -35.5 2.33301 -48.5 3s-24.167 1 -33.5 1h-25h-46.5c-15 0 -32.167 -1.33301 -51.5 -4l-762 1548c18 -2.66699 34.833 -4.66699 50.5 -6s32.834 -2 51.501 -2c16.667 0 35.167 1 55.5 3s36.166 3.66699 47.499 5z" />
    <glyph glyph-name="bracketright" unicode="]" horiz-adv-x="700" 
d="M511 1548v-1814h-430v110l225 -8v1610l-225 -12v114h430z" />
    <glyph glyph-name="asciicircum" unicode="^" horiz-adv-x="1245" 
d="M303 569h-197l422 828h184l422 -828h-192l-320 602z" />
    <glyph glyph-name="underscore" unicode="_" 
d="M1024 -328h-1024v78h1024v-78z" />
    <glyph glyph-name="grave" unicode="`" horiz-adv-x="700" 
d="M241 1421l267.001 -303h-115l-271 164l-69 49c-24.667 22 -37 46.667 -37 74c0 26 8.5 47.5 25.5 64.5s38.5 25.5 64.5 25.5c30 0 54.667 -5.83301 74 -17.5s39.666 -30.5 60.999 -56.5z" />
    <glyph glyph-name="a" unicode="a" 
d="M606 328l-0.000976562 200.002c-40.667 -14.667 -73.334 -26 -98.001 -34c-45.333 -16.667 -80.666 -34.834 -105.999 -54.501s-42.666 -42.834 -51.999 -69.501s-14 -60 -14 -100c0 -46 8.5 -84.833 25.5 -116.5s46.5 -47.5 88.5 -47.5c56 0 97 24 123 72
c22 40 33 90 33 150zM888.999 729.002l0.00390625 -557c0 -68 28.667 -102 86 -102l16 4v-45c-28.667 -14 -60.334 -27.167 -95.001 -39.5s-64.334 -18.5 -89.001 -18.5c-46.667 0 -87.667 13.667 -123 41s-61.333 64.333 -78 111c-26 -46.667 -62.833 -83.667 -110.5 -111
s-98.167 -41 -151.5 -41c-88.667 0 -160 23.333 -214 70s-81 113.667 -81 201c0 94 30 163.667 90 209c49.333 36.667 145 72 287 106c31.333 8 56 15 74 21c30 9.33301 54.333 20 73 32c11.333 10 19.666 21.833 24.999 35.5s8 27.834 8 42.501
c0 49.333 -20.5 91.666 -61.5 126.999s-86.167 53 -135.5 53c-58.667 0 -115.334 -16.333 -170.001 -49c-44.667 -27.333 -71 -53.333 -79 -78h-13l-28 123c46 42.667 104.5 76.667 175.5 102s139.5 38 205.5 38c102 0 188 -20 258 -60c87.333 -49.333 131 -121 131 -215z
" />
    <glyph glyph-name="b" unicode="b" horiz-adv-x="1159" 
d="M110 0v1548c16.667 0 40.667 -2 72 -6s55 -6 71 -6c19.333 0 41.666 1.33301 66.999 4l73 8v-708c27.333 52 64.833 92.333 112.5 121s101.5 43 161.5 43c127.333 0 228.333 -50 303 -150c68.667 -91.333 103 -202.666 103 -333.999c0 -76 -8.33301 -144.333 -25 -205
c-20.667 -74.667 -52 -136 -94 -184c-90 -106.667 -204.667 -160 -344 -160c-58.667 0 -112.667 12 -162 36s-89.666 60 -120.999 108c-30 -16.667 -67 -40 -111 -70c-38 -26 -59.667 -41 -65 -45h-41zM393 478.999c0 -146 14.668 -251.333 44.001 -316
s74.666 -97 135.999 -97c62.667 0 111 37.833 145 113.5s51 178.167 51 307.5c0 104 -8 183.333 -24 238c-28.667 95.333 -82 143 -160 143c-79.333 0 -134 -48.333 -164 -145c-18.667 -60 -28 -141.333 -28 -244z" />
    <glyph glyph-name="c" unicode="c" 
d="M983 909l-77.998 -212.999h-49c-6.66699 61.333 -27.334 111.333 -62.001 150c-38 42 -87 63 -147 63c-86 0 -151.667 -47.667 -197 -143c-35.333 -75.333 -53 -161.333 -53 -258c0 -130 23.333 -227.667 70 -293c52 -72.667 132.333 -109 241 -109
c38.667 0 77.834 8.66699 117.501 26s71.5 40.333 95.5 69l33 -29l-49 -123c-26 -24.667 -66.667 -43.834 -122 -57.501s-106 -20.5 -152 -20.5c-164 0 -293 42.333 -387 127c-100 88.667 -150 213 -150 373c0 161.333 49.167 290.5 147.5 387.5
s228.166 145.5 389.499 145.5c62.667 0 125.667 -8 189 -24s117.666 -39.667 162.999 -71z" />
    <glyph glyph-name="d" unicode="d" horiz-adv-x="1159" 
d="M1019 1548v-1560l-135 12c-18.667 0 -40.334 -1.33301 -65.001 -4s-48 -5.33398 -70 -8.00098v184c-23.333 -61.333 -59.5 -110.166 -108.5 -146.499s-107.167 -54.5 -174.5 -54.5c-140.667 0 -245 52.667 -313 158c-58.667 90 -88 209.333 -88 358
c0 142 31.333 260.333 94 355c72.667 108 172.334 162 299.001 162c66 0 121.833 -11.667 167.5 -35s82.834 -61 111.501 -113v692c16 0 39.833 -2 71.5 -6s55.5 -6 71.5 -6c19.333 0 41.666 1.33301 66.999 4s49.333 5.33398 72 8.00098zM565 867.999
c-76.667 0 -131.334 -48.334 -164.001 -145.001c-22 -64 -33 -145.333 -33 -244c0 -94 9 -170.333 27 -229c28.667 -96 79.667 -144 153 -144c76.667 0 131.334 50 164.001 150c22 66.667 33 149.334 33 248.001c0 91.333 -9.66699 166.333 -29 225
c-30 92.667 -80.333 139 -151 139z" />
    <glyph glyph-name="e" unicode="e" 
d="M376 586l303 -0.000976562c0 83.333 -6.66699 150 -20 200c-22 82 -60.333 123 -115 123c-66.667 0 -113.667 -40.333 -141 -121c-18 -51.333 -27 -118.666 -27 -201.999zM962 486.999h-586.001l-4 -32c0 -106.667 22 -189.334 66 -248.001
c48.667 -67.333 122.334 -101 221.001 -101c42 0 83.833 8 125.5 24s80.167 38.333 115.5 67l25 -17l-45 -114c-90 -63.333 -188.333 -95 -295 -95c-168 0 -295.333 47.5 -382 142.5s-130 227.833 -130 398.5c0 146 41.667 264.5 125 355.5s197.333 136.5 342 136.5
c143.333 0 251.333 -43.333 324 -130c65.333 -77.333 98 -185.666 98 -324.999v-62z" />
    <glyph glyph-name="f" unicode="f" horiz-adv-x="655" 
d="M172 852h-151.999v131h152c9.33301 65.333 20.666 122 33.999 170c19.333 66.667 43.333 123.334 72 170.001c39.333 75.333 84.333 131 135 167s112.334 54 185.001 54l102 -8c0 -18 -2 -46.667 -6 -86s-6 -68 -6 -86l4 -86l-25 -12
c-28.667 14.667 -59.334 27.834 -92.001 39.501s-62 17.5 -88 17.5c-30 0 -53.167 -1.33301 -69.5 -4s-31.5 -9.66699 -45.5 -21l-12 -12c-8 -9.33301 -12 -20.333 -12 -33c0 -22.667 11.333 -66.334 34 -131.001l56 -139h209c-2.66699 -12 -4.83398 -23.167 -6.50098 -33.5
s-2.5 -20.833 -2.5 -31.5c0 -11.333 3 -33.333 9 -66h-193v-864c-16 0 -39.833 2 -71.5 6s-55.5 6 -71.5 6c-19.333 0 -41.666 -1.33301 -66.999 -4s-49.333 -5.33398 -72 -8.00098v864z" />
    <glyph glyph-name="g" unicode="g" 
d="M254 -152c-4.66699 -9.33301 -8.00195 -20.833 -10.002 -34.5s-3 -27.834 -3 -42.501c0 -74 27 -130.833 81 -170.5s118.667 -59.5 194 -59.5c73.333 0 134 23.333 182 70s72 100 72 160c0 84.667 -31.667 141.334 -95 170.001c-39.333 17.333 -108.666 26 -207.999 26
c-78 0 -130.667 -9.83301 -158 -29.5s-45.666 -49.5 -54.999 -89.5zM986.998 995l-4 -94l-185 8c74 -61.333 111 -137.666 111 -228.999c0 -112 -41.667 -197.333 -125 -256c-75.333 -53.333 -178.333 -80 -309 -80h-29c-30 0 -50.333 -5.33301 -61 -16
c-16.667 -16.667 -25 -34.667 -25 -54c0 -38 14.667 -65.167 44 -81.5s70.666 -24.5 123.999 -24.5l176 -8c106.667 0 184.667 -24.667 234 -74c43.333 -44 65 -108 65 -192c0 -140.667 -56 -250.667 -168 -330c-98 -70 -222 -105 -372 -105c-104 0 -192.333 18.667 -265 56
c-94 47.333 -141 119 -141 215c0 53.333 15 100 45 140s71 69.667 123 89l29 21l-13 16c-68 26 -102 76.333 -102 151c0 45.333 17 88.833 51 130.5s70.333 66.5 109 74.5l32 8c-174.667 41.333 -262 150.666 -262 327.999c0 110.667 40.333 191 121 241
s193.334 75 338.001 75c23.333 0 63 -1.5 119 -4.5s86 -4.5 90 -4.5h250zM355.998 655c0 -78.667 13.001 -138.665 39.001 -179.998c22 -35.333 52.667 -53 92 -53c65.333 0 107 47.667 125 143c6.66699 37.333 10 79.666 10 126.999c0 61.333 -6.66699 110.666 -20 147.999
c-20.667 57.333 -56.334 86 -107.001 86c-57.333 0 -97 -33 -119 -99c-13.333 -40.667 -20 -98 -20 -172z" />
    <glyph glyph-name="h" unicode="h" horiz-adv-x="1159" 
d="M397 1548l-0.000976562 -704.002c38 42 83 78 135 108c60 34.667 116 52 168 52c95.333 0 174.333 -31.667 237 -95c36 -32.667 59.333 -69.167 70 -109.5s16 -91.166 16 -152.499v-659l-51 4c-48 5.33301 -77.333 8 -88 8c-16.667 0 -40.667 -2 -72 -6s-55 -6 -71 -6
v512c0 110.667 -9.66699 189.667 -29 237c-26 62.667 -72.333 94 -139 94c-72.667 0 -123.334 -37.333 -152.001 -112c-18.667 -50.667 -28 -121 -28 -211l4 -45v-475c-16.667 0 -40.667 2 -72 6s-55.333 6 -72 6c-18.667 0 -40.667 -1.33301 -66 -4l-73 -8v1560
c16.667 -1.33301 41.334 -3.66602 74.001 -6.99902s54.334 -5 65.001 -5c16.667 0 40.667 2 72 6s55.333 6 72 6z" />
    <glyph glyph-name="i" unicode="i" horiz-adv-x="589" 
d="M142 -12v995.001c16.667 0 43.834 -1.33301 81.501 -4s58.5 -4 62.5 -4c23.333 0 48.666 1 75.999 3s48.333 3.66699 63 5v-995c-18 1.33301 -35 2.66602 -51 3.99902c-48 5.33301 -77.333 8 -88 8c-16.667 0 -40.667 -2 -72 -6s-55.333 -6 -72 -6zM122 1360
c0 43.333 15.667 80.833 47 112.5s69 47.5 113 47.5c43.333 0 81.5 -15.833 114.5 -47.5s49.5 -69.167 49.5 -112.5c0 -45.333 -16.167 -84 -48.5 -116s-70.833 -48 -115.5 -48c-44 0 -81.667 16.333 -113 49s-47 71 -47 115z" />
    <glyph glyph-name="j" unicode="j" horiz-adv-x="589" 
d="M430 983l0.000976562 -999.002c0 -67.333 -11.5 -124.166 -34.5 -170.499s-63.167 -92.166 -120.5 -137.499c-38.667 -31.333 -80.834 -55.5 -126.501 -72.5s-92.167 -25.5 -139.5 -25.5l-25 70c68 20 113.667 56.667 137 110c18 41.333 27 107 27 197v1028
c39.333 -4 65.5 -6.33301 78.5 -7s33.167 -1 60.5 -1c16.667 0 44 1.33301 82 4s58.333 4 61 4zM283.001 1196c-44 0 -80.9971 15.667 -110.997 47s-45 69 -45 113c0 44.667 14.667 83.167 44 115.5s66.666 48.5 111.999 48.5c49.333 0 89.666 -15 120.999 -45
s47 -69.667 47 -119c0 -46.667 -16.333 -85 -49 -115s-72.334 -45 -119.001 -45z" />
    <glyph glyph-name="k" unicode="k" 
d="M122 -12l-0.00390625 1560c16.667 -1.33301 41.334 -3.66602 74.001 -6.99902s54.334 -5 65.001 -5c16.667 0 40.667 2 72 6s55.333 6 72 6v-1003l4 -4l12 4c58.667 58.667 124.334 129 197.001 211l196 227c14 -2.66699 27.833 -4.66699 41.5 -6s29.834 -2 48.501 -2
c14 0 29.5 1 46.5 3s30.167 3.66699 39.5 5v-12c-34 -44 -76.333 -91.333 -127 -142l-217 -219l164 -262c71.333 -112 138.333 -225.333 201 -340v-20c-16.667 0 -42 2 -76 6s-60.667 6 -80 6c-16 0 -41.167 -2 -75.5 -6s-60.833 -6 -79.5 -6
c-34.667 66.667 -73.167 136.834 -115.5 210.501s-83.166 141.167 -122.499 202.5l-25 35c-10.667 15.333 -21.334 25.666 -32.001 30.999v-479c-16.667 0 -40.667 2 -72 6s-55.333 6 -72 6c-18.667 0 -40.667 -1.33301 -66 -4z" />
    <glyph glyph-name="l" unicode="l" horiz-adv-x="589" 
d="M426 1548v-1560l-52 4c-47.333 5.33301 -76.666 8 -87.999 8c-16 0 -39.667 -2 -71 -6s-55.333 -6 -72 -6v1560c16.667 0 40.667 -2 72 -6s55 -6 71 -6c19.333 0 41.666 1.33301 66.999 4z" />
    <glyph glyph-name="m" unicode="m" horiz-adv-x="1724" 
d="M110 -12v995.002c39.333 -4 65.5 -6.33301 78.5 -7s33.167 -1 60.5 -1c16.667 0 44.167 1.33301 82.5 4s58.833 4 61.5 4v-152c30 50.667 72.333 92.167 127 124.5s112 48.5 172 48.5c66.667 0 123.167 -15.833 169.5 -47.5s81.166 -78.834 104.499 -141.501
c35.333 57.333 80 103.166 134 137.499s113 51.5 177 51.5c113.333 0 196 -32.333 248 -97c48 -60 72 -148 72 -264v-655c-16.667 0 -40.667 2 -72 6s-55.333 6 -72 6c-18.667 0 -40.667 -1.33301 -66 -4l-73 -8v557c0 114.667 -12.667 191 -38 229s-63 57 -113 57
c-66 0 -112 -20.333 -138 -61c-20 -32.667 -30 -86 -30 -160v-622c-16.667 0 -40.667 2 -72 6s-55.333 6 -72 6c-18.667 0 -40.667 -1.33301 -66 -4l-73 -8v557c0 114.667 -12.667 191 -38 229s-63 57 -113 57c-63.333 0 -108.666 -25.667 -135.999 -77
c-21.333 -41.333 -32 -96 -32 -164v-602c-16.667 0 -40.667 2 -72 6s-55.333 6 -72 6c-18.667 0 -40.667 -1.33301 -66 -4z" />
    <glyph glyph-name="n" unicode="n" horiz-adv-x="1159" 
d="M114 -12v995c22 -2.66699 43.167 -4.66699 63.5 -6s44.166 -2 71.499 -2c22 0 46.333 1 73 3s47.334 3.66699 62.001 5v-152c45.333 53.333 92 94.333 140 123c56 33.333 114.667 50 176 50c120 0 206 -38.333 258 -115c43.333 -65.333 65 -165 65 -299v-602l-51 4
c-48 5.33301 -77.333 8 -88 8c-16.667 0 -40.667 -2 -72 -6s-55 -6 -71 -6v512c0 110.667 -9.66699 189.667 -29 237c-26 62.667 -72.333 94 -139 94c-76.667 0 -128 -45 -154 -135c-14.667 -52 -22 -129.667 -22 -233v-475c-16.667 0 -40.667 2 -72 6s-55.333 6 -72 6
c-18.667 0 -40.667 -1.33301 -66 -4z" />
    <glyph glyph-name="o" unicode="o" 
d="M520 -29c-140.667 0 -252.333 44.833 -335 134.5s-124 210.167 -124 361.5c0 162.667 41 292.834 123 390.501s195.333 146.5 340 146.5c142 0 254.667 -43.833 338 -131.5s125 -207.834 125 -360.501c0 -160 -41.333 -290.167 -124 -390.5s-197 -150.5 -343 -150.5z
M532.001 909c-70.667 0 -122.001 -42.332 -154.001 -126.999c-25.333 -69.333 -38 -173 -38 -311c0 -102.667 9.33301 -186.667 28 -252c30 -102 80.667 -153 152 -153c66.667 0 116.334 51 149.001 153c26 83.333 39 192 39 326c0 109.333 -13 194.666 -39 255.999
c-30 72 -75.667 108 -137 108z" />
    <glyph glyph-name="p" unicode="p" horiz-adv-x="1159" 
d="M577 106c64 6 112.001 42.001 144.001 108.001s48 155.667 48 269c0 123.333 -13 216.333 -39 279c-30 70.667 -77 106 -141 106c-76.667 0 -131.334 -49.667 -164.001 -149c-21.333 -67.333 -32 -150 -32 -248c0 -96.667 8.66699 -172.334 26 -227.001
c30 -92 82.667 -138 158 -138zM114.001 -531.999l-0.00195312 1515c22 -2.66699 43.167 -4.66699 63.5 -6s45.5 -2 75.5 -2c22 0 46.333 1 73 3s47.334 3.66699 62.001 5v-180c23.333 62.667 59.333 111.834 108 147.501s105.667 53.5 171 53.5
c138 0 242.333 -50.667 313 -152c61.333 -87.333 92 -203.333 92 -348c0 -173.333 -41.333 -308 -124 -404c-75.333 -86 -170.333 -129 -285 -129c-64 0 -119.333 14.333 -166 43c-38 23.333 -71.333 58.333 -100 105v-651l-52 4c-47.333 5.33301 -76.666 8 -87.999 8
c-16 0 -39.667 -2 -71 -6s-55.333 -6 -72 -6z" />
    <glyph glyph-name="q" unicode="q" horiz-adv-x="1159" 
d="M757 803v180c22 -2.66699 43.167 -4.66699 63.5 -6s45.5 -2 75.5 -2c22 0 46.333 1 73 3s47.334 3.66699 62.001 5v-1515c-16 0 -39.667 2 -71 6s-55.333 6 -72 6c-19.333 0 -41.5 -1.33301 -66.5 -4l-72.5 -8v651c-26 -42.667 -58.667 -76.334 -98 -101.001
c-50.667 -31.333 -106.667 -47 -168 -47c-126 0 -225.833 45.833 -299.5 137.5s-110.5 213.834 -110.5 366.501c0 164 30.667 291 92 381c67.333 98.667 166.333 148 297 148c143.333 0 241.666 -67 294.999 -201zM376 500c0 -24.667 0.332031 -44.167 0.999023 -58.5
s3 -42.833 7 -85.5c0 -57.333 15.667 -111 47 -161c37.333 -59.333 83.333 -89 138 -89c73.333 0 125 44.667 155 134c19.333 56 29 131.667 29 227c0 102.667 -10.333 186 -31 250c-31.333 100.667 -86.666 151 -165.999 151c-73.333 0 -124.333 -46.333 -153 -139
c-18 -56 -27 -132.333 -27 -229z" />
    <glyph glyph-name="r" unicode="r" horiz-adv-x="811" 
d="M139 -12v995c39.333 -4 65.5 -6.33301 78.5 -7s33.167 -1 60.5 -1c16.667 0 44.167 1.33301 82.5 4s58.833 4 61.5 4v-254c22.667 86 57.334 151 104.001 195c56 53.333 131.667 80 227 80c0 -22 -2 -56.333 -6 -103s-6 -80.667 -6 -102l4 -74l-20 -16
c-12.667 8 -28.5 14 -47.5 18s-37.5 6 -55.5 6c-100.667 0 -163.334 -45 -188.001 -135c-10.667 -38 -16 -81.667 -16 -131l4 -107v-372c-16.667 0 -40.667 2 -72 6s-55.333 6 -72 6c-18.667 0 -40.667 -1.33301 -66 -4z" />
    <glyph glyph-name="s" unicode="s" horiz-adv-x="811" 
d="M94 250h53.001c19.333 -53.333 49 -95.333 89 -126s88 -46 144 -46c37.333 0 72.666 12 105.999 36s50 53 50 87c0 50 -40.333 93 -121 129c-138 61.333 -213.667 96.666 -227 105.999c-82 57.333 -123 137.333 -123 240c0 100.667 33.833 180.5 101.5 239.5
s151.167 88.5 250.5 88.5c52 0 104.333 -8.66699 157 -26s98.667 -41.666 138 -72.999l-49 -180h-57c-8.66699 45.333 -32 85.333 -70 120s-79 52 -123 52c-40.667 0 -76 -9.83301 -106 -29.5s-45 -49.5 -45 -89.5c0 -48.667 79.833 -105.167 239.5 -169.5
s239.5 -167.5 239.5 -309.5c0 -95.333 -35.5 -173.833 -106.5 -235.5s-166.5 -92.5 -286.5 -92.5c-112 0 -206.333 28.667 -283 86z" />
    <glyph glyph-name="t" unicode="t" horiz-adv-x="700" 
d="M454 852l-0.000976562 -582c0 -68 5.83301 -116.333 17.5 -145s39.834 -43 84.501 -43c12.667 0 24 1 34 3s28.667 6.33301 56 13v-78c-77.333 -32.667 -148.333 -49 -213 -49c-99.333 0 -169.666 31.667 -210.999 95c-34 51.333 -51 130.333 -51 237v549h-139
c2.66699 16.667 4 38.667 4 66v24v21c-2.66699 9.33301 -4 16 -4 20h139v234c87.333 34 181.666 76 282.999 126v-360h176c-5.33301 -27.333 -8 -49 -8 -65c0 -11.333 2.66699 -33.333 8 -66h-176z" />
    <glyph glyph-name="u" unicode="u" horiz-adv-x="1048" 
d="M934 983l0.00195312 -994.999l-131 12c-18 0 -39 -1.33301 -63 -4l-69 -8v151c-44.667 -48.667 -77.334 -81.334 -98.001 -98.001c-57.333 -46.667 -124.333 -70 -201 -70c-52.667 0 -102.334 10.667 -149.001 32s-84.334 53 -113.001 95
c-20 31.333 -34.5 68.833 -43.5 112.5s-13.5 89.5 -13.5 137.5l4 70v565l135 -8c16.667 0 43 1.33301 79 4s56.333 4 61 4v-565c0 -61.333 1 -99.833 3 -115.5s7.66699 -33.167 17 -52.5c13.333 -35.333 31 -62 53 -80s50.667 -27 86 -27c75.333 0 125.333 35 150 105
c14.667 42 22 109.667 22 203v532c22 -2.66699 43.333 -4.66699 64 -6s44.334 -2 71.001 -2c22 0 46.333 1 73 3s47.667 3.66699 63 5z" />
    <glyph glyph-name="v" unicode="v" 
d="M347 983l230.002 -709.002c54.667 140.667 98.334 257.667 131.001 351c43.333 122.667 83 242 119 358c14.667 -2.66699 28.5 -4 41.5 -4h40.5h30h25c12 2.66699 20.667 4 26 4c0 -10.667 -5 -27 -15 -49l-64 -146c-22 -51.333 -35 -82 -39 -92
c-106.667 -258 -165.334 -402 -176.001 -432c-30.667 -78 -62.334 -170 -95.001 -276c-17.333 2.66699 -37.666 5.33398 -60.999 8.00098s-37 4 -41 4c-15.333 0 -32.5 -1.33301 -51.5 -4l-55.5 -8l-115 335.5c-58 167.667 -96.667 276.834 -116 327.501
c-31.333 86 -74.333 196.667 -129 332c18 0 48.5 -1.33301 91.5 -4s65.833 -4 68.5 -4c17.333 0 43.166 1.33301 77.499 4s60.166 4 77.499 4z" />
    <glyph glyph-name="w" unicode="w" horiz-adv-x="1617" 
d="M335 983l205.001 -699.998c78 229.333 147.667 462.666 209 699.999c32.667 -2.66699 56.5 -4.66699 71.5 -6s29.167 -2 42.5 -2c20.667 0 42 1 64 3s39 3.66699 51 5l209 -700c38 112 74.167 225.333 108.5 340s67.833 234.667 100.5 360
c14.667 -2.66699 28.5 -4 41.5 -4h40.5h31h24c12.667 2.66699 21.667 4 27 4c-56 -140.667 -115.333 -300.334 -178 -479.001c-68.667 -194 -124 -366 -166 -516l-111 12c-16.667 0 -34.834 -1.33301 -54.501 -4l-56.5 -8l-204 680l-109 -334
c-44.667 -140.667 -79.334 -256 -104.001 -346l-111 12c-16 0 -34 -1.33301 -54 -4s-39 -5.33398 -57 -8.00098c-50 174.667 -100.667 341.834 -152 501.501s-107 324.167 -167 493.5c16.667 0 41.334 -1.33301 74.001 -4s57 -4 73 -4c18 0 47.5 1.33301 88.5 4
s62.167 4 63.5 4z" />
    <glyph glyph-name="x" unicode="x" 
d="M639 -12l-197.001 360l-113 -172l-112 -184l-82 8c-14 0 -28.833 -1 -44.5 -3s-28.167 -3.66699 -37.5 -5l324 454l-152 265l-164 272c18 0 45.333 -1.33301 82 -4s64 -4 82 -4c19.333 0 48 1.33301 86 4s65.333 4 82 4l176 -319l109 155
c40.667 61.333 75.334 116 104.001 164c16.667 -2.66699 32.5 -4 47.5 -4h46.5h33h29c13.333 2.66699 22.666 4 27.999 4c-121.333 -146 -231.666 -286.667 -330.999 -422l110 -192l230 -381c-19.333 0 -47.5 2 -84.5 6s-64.833 6 -83.5 6c-19.333 0 -47.5 -2 -84.5 -6
s-64.833 -6 -83.5 -6z" />
    <glyph glyph-name="y" unicode="y" 
d="M192 -532l261.997 528l-414 987c16.667 0 45.334 -1.33301 86.001 -4s64 -4 70 -4c16 0 44.5 1.33301 85.5 4s64.167 4 69.5 4l88.5 -245c23 -62 75.5 -192 157.5 -390l78 209c27.333 71.333 47 124 59 158l97 268c14.667 -2.66699 28.5 -4 41.5 -4h39.5h33h27
c12 2.66699 20.667 4 26 4l-208 -467l-223.5 -524.5c-63 -153 -130.5 -327.5 -202.5 -523.5c-15.333 2.66699 -29.166 4.66699 -41.499 6s-27.166 2 -44.499 2c-14 0 -29.5 -1 -46.5 -3s-30.167 -3.66699 -39.5 -5z" />
    <glyph glyph-name="z" unicode="z" 
d="M962 983l-0.00195312 -77.998l-180 -254l-182 -262l-179 -270c78 0 156 2 234 6c182.667 9.33301 279.667 14 291 14l-6 -35.5c-1.33301 -7.66699 -2 -18.834 -2 -33.501l8 -70h-885v86l537 778c-96 0 -174.667 -1 -236 -3s-139.666 -7.66699 -234.999 -17l12 69
c0 11.333 -1.66699 24.166 -5 38.499s-5.66602 24.833 -6.99902 31.5h835z" />
    <glyph glyph-name="braceleft" unicode="{" horiz-adv-x="700" 
d="M237 877v385.001c0 51.333 5.83301 96.166 17.5 134.499s35.834 68.5 72.501 90.5c36 24.667 75.5 41 118.5 49s92.5 12 148.5 12h37c-74 -20 -124 -48.5 -150 -85.5s-39 -94.5 -39 -172.5v-381c0 -77.333 -13 -136 -39 -176c-30 -46 -85.333 -78.667 -166 -98
c82 -18 138 -50.667 168 -98c24.667 -40 37 -103 37 -189v-360c0 -72.667 14 -129.167 42 -169.5s77 -68.5 147 -84.5h-54c-125.333 0 -212 20.333 -260 61c-53.333 46.667 -80 132.667 -80 258v340c0 75.333 -10.667 128.666 -32 159.999c-26 36.667 -76.667 64 -152 82
c58.667 13.333 105 39.333 139 78c19.333 23.333 31.666 46.833 36.999 70.5s8 54.834 8 93.501z" />
    <glyph glyph-name="bar" unicode="|" horiz-adv-x="1245" 
d="M532 0v1548h176v-1548h-176z" />
    <glyph glyph-name="braceright" unicode="}" horiz-adv-x="700" 
d="M446 1225l-0.000976562 -340c0 -74 12 -128 36 -162s73.667 -59.333 149 -76c-59.333 -13.333 -106 -39.333 -140 -78c-20 -26 -32.5 -49.833 -37.5 -71.5s-7.5 -52.167 -7.5 -91.5v-386c0 -52.667 -4.66699 -94.667 -14 -126c-14 -44 -39.667 -78.333 -77 -103
s-75.5 -40.334 -114.5 -47.001s-89.167 -10 -150.5 -10h-37c74 17.333 123.833 44.833 149.5 82.5s38.5 94.834 38.5 171.501v385c0 77.333 14 137.5 42 180.5s82.333 74.167 163 93.5c-82 18 -138 50.667 -168 98c-24.667 40 -37 103 -37 189v356c0 74 -12.667 130 -38 168
c-30.667 44 -80.667 74 -150 90h29c134.667 0 227.334 -20.333 278.001 -61c57.333 -46.667 86 -134 86 -262z" />
    <glyph glyph-name="asciitilde" unicode="~" horiz-adv-x="1245" 
d="M1040 717l97.998 -115.001c-54.667 -91.333 -105.667 -153.333 -153 -186c-42.667 -28.667 -90 -43 -142 -43c-46 0 -106 15.667 -180 47c-31.333 13.333 -62.666 27.666 -93.999 42.999l-82 31c-34 12 -62.667 18 -86 18c-45.333 0 -85.666 -19.667 -120.999 -59
c-19.333 -22 -44.666 -62.333 -75.999 -121l-98 114c50.667 94.667 99.834 159.334 147.501 194.001s96.834 52 147.501 52c53.333 0 133.166 -23.833 239.499 -71.5s175.166 -71.5 206.499 -71.5c41.333 0 79.666 18.333 114.999 55
c23.333 24.667 49.333 62.334 78 113.001z" />
    <glyph glyph-name="dieresis" unicode="&#xa8;" horiz-adv-x="1024" 
 />
    <glyph glyph-name="copyright" unicode="&#xa9;" horiz-adv-x="1552" 
d="M766 -37c-196.667 0 -364 71.332 -502 213.999s-207 315.667 -207 519c0 202 69 375.5 207 520.5s305.333 217.5 502 217.5c199.333 0 368.5 -71.667 507.5 -215s208.5 -317.666 208.5 -522.999c0 -202 -69.5 -374.667 -208.5 -518s-308.167 -215 -507.5 -215zM766 1319
c-165.333 0 -304.333 -60.499 -417 -181.499s-169 -268.167 -169 -441.5c0 -170.667 57 -316.334 171 -437.001s252.333 -181 415 -181c166 0 306.5 60 421.5 180s172.5 266 172.5 438c0 173.333 -57 320.5 -171 441.5s-255 181.5 -423 181.5zM1028 442l15.998 -3.99902
l-24 -98c-34.667 -18 -70.667 -31.333 -108 -40s-76.666 -13 -117.999 -13c-125.333 0 -227.666 35.5 -306.999 106.5s-119 165.167 -119 282.5c0 143.333 43.667 253.333 131 330c79.333 69.333 186 104 320 104c36.667 0 75.834 -4.83301 117.501 -14.5
s80.167 -23.834 115.5 -42.501c-5.33301 -15.333 -11 -38 -17 -68s-9.66699 -47 -11 -51h-17c-44.667 70.667 -107.334 106 -188.001 106c-87.333 0 -154.333 -36.667 -201 -110c-40.667 -64 -61 -143.333 -61 -238c0 -102 23.167 -183.5 69.5 -244.5
s113.166 -91.5 200.499 -91.5c34 0 69.833 8.33301 107.5 25s68.834 37 93.501 61z" />
    <glyph glyph-name="registered" unicode="&#xae;" horiz-adv-x="1552" 
d="M770 -37c-198 0 -366.333 71.333 -505 214s-208 317 -208 523c0 204 69 377.333 207 520s306.667 214 506 214c196.667 0 363.834 -71.333 501.501 -214s206.5 -316 206.5 -520c0 -204.667 -68.833 -378.667 -206.5 -522s-304.834 -215 -501.501 -215zM770 1319
c-166.667 0 -306.667 -60.167 -420 -180.5s-170 -266.5 -170 -438.5c0 -173.333 57 -320.333 171 -441s253.667 -181 419 -181s304.166 60.333 416.499 181s168.5 267.667 168.5 441c0 170.667 -56.167 316.5 -168.5 437.5s-251.166 181.5 -416.499 181.5zM512 287v823h303
c70.667 0 125.834 -17 165.501 -51s59.5 -82.667 59.5 -146c0 -56 -16.333 -103 -49 -141s-77.667 -63.333 -135 -76c30 -53.333 63.333 -109.333 100 -168l105 -163l45 -78c-12.667 1.33301 -26.834 3 -42.501 5s-33.167 3 -52.5 3c-14.667 0 -26.834 -0.333008 -36.501 -1
s-27.5 -3 -53.5 -7l-213 385h-37v-385c-13.333 1.33301 -26.166 3 -38.499 5s-26.833 3 -43.5 3c-12 0 -22.5 -0.333008 -31.5 -1s-24.167 -3 -45.5 -7zM671 1032v-319l33 -4c106.667 0 160 58.667 160 176c0 62.667 -13.667 105 -41 127c-18 13.333 -48 20 -90 20h-62z" />
    <glyph glyph-name="acute" unicode="&#xb4;" horiz-adv-x="1024" 
 />
    <glyph glyph-name="paragraph" unicode="&#xb6;" horiz-adv-x="1024" 
d="M929 1435l-0.000976562 -70h-127v-1365h-82v1365h-166v-1365h-84v738c-116 5.33301 -207.833 39.5 -275.5 102.5s-101.5 144.833 -101.5 245.5c0 104.667 35.833 189 107.5 253s166.834 96 285.501 96h443z" />
    <glyph glyph-name="onequarter" unicode="&#xbc;" horiz-adv-x="1780" 
 />
    <glyph glyph-name="onehalf" unicode="&#xbd;" horiz-adv-x="1780" 
 />
    <glyph glyph-name="threequarters" unicode="&#xbe;" horiz-adv-x="1780" 
 />
    <glyph glyph-name="Agrave" unicode="&#xc0;" horiz-adv-x="1376" 
d="M843 418h-479.001c-27.333 -78 -46.333 -133.333 -57 -166c-40 -113.333 -68.667 -200 -86 -260c-12.667 1.33301 -26.834 3 -42.501 5s-33.167 3 -52.5 3c-16 0 -33.667 -1 -53 -3s-34.333 -3.66699 -45 -5l586 1421c12 -2.66699 24.5 -4 37.5 -4h40.5h28h23
c12 2.66699 20.667 4 26 4l570 -1425c-27.333 0 -48.666 0.666992 -63.999 2c-72 6.66699 -109.333 10 -112 10c-27.333 -0 -48.666 -0.666992 -63.999 -2c-72 -6.66699 -109.667 -10 -113 -10c-47.333 166.667 -95 310 -143 430zM420.999 545h373l-180 475zM609.999 1835
l261.999 -307h-115l-266 168c-36.667 22 -60.667 37.667 -72 47c-23.333 22 -35 47.333 -35 76c0 24 8.33301 45 25 63s38.334 27 65.001 27c30.667 0 56 -6.33301 76 -19c14 -8 34 -26.333 60 -55z" />
    <glyph glyph-name="Aacute" unicode="&#xc1;" horiz-adv-x="1376" 
d="M843 418h-479.001c-27.333 -78 -46.333 -133.333 -57 -166c-40 -113.333 -68.667 -200 -86 -260c-12.667 1.33301 -26.834 3 -42.501 5s-33.167 3 -52.5 3c-16 0 -33.667 -1 -53 -3s-34.333 -3.66699 -45 -5l586 1421c12 -2.66699 24.5 -4 37.5 -4h40.5h28h23
c12 2.66699 20.667 4 26 4l570 -1425c-27.333 0 -48.666 0.666992 -63.999 2c-72 6.66699 -109.333 10 -112 10c-27.333 -0 -48.666 -0.666992 -63.999 -2c-72 -6.66699 -109.667 -10 -113 -10c-47.333 166.667 -95 310 -143 430zM420.999 545h373l-180 475zM793.999 1890
c20.667 12.667 46.001 19 76.001 19c27.333 0 49.166 -9 65.499 -27s24.5 -39 24.5 -63c0 -28.667 -11.667 -54 -35 -76c-10.667 -9.33301 -34.667 -25 -72 -47l-266 -168h-115l262 307c26 28.667 46 47 60 55z" />
    <glyph glyph-name="Acircumflex" unicode="&#xc2;" horiz-adv-x="1376" 
d="M843 418h-479.001c-27.333 -78 -46.333 -133.333 -57 -166c-40 -113.333 -68.667 -200 -86 -260c-12.667 1.33301 -26.834 3 -42.501 5s-33.167 3 -52.5 3c-16 0 -33.667 -1 -53 -3s-34.333 -3.66699 -45 -5l586 1421c12 -2.66699 24.5 -4 37.5 -4h40.5h28h23
c12 2.66699 20.667 4 26 4l570 -1425c-27.333 0 -48.666 0.666992 -63.999 2c-72 6.66699 -109.333 10 -112 10c-27.333 -0 -48.666 -0.666992 -63.999 -2c-72 -6.66699 -109.667 -10 -113 -10c-47.333 166.667 -95 310 -143 430zM420.999 545h373l-180 475zM584.999 1868
h193l249 -361h-114l-230 205l-233 -205h-111z" />
    <glyph glyph-name="Atilde" unicode="&#xc3;" horiz-adv-x="1376" 
d="M843 418h-479.001c-27.333 -78 -46.333 -133.333 -57 -166c-40 -113.333 -68.667 -200 -86 -260c-12.667 1.33301 -26.834 3 -42.501 5s-33.167 3 -52.5 3c-16 0 -33.667 -1 -53 -3s-34.333 -3.66699 -45 -5l586 1421c12 -2.66699 24.5 -4 37.5 -4h40.5h28h23
c12 2.66699 20.667 4 26 4l570 -1425c-27.333 0 -48.666 0.666992 -63.999 2c-72 6.66699 -109.333 10 -112 10c-27.333 -0 -48.666 -0.666992 -63.999 -2c-72 -6.66699 -109.667 -10 -113 -10c-47.333 166.667 -95 310 -143 430zM420.999 545h373l-180 475zM938.999 1827
l74.0029 -0.000976562c-14.667 -76.667 -36.334 -135.334 -65.001 -176.001c-38.667 -54.667 -89.334 -82 -152.001 -82c-26 0 -50 4 -72 12l-61 30.5c-35.333 17.667 -61.333 30.167 -78 37.5c-32.667 14.667 -58 22 -76 22c-27.333 0 -47.833 -11.5 -61.5 -34.5
s-20.5 -44.167 -20.5 -63.5h-73c0 70.667 24.333 133.334 73 188.001c40 44 88 66 144 66c31.333 0 66.666 -9 105.999 -27c28.667 -14.667 49.334 -25 62.001 -31c20 -12 39 -21.667 57 -29s34.333 -11 49 -11c23.333 0 43.333 10 60 30
c9.33301 12.667 20.666 35.334 33.999 68.001z" />
    <glyph glyph-name="Egrave" unicode="&#xc8;" horiz-adv-x="1269" 
d="M159 1397l942.001 -0.000976562c-2.66699 -15.333 -5.33398 -33.166 -8.00098 -53.499s-4 -32.5 -4 -36.5l12 -86c-69.333 6.66699 -156.333 13 -261 19s-204.667 9 -300 9h-74v-442h328c64 0 112.333 1 145 3s84 7.66699 154 17l-16 -90
c0 -10.667 1.66699 -24.167 5 -40.5s7 -31.5 11 -45.5c-35.333 2.66699 -84.5 6.16699 -147.5 10.5s-113.5 6.5 -151.5 6.5h-328v-521c118.667 0 235 2.83301 349 8.5s209.333 12.5 286 20.5l-12 -86c0 -12 1.33301 -26.167 4 -42.5l8 -47.5h-942v1397zM612.001 1835
l262.001 -307h-115l-266 168c-36.667 22 -60.667 37.667 -72 47c-23.333 22 -35 47.333 -35 76c0 24 8.16699 45 24.5 63s38.166 27 65.499 27c30 0 55.333 -6.33301 76 -19c14 -8 34 -26.333 60 -55z" />
    <glyph glyph-name="Eacute" unicode="&#xc9;" horiz-adv-x="1269" 
d="M159 1397l942.001 -0.000976562c-2.66699 -15.333 -5.33398 -33.166 -8.00098 -53.499s-4 -32.5 -4 -36.5l12 -86c-69.333 6.66699 -156.333 13 -261 19s-204.667 9 -300 9h-74v-442h328c64 0 112.333 1 145 3s84 7.66699 154 17l-16 -90
c0 -10.667 1.66699 -24.167 5 -40.5s7 -31.5 11 -45.5c-35.333 2.66699 -84.5 6.16699 -147.5 10.5s-113.5 6.5 -151.5 6.5h-328v-521c118.667 0 235 2.83301 349 8.5s209.333 12.5 286 20.5l-12 -86c0 -12 1.33301 -26.167 4 -42.5l8 -47.5h-942v1397zM708.001 1890
c20.667 12.667 46.001 19 76.001 19c27.333 0 49.166 -9 65.499 -27s24.5 -39 24.5 -63c0 -28.667 -11.667 -54 -35 -76c-10.667 -9.33301 -34.667 -25 -72 -47l-266 -168h-115l262 307c26 28.667 46 47 60 55z" />
    <glyph glyph-name="Ecircumflex" unicode="&#xca;" horiz-adv-x="1269" 
d="M159 1397l942.001 -0.000976562c-2.66699 -15.333 -5.33398 -33.166 -8.00098 -53.499s-4 -32.5 -4 -36.5l12 -86c-69.333 6.66699 -156.333 13 -261 19s-204.667 9 -300 9h-74v-442h328c64 0 112.333 1 145 3s84 7.66699 154 17l-16 -90
c0 -10.667 1.66699 -24.167 5 -40.5s7 -31.5 11 -45.5c-35.333 2.66699 -84.5 6.16699 -147.5 10.5s-113.5 6.5 -151.5 6.5h-328v-521c118.667 0 235 2.83301 349 8.5s209.333 12.5 286 20.5l-12 -86c0 -12 1.33301 -26.167 4 -42.5l8 -47.5h-942v1397zM532.001 1868h192
l250 -361h-115l-229 205l-233 -205h-111z" />
    <glyph glyph-name="Igrave" unicode="&#xcc;" horiz-adv-x="700" 
d="M188 -12v1409c16.667 0 42 -2.16699 76 -6.5s59.333 -6.5 76 -6.5c18 0 44 2.16699 78 6.5s60 6.5 78 6.5v-1409c-18 0 -44 2 -78 6s-60 6 -78 6c-16.667 0 -42 -2 -76 -6s-59.333 -6 -76 -6zM253 1835l262.002 -307h-114l-267 168c-36.667 22 -60.334 37.667 -71.001 47
c-23.333 22 -35 47.333 -35 76c0 24 8.16699 45 24.5 63s38.166 27 65.499 27c30 0 55.333 -6.33301 76 -19c13.333 -8 33 -26.333 59 -55z" />
    <glyph glyph-name="Iacute" unicode="&#xcd;" horiz-adv-x="700" 
d="M188 -12v1409c16.667 0 42 -2.16699 76 -6.5s59.333 -6.5 76 -6.5c18 0 44 2.16699 78 6.5s60 6.5 78 6.5v-1409c-18 0 -44 2 -78 6s-60 6 -78 6c-16.667 0 -42 -2 -76 -6s-59.333 -6 -76 -6zM477 1890c20 12.667 45.001 19 75.001 19c27.333 0 49.166 -9 65.499 -27
s24.5 -39 24.5 -63c0 -28.667 -11.333 -54 -34 -76c-11.333 -9.33301 -35.333 -25 -72 -47l-266 -168h-115l262 307c26 28.667 46 47 60 55z" />
    <glyph glyph-name="Ograve" unicode="&#xd2;" horiz-adv-x="1396" 
d="M1347 705c0 -206.667 -59.3359 -380.334 -178.003 -521.001c-125.333 -147.333 -287 -221 -485 -221c-191.333 0 -343.666 64.5 -456.999 193.5s-170 308.833 -170 539.5c0 210.667 58 384.334 174 521.001c122.667 144.667 287.334 217 494.001 217
c216.667 0 380.334 -82 491.001 -246c87.333 -130 131 -291 131 -483zM711.997 1311c-118.667 0 -210.333 -55.999 -275 -167.999s-97 -281.333 -97 -508c0 -150 26.333 -275 79 -375c62 -116 151.667 -174 269 -174c124 0 220.333 66.333 289 199
c61.333 118.667 92 270.667 92 456c0 153.333 -27.333 281.666 -82 384.999c-64 123.333 -155.667 185 -275 185zM611.998 1835l262.002 -307h-115l-266 168c-36.667 22 -60.334 37.667 -71.001 47c-23.333 22 -35 47.333 -35 76c0 24 8.16699 45 24.5 63
s38.166 27 65.499 27c30 0 55.333 -6.33301 76 -19c13.333 -8 33 -26.333 59 -55z" />
    <glyph glyph-name="Oacute" unicode="&#xd3;" horiz-adv-x="1396" 
d="M1347 705c0 -206.667 -59.3359 -380.334 -178.003 -521.001c-125.333 -147.333 -287 -221 -485 -221c-191.333 0 -343.666 64.5 -456.999 193.5s-170 308.833 -170 539.5c0 210.667 58 384.334 174 521.001c122.667 144.667 287.334 217 494.001 217
c216.667 0 380.334 -82 491.001 -246c87.333 -130 131 -291 131 -483zM711.997 1311c-118.667 0 -210.333 -55.999 -275 -167.999s-97 -281.333 -97 -508c0 -150 26.333 -275 79 -375c62 -116 151.667 -174 269 -174c124 0 220.333 66.333 289 199
c61.333 118.667 92 270.667 92 456c0 153.333 -27.333 281.666 -82 384.999c-64 123.333 -155.667 185 -275 185zM895.998 1890c20.667 12.667 46.001 19 76.001 19c27.333 0 49.166 -9 65.499 -27s24.5 -39 24.5 -63c0 -28.667 -11.667 -54 -35 -76
c-10.667 -9.33301 -34.667 -25 -72 -47l-266 -168h-115l263 307c25.333 28.667 45 47 59 55z" />
    <glyph glyph-name="Ocircumflex" unicode="&#xd4;" horiz-adv-x="1396" 
d="M1347 705c0 -206.667 -59.3359 -380.334 -178.003 -521.001c-125.333 -147.333 -287 -221 -485 -221c-191.333 0 -343.666 64.5 -456.999 193.5s-170 308.833 -170 539.5c0 210.667 58 384.334 174 521.001c122.667 144.667 287.334 217 494.001 217
c216.667 0 380.334 -82 491.001 -246c87.333 -130 131 -291 131 -483zM711.997 1311c-118.667 0 -210.333 -55.999 -275 -167.999s-97 -281.333 -97 -508c0 -150 26.333 -275 79 -375c62 -116 151.667 -174 269 -174c124 0 220.333 66.333 289 199
c61.333 118.667 92 270.667 92 456c0 153.333 -27.333 281.666 -82 384.999c-64 123.333 -155.667 185 -275 185zM603.998 1868h192l250 -361h-115l-229 205l-233 -205h-111z" />
    <glyph glyph-name="Otilde" unicode="&#xd5;" horiz-adv-x="1396" 
d="M1347 705c0 -206.667 -59.3359 -380.334 -178.003 -521.001c-125.333 -147.333 -287 -221 -485 -221c-191.333 0 -343.666 64.5 -456.999 193.5s-170 308.833 -170 539.5c0 210.667 58 384.334 174 521.001c122.667 144.667 287.334 217 494.001 217
c216.667 0 380.334 -82 491.001 -246c87.333 -130 131 -291 131 -483zM711.997 1311c-118.667 0 -210.333 -55.999 -275 -167.999s-97 -281.333 -97 -508c0 -150 26.333 -275 79 -375c62 -116 151.667 -174 269 -174c124 0 220.333 66.333 289 199
c61.333 118.667 92 270.667 92 456c0 153.333 -27.333 281.666 -82 384.999c-64 123.333 -155.667 185 -275 185zM957.998 1827l73.999 -0.000976562c-15.333 -76.667 -37.333 -135.334 -66 -176.001c-38 -54.667 -88.333 -82 -151 -82c-26 0 -50 4 -72 12l-61.5 30.5
c-35.667 17.667 -61.5 30.167 -77.5 37.5c-32.667 14.667 -58 22 -76 22c-27.333 0 -47.833 -11.5 -61.5 -34.5s-20.5 -44.167 -20.5 -63.5h-74c0 70.667 24.667 133.334 74 188.001c40 44 87.667 66 143 66c32 0 67.667 -9 107 -27l61 -31
c20.667 -12 39.834 -21.667 57.501 -29s34.167 -11 49.5 -11c23.333 0 43 10 59 30c10 12.667 21.667 35.334 35 68.001z" />
    <glyph glyph-name="Ugrave" unicode="&#xd9;" horiz-adv-x="1396" 
d="M159 561l0.00195312 836c45.333 -4 90.333 -8.33301 135 -13c45.333 4.66699 90.333 9 135 13v-582c0 -65.333 0.333008 -131.833 1 -199.5s4.66699 -130.834 12 -189.501c13.333 -66.667 23.333 -109 30 -127c14 -38 36.667 -73.333 68 -106
c56 -60.667 124.333 -91 205 -91c84.667 0 151.5 19.167 200.5 57.5s89.833 102.5 122.5 192.5c11.333 30 19.666 78.5 24.999 145.5s8 159.167 8 276.5v623c16.667 -2.66699 28.667 -4.66699 36 -6s18.666 -2 33.999 -2c12 0 25.167 1 39.5 3s25.5 3.66699 33.5 5v-729
c0 -153.333 -8 -263.333 -24 -330c-26 -109.333 -82 -197.333 -168 -264c-46.667 -40 -99 -68.5 -157 -85.5s-120.333 -25.5 -187 -25.5c-126 0 -232 24 -318 72c-104.667 58.667 -172 149.334 -202 272.001c-10 41.333 -17.333 82 -22 122s-7 84 -7 132zM612.002 1835
l262.001 -307h-115l-266 168c-36.667 22 -60.667 37.667 -72 47c-23.333 22 -35 47.333 -35 76c0 24 8.16699 45 24.5 63s38.166 27 65.499 27c30 0 55.333 -6.33301 76 -19c14 -8 34 -26.333 60 -55z" />
    <glyph glyph-name="Uacute" unicode="&#xda;" horiz-adv-x="1396" 
d="M159 561l0.00195312 836c45.333 -4 90.333 -8.33301 135 -13c45.333 4.66699 90.333 9 135 13v-582c0 -65.333 0.333008 -131.833 1 -199.5s4.66699 -130.834 12 -189.501c13.333 -66.667 23.333 -109 30 -127c14 -38 36.667 -73.333 68 -106
c56 -60.667 124.333 -91 205 -91c84.667 0 151.5 19.167 200.5 57.5s89.833 102.5 122.5 192.5c11.333 30 19.666 78.5 24.999 145.5s8 159.167 8 276.5v623c16.667 -2.66699 28.667 -4.66699 36 -6s18.666 -2 33.999 -2c12 0 25.167 1 39.5 3s25.5 3.66699 33.5 5v-729
c0 -153.333 -8 -263.333 -24 -330c-26 -109.333 -82 -197.333 -168 -264c-46.667 -40 -99 -68.5 -157 -85.5s-120.333 -25.5 -187 -25.5c-126 0 -232 24 -318 72c-104.667 58.667 -172 149.334 -202 272.001c-10 41.333 -17.333 82 -22 122s-7 84 -7 132zM961.002 1890
c20.667 12.667 46.001 19 76.001 19c27.333 0 49.166 -9 65.499 -27s24.5 -39 24.5 -63c0 -28.667 -11.667 -54 -35 -76c-10.667 -9.33301 -34.667 -25 -72 -47l-266 -168h-115l262 307c26 28.667 46 47 60 55z" />
    <glyph glyph-name="Yacute" unicode="&#xdd;" horiz-adv-x="1376" 
d="M827 623l-0.000976562 -634.999c-18 0 -44 2 -78 6s-60 6 -78 6c-16.667 0 -42 -2 -76 -6s-59.333 -6 -76 -6v594c-30 47.333 -83.667 136.666 -161 267.999l-162 272l-160 275c32.667 0 63 -1.33301 91 -4s62 -5.66699 102 -9c21.333 0 53.833 2.16699 97.5 6.5
s76.5 6.5 98.5 6.5c56 -105.333 117.333 -227 184 -365l80 -155c24.667 -46.667 43.334 -77 56.001 -91c40.667 48 108.667 169 204 363l119 248c18 -2.66699 34.833 -4.66699 50.5 -6s34.5 -2 56.5 -2c17.333 0 36.333 1 57 3s37 3.66699 49 5l-155 -258l-156 -258
c-57.333 -98.667 -105 -184.667 -143 -258zM970.999 1890c20 12.667 45.332 19 75.999 19c26.667 0 48.334 -9 65.001 -27s25 -39 25 -63c0 -28.667 -11.667 -54 -35 -76c-11.333 -9.33301 -35.333 -25 -72 -47l-266 -168h-115l262 307c26 28.667 46 47 60 55z" />
    <glyph glyph-name="agrave" unicode="&#xe0;" 
d="M606 328l-0.000976562 200.002c-40.667 -14.667 -73.334 -26 -98.001 -34c-45.333 -16.667 -80.666 -34.834 -105.999 -54.501s-42.666 -42.834 -51.999 -69.501s-14 -60 -14 -100c0 -46 8.5 -84.833 25.5 -116.5s46.5 -47.5 88.5 -47.5c56 0 97 24 123 72
c22 40 33 90 33 150zM888.999 729.002l0.00390625 -557c0 -68 28.667 -102 86 -102l16 4v-45c-28.667 -14 -60.334 -27.167 -95.001 -39.5s-64.334 -18.5 -89.001 -18.5c-46.667 0 -87.667 13.667 -123 41s-61.333 64.333 -78 111c-26 -46.667 -62.833 -83.667 -110.5 -111
s-98.167 -41 -151.5 -41c-88.667 0 -160 23.333 -214 70s-81 113.667 -81 201c0 94 30 163.667 90 209c49.333 36.667 145 72 287 106c31.333 8 56 15 74 21c30 9.33301 54.333 20 73 32c11.333 10 19.666 21.833 24.999 35.5s8 27.834 8 42.501
c0 49.333 -20.5 91.666 -61.5 126.999s-86.167 53 -135.5 53c-58.667 0 -115.334 -16.333 -170.001 -49c-44.667 -27.333 -71 -53.333 -79 -78h-13l-28 123c46 42.667 104.5 76.667 175.5 102s139.5 38 205.5 38c102 0 188 -20 258 -60c87.333 -49.333 131 -121 131 -215z
M397.003 1421l266 -303h-114l-271 164l-69 49c-24.667 22 -37 46.667 -37 74c0 26 8.5 47.5 25.5 64.5s38.5 25.5 64.5 25.5c30 0 54.5 -5.83301 73.5 -17.5s39.5 -30.5 61.5 -56.5z" />
    <glyph glyph-name="aacute" unicode="&#xe1;" 
d="M606 328l-0.000976562 200.002c-40.667 -14.667 -73.334 -26 -98.001 -34c-45.333 -16.667 -80.666 -34.834 -105.999 -54.501s-42.666 -42.834 -51.999 -69.501s-14 -60 -14 -100c0 -46 8.5 -84.833 25.5 -116.5s46.5 -47.5 88.5 -47.5c56 0 97 24 123 72
c22 40 33 90 33 150zM888.999 729.002l0.00390625 -557c0 -68 28.667 -102 86 -102l16 4v-45c-28.667 -14 -60.334 -27.167 -95.001 -39.5s-64.334 -18.5 -89.001 -18.5c-46.667 0 -87.667 13.667 -123 41s-61.333 64.333 -78 111c-26 -46.667 -62.833 -83.667 -110.5 -111
s-98.167 -41 -151.5 -41c-88.667 0 -160 23.333 -214 70s-81 113.667 -81 201c0 94 30 163.667 90 209c49.333 36.667 145 72 287 106c31.333 8 56 15 74 21c30 9.33301 54.333 20 73 32c11.333 10 19.666 21.833 24.999 35.5s8 27.834 8 42.501
c0 49.333 -20.5 91.666 -61.5 126.999s-86.167 53 -135.5 53c-58.667 0 -115.334 -16.333 -170.001 -49c-44.667 -27.333 -71 -53.333 -79 -78h-13l-28 123c46 42.667 104.5 76.667 175.5 102s139.5 38 205.5 38c102 0 188 -20 258 -60c87.333 -49.333 131 -121 131 -215z
M626.503 1477.5c19 11.667 43.5 17.5 73.5 17.5c26 0 47.5 -8.5 64.5 -25.5s25.5 -38.5 25.5 -64.5c0 -27.333 -12 -52 -36 -74l-70 -49l-270 -164h-115l266 303c22 26 42.5 44.833 61.5 56.5z" />
    <glyph glyph-name="acircumflex" unicode="&#xe2;" 
d="M606 328l-0.000976562 200.002c-40.667 -14.667 -73.334 -26 -98.001 -34c-45.333 -16.667 -80.666 -34.834 -105.999 -54.501s-42.666 -42.834 -51.999 -69.501s-14 -60 -14 -100c0 -46 8.5 -84.833 25.5 -116.5s46.5 -47.5 88.5 -47.5c56 0 97 24 123 72
c22 40 33 90 33 150zM888.999 729.002l0.00390625 -557c0 -68 28.667 -102 86 -102l16 4v-45c-28.667 -14 -60.334 -27.167 -95.001 -39.5s-64.334 -18.5 -89.001 -18.5c-46.667 0 -87.667 13.667 -123 41s-61.333 64.333 -78 111c-26 -46.667 -62.833 -83.667 -110.5 -111
s-98.167 -41 -151.5 -41c-88.667 0 -160 23.333 -214 70s-81 113.667 -81 201c0 94 30 163.667 90 209c49.333 36.667 145 72 287 106c31.333 8 56 15 74 21c30 9.33301 54.333 20 73 32c11.333 10 19.666 21.833 24.999 35.5s8 27.834 8 42.501
c0 49.333 -20.5 91.666 -61.5 126.999s-86.167 53 -135.5 53c-58.667 0 -115.334 -16.333 -170.001 -49c-44.667 -27.333 -71 -53.333 -79 -78h-13l-28 123c46 42.667 104.5 76.667 175.5 102s139.5 38 205.5 38c102 0 188 -20 258 -60c87.333 -49.333 131 -121 131 -215z
M424.003 1458h188l254 -360h-119l-229 200l-229 -200h-115z" />
    <glyph glyph-name="atilde" unicode="&#xe3;" 
d="M606 328l-0.000976562 200.002c-40.667 -14.667 -73.334 -26 -98.001 -34c-45.333 -16.667 -80.666 -34.834 -105.999 -54.501s-42.666 -42.834 -51.999 -69.501s-14 -60 -14 -100c0 -46 8.5 -84.833 25.5 -116.5s46.5 -47.5 88.5 -47.5c56 0 97 24 123 72
c22 40 33 90 33 150zM888.999 729.002l0.00390625 -557c0 -68 28.667 -102 86 -102l16 4v-45c-28.667 -14 -60.334 -27.167 -95.001 -39.5s-64.334 -18.5 -89.001 -18.5c-46.667 0 -87.667 13.667 -123 41s-61.333 64.333 -78 111c-26 -46.667 -62.833 -83.667 -110.5 -111
s-98.167 -41 -151.5 -41c-88.667 0 -160 23.333 -214 70s-81 113.667 -81 201c0 94 30 163.667 90 209c49.333 36.667 145 72 287 106c31.333 8 56 15 74 21c30 9.33301 54.333 20 73 32c11.333 10 19.666 21.833 24.999 35.5s8 27.834 8 42.501
c0 49.333 -20.5 91.666 -61.5 126.999s-86.167 53 -135.5 53c-58.667 0 -115.334 -16.333 -170.001 -49c-44.667 -27.333 -71 -53.333 -79 -78h-13l-28 123c46 42.667 104.5 76.667 175.5 102s139.5 38 205.5 38c102 0 188 -20 258 -60c87.333 -49.333 131 -121 131 -215z
M776.003 1393l73.999 -0.00195312c-15.333 -76.667 -37.333 -135.334 -66 -176.001c-38 -54.667 -88.333 -82 -151 -82c-26 0 -50 4 -72 12l-61.5 30.5c-35.667 17.667 -61.5 29.834 -77.5 36.501c-32.667 15.333 -58 23 -76 23c-27.333 0 -47.833 -11.667 -61.5 -35
s-20.5 -44.333 -20.5 -63h-74c0 70.667 24.667 133.334 74 188.001c39.333 44 87 66 143 66c32 0 67.667 -9 107 -27c28.667 -15.333 49 -25.666 61 -30.999c20.667 -12 39.834 -21.833 57.501 -29.5s34.167 -11.5 49.5 -11.5c23.333 0 43 10.333 59 31
c10 12 21.667 34.667 35 68z" />
    <glyph glyph-name="egrave" unicode="&#xe8;" 
d="M376 586l303 -0.000976562c0 83.333 -6.66699 150 -20 200c-22 82 -60.333 123 -115 123c-66.667 0 -113.667 -40.333 -141 -121c-18 -51.333 -27 -118.666 -27 -201.999zM962 486.999h-586.001l-4 -32c0 -106.667 22 -189.334 66 -248.001
c48.667 -67.333 122.334 -101 221.001 -101c42 0 83.833 8 125.5 24s80.167 38.333 115.5 67l25 -17l-45 -114c-90 -63.333 -188.333 -95 -295 -95c-168 0 -295.333 47.5 -382 142.5s-130 227.833 -130 398.5c0 146 41.667 264.5 125 355.5s197.333 136.5 342 136.5
c143.333 0 251.333 -43.333 324 -130c65.333 -77.333 98 -185.666 98 -324.999v-62zM395.999 1421l267.001 -303h-115l-270 164l-70 49c-24.667 22 -37 46.667 -37 74c0 26 8.5 47.5 25.5 64.5s38.5 25.5 64.5 25.5c30 0 54.667 -5.83301 74 -17.5
s39.666 -30.5 60.999 -56.5z" />
    <glyph glyph-name="eacute" unicode="&#xe9;" 
d="M376 586l303 -0.000976562c0 83.333 -6.66699 150 -20 200c-22 82 -60.333 123 -115 123c-66.667 0 -113.667 -40.333 -141 -121c-18 -51.333 -27 -118.666 -27 -201.999zM962 486.999h-586.001l-4 -32c0 -106.667 22 -189.334 66 -248.001
c48.667 -67.333 122.334 -101 221.001 -101c42 0 83.833 8 125.5 24s80.167 38.333 115.5 67l25 -17l-45 -114c-90 -63.333 -188.333 -95 -295 -95c-168 0 -295.333 47.5 -382 142.5s-130 227.833 -130 398.5c0 146 41.667 264.5 125 355.5s197.333 136.5 342 136.5
c143.333 0 251.333 -43.333 324 -130c65.333 -77.333 98 -185.666 98 -324.999v-62zM731.999 1477.5c19.333 11.667 44.001 17.5 74.001 17.5c25.333 0 46.666 -8.5 63.999 -25.5s26 -38.5 26 -64.5c0 -27.333 -12.333 -52 -37 -74l-70 -49l-270 -164h-115l266 303
c22 26 42.667 44.833 62 56.5z" />
    <glyph glyph-name="ecircumflex" unicode="&#xea;" 
d="M376 586l303 -0.000976562c0 83.333 -6.66699 150 -20 200c-22 82 -60.333 123 -115 123c-66.667 0 -113.667 -40.333 -141 -121c-18 -51.333 -27 -118.666 -27 -201.999zM962 486.999h-586.001l-4 -32c0 -106.667 22 -189.334 66 -248.001
c48.667 -67.333 122.334 -101 221.001 -101c42 0 83.833 8 125.5 24s80.167 38.333 115.5 67l25 -17l-45 -114c-90 -63.333 -188.333 -95 -295 -95c-168 0 -295.333 47.5 -382 142.5s-130 227.833 -130 398.5c0 146 41.667 264.5 125 355.5s197.333 136.5 342 136.5
c143.333 0 251.333 -43.333 324 -130c65.333 -77.333 98 -185.666 98 -324.999v-62zM440.999 1458h189l254 -360h-119l-230 200l-229 -200h-115z" />
    <glyph glyph-name="igrave" unicode="&#xec;" horiz-adv-x="589" 
d="M143 -12l0.000976562 995.001c16.667 0 43.667 -1.33301 81 -4s58.333 -4 63 -4c22.667 0 47.667 1 75 3s48.666 3.66699 63.999 5v-995c-18 1.33301 -35 2.66602 -51 3.99902c-48 5.33301 -77.333 8 -88 8c-16.667 0 -40.667 -2 -72 -6s-55.333 -6 -72 -6zM229.001 1421
l262.002 -302.998h-114l-267 164c-48.667 32.667 -76.334 53 -83.001 61c-15.333 18 -23 38.667 -23 62c0 27.333 8.16699 49.166 24.5 65.499s38.166 24.5 65.499 24.5c30 0 55.333 -6 76 -18c13.333 -8.66699 33 -27.334 59 -56.001z" />
    <glyph glyph-name="iacute" unicode="&#xed;" horiz-adv-x="589" 
d="M142 -12v995.001c16.667 0 43.834 -1.33301 81.501 -4s58.5 -4 62.5 -4c23.333 0 48.666 1 75.999 3s48.333 3.66699 63 5v-995c-18 1.33301 -35 2.66602 -51 3.99902c-48 5.33301 -77.333 8 -88 8c-16.667 0 -40.667 -2 -72 -6s-55.333 -6 -72 -6zM81 1118l266 302.999
c41.333 49.333 86.333 74 135 74c24.667 0 46 -8.16699 64 -24.5s27 -38.166 27 -65.499c0 -22 -7 -41 -21 -57c-4 -6 -32.667 -28 -86 -66l-270 -164h-115z" />
    <glyph glyph-name="ograve" unicode="&#xf2;" 
d="M520 -29c-140.667 0 -252.333 44.833 -335 134.5s-124 210.167 -124 361.5c0 162.667 41 292.834 123 390.501s195.333 146.5 340 146.5c142 0 254.667 -43.833 338 -131.5s125 -207.834 125 -360.501c0 -160 -41.333 -290.167 -124 -390.5s-197 -150.5 -343 -150.5z
M532.001 909c-70.667 0 -122.001 -42.332 -154.001 -126.999c-25.333 -69.333 -38 -173 -38 -311c0 -102.667 9.33301 -186.667 28 -252c30 -102 80.667 -153 152 -153c66.667 0 116.334 51 149.001 153c26 83.333 39 192 39 326c0 109.333 -13 194.666 -39 255.999
c-30 72 -75.667 108 -137 108zM397 1421l266 -303h-115l-270 164l-70 49c-24.667 22 -37 46.667 -37 74c0 26 8.66699 47.5 26 64.5s39 25.5 65 25.5c30 0 54.5 -5.83301 73.5 -17.5s39.5 -30.5 61.5 -56.5z" />
    <glyph glyph-name="oacute" unicode="&#xf3;" 
d="M520 -29c-140.667 0 -252.333 44.833 -335 134.5s-124 210.167 -124 361.5c0 162.667 41 292.834 123 390.501s195.333 146.5 340 146.5c142 0 254.667 -43.833 338 -131.5s125 -207.834 125 -360.501c0 -160 -41.333 -290.167 -124 -390.5s-197 -150.5 -343 -150.5z
M532.001 909c-70.667 0 -122.001 -42.332 -154.001 -126.999c-25.333 -69.333 -38 -173 -38 -311c0 -102.667 9.33301 -186.667 28 -252c30 -102 80.667 -153 152 -153c66.667 0 116.334 51 149.001 153c26 83.333 39 192 39 326c0 109.333 -13 194.666 -39 255.999
c-30 72 -75.667 108 -137 108zM751 1477.5c19.333 11.667 44.001 17.5 74.001 17.5c26 0 47.5 -8.5 64.5 -25.5s25.5 -38.5 25.5 -64.5c0 -27.333 -12.333 -52 -37 -74l-70 -49l-270 -164h-115l267 303c21.333 26 41.666 44.833 60.999 56.5z" />
    <glyph glyph-name="ocircumflex" unicode="&#xf4;" 
d="M520 -29c-140.667 0 -252.333 44.833 -335 134.5s-124 210.167 -124 361.5c0 162.667 41 292.834 123 390.501s195.333 146.5 340 146.5c142 0 254.667 -43.833 338 -131.5s125 -207.834 125 -360.501c0 -160 -41.333 -290.167 -124 -390.5s-197 -150.5 -343 -150.5z
M532.001 909c-70.667 0 -122.001 -42.332 -154.001 -126.999c-25.333 -69.333 -38 -173 -38 -311c0 -102.667 9.33301 -186.667 28 -252c30 -102 80.667 -153 152 -153c66.667 0 116.334 51 149.001 153c26 83.333 39 192 39 326c0 109.333 -13 194.666 -39 255.999
c-30 72 -75.667 108 -137 108zM428 1458h188l254 -360h-119l-229 200l-230 -200h-114z" />
    <glyph glyph-name="otilde" unicode="&#xf5;" 
d="M520 -29c-140.667 0 -252.333 44.833 -335 134.5s-124 210.167 -124 361.5c0 162.667 41 292.834 123 390.501s195.333 146.5 340 146.5c142 0 254.667 -43.833 338 -131.5s125 -207.834 125 -360.501c0 -160 -41.333 -290.167 -124 -390.5s-197 -150.5 -343 -150.5z
M532.001 909c-70.667 0 -122.001 -42.332 -154.001 -126.999c-25.333 -69.333 -38 -173 -38 -311c0 -102.667 9.33301 -186.667 28 -252c30 -102 80.667 -153 152 -153c66.667 0 116.334 51 149.001 153c26 83.333 39 192 39 326c0 109.333 -13 194.666 -39 255.999
c-30 72 -75.667 108 -137 108zM780 1393l73.9971 -0.00195312c-15.333 -76.667 -37.333 -135.334 -66 -176.001c-38 -54.667 -88.667 -82 -152 -82c-25.333 0 -49 4 -71 12l-61.5 30.5c-35.667 17.667 -61.5 29.834 -77.5 36.501c-33.333 15.333 -58.666 23 -75.999 23
c-27.333 0 -47.833 -11.667 -61.5 -35s-20.5 -44.333 -20.5 -63h-74c0 70.667 24.667 133.334 74 188.001c39.333 44 87 66 143 66c31.333 0 67 -9 107 -27c28.667 -15.333 49 -25.666 61 -30.999c20.667 -12 39.834 -21.833 57.501 -29.5s34.167 -11.5 49.5 -11.5
c22.667 0 42.334 10.333 59.001 31c9.33301 12 21 34.667 35 68z" />
    <glyph glyph-name="divide" unicode="&#xf7;" horiz-adv-x="1706" 
 />
    <glyph glyph-name="glyph216" unicode="&#xf9;" horiz-adv-x="1048" 
d="M934 983l0.00195312 -994.999l-131 12c-18 0 -39 -1.33301 -63 -4l-69 -8v151c-44.667 -48.667 -77.334 -81.334 -98.001 -98.001c-57.333 -46.667 -124.333 -70 -201 -70c-52.667 0 -102.334 10.667 -149.001 32s-84.334 53 -113.001 95
c-20 31.333 -34.5 68.833 -43.5 112.5s-13.5 89.5 -13.5 137.5l4 70v565l135 -8c16.667 0 43 1.33301 79 4s56.333 4 61 4v-565c0 -61.333 1 -99.833 3 -115.5s7.66699 -33.167 17 -52.5c13.333 -35.333 31 -62 53 -80s50.667 -27 86 -27c75.333 0 125.333 35 150 105
c14.667 42 22 109.667 22 203v532c22 -2.66699 43.333 -4.66699 64 -6s44.334 -2 71.001 -2c22 0 46.333 1 73 3s47.667 3.66699 63 5zM397.002 1421l266 -303h-115l-270 164l-70 49c-24 22 -36 46.667 -36 74c0 26 8.5 47.5 25.5 64.5s38.5 25.5 64.5 25.5
c30 0 54.5 -5.83301 73.5 -17.5s39.5 -30.5 61.5 -56.5z" />
    <glyph glyph-name="glyph217" unicode="&#xfa;" horiz-adv-x="1048" 
d="M934 983l0.00195312 -994.999l-131 12c-18 0 -39 -1.33301 -63 -4l-69 -8v151c-44.667 -48.667 -77.334 -81.334 -98.001 -98.001c-57.333 -46.667 -124.333 -70 -201 -70c-52.667 0 -102.334 10.667 -149.001 32s-84.334 53 -113.001 95
c-20 31.333 -34.5 68.833 -43.5 112.5s-13.5 89.5 -13.5 137.5l4 70v565l135 -8c16.667 0 43 1.33301 79 4s56.333 4 61 4v-565c0 -61.333 1 -99.833 3 -115.5s7.66699 -33.167 17 -52.5c13.333 -35.333 31 -62 53 -80s50.667 -27 86 -27c75.333 0 125.333 35 150 105
c14.667 42 22 109.667 22 203v532c22 -2.66699 43.333 -4.66699 64 -6s44.334 -2 71.001 -2c22 0 46.333 1 73 3s47.667 3.66699 63 5zM722.502 1477.5c19 11.667 43.5 17.5 73.5 17.5c26 0 47.5 -8.5 64.5 -25.5s25.5 -38.5 25.5 -64.5c0 -27.333 -12.333 -52 -37 -74
l-69 -49l-271 -164h-114l266 303c22 26 42.5 44.833 61.5 56.5z" />
    <glyph glyph-name="glyph234" unicode="&#xfd;" 
d="M192 -532l261.997 528l-414 987c16.667 0 45.334 -1.33301 86.001 -4s64 -4 70 -4c16 0 44.5 1.33301 85.5 4s64.167 4 69.5 4l88.5 -245c23 -62 75.5 -192 157.5 -390l78 209c27.333 71.333 47 124 59 158l97 268c14.667 -2.66699 28.5 -4 41.5 -4h39.5h33h27
c12 2.66699 20.667 4 26 4l-208 -467l-223.5 -524.5c-63 -153 -130.5 -327.5 -202.5 -523.5c-15.333 2.66699 -29.166 4.66699 -41.499 6s-27.166 2 -44.499 2c-14 0 -29.5 -1 -46.5 -3s-30.167 -3.66699 -39.5 -5zM721.497 1477.5c19 11.667 43.5 17.5 73.5 17.5
c26 0 47.5 -8.5 64.5 -25.5s25.5 -38.5 25.5 -64.5c0 -27.333 -12 -52 -36 -74l-70 -49l-270 -164h-115l266 303c22 26 42.5 44.833 61.5 56.5z" />
    <glyph glyph-name="Abreve" unicode="&#x102;" horiz-adv-x="1376" 
d="M843 418h-479.001c-27.333 -78 -46.333 -133.333 -57 -166c-40 -113.333 -68.667 -200 -86 -260c-12.667 1.33301 -26.834 3 -42.501 5s-33.167 3 -52.5 3c-16 0 -33.667 -1 -53 -3s-34.333 -3.66699 -45 -5l586 1421c12 -2.66699 24.5 -4 37.5 -4h40.5h28h23
c12 2.66699 20.667 4 26 4l570 -1425c-27.333 0 -48.666 0.666992 -63.999 2c-72 6.66699 -109.333 10 -112 10c-27.333 -0 -48.666 -0.666992 -63.999 -2c-72 -6.66699 -109.667 -10 -113 -10c-47.333 166.667 -95 310 -143 430zM420.999 545h373l-180 475zM985.999 1761
c-14.667 -77.333 -47.668 -139 -99.001 -185s-118 -69 -200 -69c-86 0 -155.5 22.5 -208.5 67.5s-85.833 107.167 -98.5 186.5h107c17.333 -35.333 42.833 -60.5 76.5 -75.5s74.834 -22.5 123.501 -22.5c46.667 0 85.667 7.83301 117 23.5s55.333 40.5 72 74.5h110z" />
    <glyph glyph-name="abreve" unicode="&#x103;" 
d="M606 328l-0.000976562 200.002c-40.667 -14.667 -73.334 -26 -98.001 -34c-45.333 -16.667 -80.666 -34.834 -105.999 -54.501s-42.666 -42.834 -51.999 -69.501s-14 -60 -14 -100c0 -46 8.5 -84.833 25.5 -116.5s46.5 -47.5 88.5 -47.5c56 0 97 24 123 72
c22 40 33 90 33 150zM888.999 729.002l0.00390625 -557c0 -68 28.667 -102 86 -102l16 4v-45c-28.667 -14 -60.334 -27.167 -95.001 -39.5s-64.334 -18.5 -89.001 -18.5c-46.667 0 -87.667 13.667 -123 41s-61.333 64.333 -78 111c-26 -46.667 -62.833 -83.667 -110.5 -111
s-98.167 -41 -151.5 -41c-88.667 0 -160 23.333 -214 70s-81 113.667 -81 201c0 94 30 163.667 90 209c49.333 36.667 145 72 287 106c31.333 8 56 15 74 21c30 9.33301 54.333 20 73 32c11.333 10 19.666 21.833 24.999 35.5s8 27.834 8 42.501
c0 49.333 -20.5 91.666 -61.5 126.999s-86.167 53 -135.5 53c-58.667 0 -115.334 -16.333 -170.001 -49c-44.667 -27.333 -71 -53.333 -79 -78h-13l-28 123c46 42.667 104.5 76.667 175.5 102s139.5 38 205.5 38c102 0 188 -20 258 -60c87.333 -49.333 131 -121 131 -215z
M823.003 1331c-14.667 -78 -47.666 -139.833 -98.999 -185.5s-118 -68.5 -200 -68.5c-86 0 -155.667 22.5 -209 67.5s-86 107.167 -98 186.5h106c18 -35.333 43.667 -60.5 77 -75.5s74.666 -22.5 123.999 -22.5c46.667 0 85.667 7.83301 117 23.5s55.333 40.5 72 74.5h110z
" />
    <glyph glyph-name="Ccaron" unicode="&#x10c;" horiz-adv-x="1274" 
 />
    <glyph glyph-name="ccaron" unicode="&#x10d;" horiz-adv-x="922" 
 />
    <glyph glyph-name="Dslash" unicode="&#x110;" horiz-adv-x="1617" 
d="M163 647l-0.000976562 139.001h82v611h631c204.667 0 362.334 -67.667 473.001 -203c96.667 -118.667 145 -271 145 -457c0 -226.667 -71.667 -407.334 -215 -542.001c-138 -130 -314.667 -195 -530 -195h-504v647h-82zM551.999 1278v-492h287v-139h-287v-528h103
c155.333 0 274 43.667 356 131c95.333 102 143 265.667 143 491c0 186 -42.333 323.333 -127 412c-79.333 83.333 -194 125 -344 125h-131z" />
    <glyph glyph-name="dcroat" unicode="&#x111;" horiz-adv-x="1159" 
d="M1019 1221v-1233l-135 12c-18.667 0 -40.334 -1.33301 -65.001 -4s-48 -5.33398 -70 -8.00098v184c-23.333 -61.333 -59.5 -110.166 -108.5 -146.499s-107.167 -54.5 -174.5 -54.5c-140.667 0 -245 52.667 -313 158c-58.667 90 -88 209.333 -88 358
c0 142 31.333 260.333 94 355c72.667 108 172.334 162 299.001 162c66 0 121.833 -11.667 167.5 -35s82.834 -61 111.501 -113v365h-209v139h209v188c16 0 39.833 -2 71.5 -6s55.5 -6 71.5 -6c19.333 0 41.666 1.33301 66.999 4s49.333 5.33398 72 8.00098v-188h66v-139h-66
zM565 867.999c-76.667 0 -131.334 -48.334 -164.001 -145.001c-22 -64 -33 -145.333 -33 -244c0 -94 9 -170.333 27 -229c28.667 -96 79.667 -144 153 -144c76.667 0 131.334 50 164.001 150c22 66.667 33 149.334 33 248.001c0 91.333 -9.66699 166.333 -29 225
c-30 92.667 -80.333 139 -151 139z" />
    <glyph glyph-name="Itilde" unicode="&#x128;" horiz-adv-x="700" 
d="M189 -12v1409c16 0 41.167 -2.16699 75.5 -6.5s59.5 -6.5 75.5 -6.5c18 0 44 2.16699 78 6.5s60 6.5 78 6.5v-1409c-18 0 -44 2 -78 6s-60 6 -78 6c-16 0 -41.167 -2 -75.5 -6s-59.5 -6 -75.5 -6zM610 1827l72.999 -0.00195312
c-14.667 -76.667 -36.334 -135.334 -65.001 -176.001c-38 -54.667 -88.667 -82 -152 -82c-26 0 -49.667 4 -71 12c-6 2.66699 -26.667 12.834 -62 30.501s-61.333 30.167 -78 37.5c-32.667 14.667 -57.667 22 -75 22c-27.333 0 -47.833 -11.5 -61.5 -34.5
s-20.5 -44.167 -20.5 -63.5h-74c0 70.667 24.667 133.334 74 188.001c39.333 44 87 66 143 66c31.333 0 67 -9 107 -27l61 -31c20.667 -12 39.834 -21.667 57.501 -29s34.167 -11 49.5 -11c22.667 0 42.334 10 59.001 30c9.33301 12.667 21 35.334 35 68.001z" />
    <glyph glyph-name="itilde" unicode="&#x129;" horiz-adv-x="589" 
d="M144 -12v995.001c16.667 0 43.834 -1.33301 81.501 -4s58.5 -4 62.5 -4c22.667 0 47.667 1 75 3s48.666 3.66699 63.999 5v-995c-18 1.33301 -35 2.66602 -51 3.99902c-48 5.33301 -77.333 8 -88 8c-16.667 0 -40.667 -2 -72 -6s-55.333 -6 -72 -6zM546 1417
l72.999 -0.00292969c-14.667 -76 -36.334 -134.667 -65.001 -176c-38 -54.667 -88.667 -82 -152 -82c-26 0 -49.667 4 -71 12c-6 3.33301 -26.667 13.833 -62 31.5s-61.333 29.834 -78 36.501c-32.667 15.333 -57.667 23 -75 23c-27.333 0 -47.833 -11.667 -61.5 -35
s-20.5 -44.666 -20.5 -63.999h-74c0 71.333 24.667 134.333 74 189c39.333 43.333 87 65 143 65c31.333 0 67 -8.66699 107 -26c28.667 -15.333 49 -25.666 61 -30.999c20.667 -12.667 39.834 -22.667 57.501 -30s34.167 -11 49.5 -11c22.667 0 42.334 10.333 59.001 31
c9.33301 12 21 34.333 35 67z" />
    <glyph glyph-name="Utilde" unicode="&#x168;" horiz-adv-x="1396" 
d="M159 561l0.00195312 836c45.333 -4 90.333 -8.33301 135 -13c45.333 4.66699 90.333 9 135 13v-582c0 -65.333 0.333008 -131.833 1 -199.5s4.66699 -130.834 12 -189.501c13.333 -66.667 23.333 -109 30 -127c14 -38 36.667 -73.333 68 -106
c56 -60.667 124.333 -91 205 -91c84.667 0 151.5 19.167 200.5 57.5s89.833 102.5 122.5 192.5c11.333 30 19.666 78.5 24.999 145.5s8 159.167 8 276.5v623c16.667 -2.66699 28.667 -4.66699 36 -6s18.666 -2 33.999 -2c12 0 25.167 1 39.5 3s25.5 3.66699 33.5 5v-729
c0 -153.333 -8 -263.333 -24 -330c-26 -109.333 -82 -197.333 -168 -264c-46.667 -40 -99 -68.5 -157 -85.5s-120.333 -25.5 -187 -25.5c-126 0 -232 24 -318 72c-104.667 58.667 -172 149.334 -202 272.001c-10 41.333 -17.333 82 -22 122s-7 84 -7 132zM1026 1827
l72.999 -0.00195312c-14.667 -76.667 -36.334 -135.334 -65.001 -176.001c-38 -54.667 -88.667 -82 -152 -82c-26 0 -49.667 4 -71 12c-6 2.66699 -26.667 12.834 -62 30.501s-61.333 30.167 -78 37.5c-32.667 14.667 -57.667 22 -75 22
c-27.333 0 -47.833 -11.5 -61.5 -34.5s-20.5 -44.167 -20.5 -63.5h-74c0 70.667 24.667 133.334 74 188.001c39.333 44 87 66 143 66c31.333 0 67 -9 107 -27l61 -31c20.667 -12 39.834 -21.667 57.501 -29s34.167 -11 49.5 -11c22.667 0 42.334 10 59.001 30
c9.33301 12.667 21 35.334 35 68.001z" />
    <glyph glyph-name="utilde" unicode="&#x169;" horiz-adv-x="1048" 
d="M934 983l0.00195312 -994.999l-131 12c-18 0 -39 -1.33301 -63 -4l-69 -8v151c-44.667 -48.667 -77.334 -81.334 -98.001 -98.001c-57.333 -46.667 -124.333 -70 -201 -70c-52.667 0 -102.334 10.667 -149.001 32s-84.334 53 -113.001 95
c-20 31.333 -34.5 68.833 -43.5 112.5s-13.5 89.5 -13.5 137.5l4 70v565l135 -8c16.667 0 43 1.33301 79 4s56.333 4 61 4v-565c0 -61.333 1 -99.833 3 -115.5s7.66699 -33.167 17 -52.5c13.333 -35.333 31 -62 53 -80s50.667 -27 86 -27c75.333 0 125.333 35 150 105
c14.667 42 22 109.667 22 203v532c22 -2.66699 43.333 -4.66699 64 -6s44.334 -2 71.001 -2c22 0 46.333 1 73 3s47.667 3.66699 63 5zM780.002 1393l73.999 -0.00195312c-15.333 -76.667 -37.333 -135.334 -66 -176.001c-38 -54.667 -88.333 -82 -151 -82
c-26 0 -50 4 -72 12l-61.5 30.5c-35.667 17.667 -61.5 29.834 -77.5 36.501c-32.667 15.333 -58 23 -76 23c-27.333 0 -47.833 -11.667 -61.5 -35s-20.5 -44.333 -20.5 -63h-74c0 70.667 24.667 133.334 74 188.001c39.333 44 87 66 143 66c32 0 67.667 -9 107 -27
c28.667 -15.333 49 -25.666 61 -30.999c20.667 -12 39.834 -21.833 57.501 -29.5s34.167 -11.5 49.5 -11.5c23.333 0 43 10.333 59 31c10 12 21.667 34.667 35 68z" />
    <glyph glyph-name="Ohorn" unicode="&#x1a0;" horiz-adv-x="1396" 
d="M1151 1262c24 0 51.3281 15.0039 81.9951 45.0039c10.667 16 16 37.667 16 65c0 18 -1.66699 35.167 -5 51.5s-7.83301 28.666 -13.5 36.999s-18.667 13.166 -39 14.499s-31.166 4 -32.499 8v123c16 -2.66699 27.833 -4.83398 35.5 -6.50098s18.834 -2.5 33.501 -2.5
c16.667 0 40.334 1.5 71.001 4.5s49.334 4.5 56.001 4.5h62l-4 -33v-86c0 -38 -5.16699 -76.833 -15.5 -116.5s-25.333 -71.5 -45 -95.5s-38.5 -41.333 -56.5 -52c-28.667 -18 -60.667 -27 -96 -27c49.333 -72.667 86.166 -150.834 110.499 -234.501
s36.5 -169.167 36.5 -256.5c0 -206.667 -59.333 -380.334 -178 -521.001c-125.333 -147.333 -287 -221 -485 -221c-191.333 0 -343.666 64.5 -456.999 193.5s-170 308.833 -170 539.5c0 210.667 58 384.334 174 521.001c122.667 144.667 287.334 217 494.001 217
c92.667 0 174.167 -15.167 244.5 -45.5s130.833 -72.5 181.5 -126.5zM711.995 1311c-118.667 0 -210.333 -55.999 -275 -167.999s-97 -281.333 -97 -508c0 -150 26.333 -275 79 -375c62 -116 151.667 -174 269 -174c124 0 220.333 66.333 289 199
c61.333 118.667 92 270.667 92 456c0 153.333 -27.333 281.666 -82 384.999c-64 123.333 -155.667 185 -275 185z" />
    <glyph glyph-name="ohorn" unicode="&#x1a1;" 
d="M831 889c18 0 34.832 2.99609 50.499 8.99609s29 16.833 40 32.5s16.5 31.834 16.5 48.501c0 24.667 -5.66699 42.334 -17 53.001c-4 6.66699 -16.167 10.834 -36.5 12.501s-31.166 4.5 -32.499 8.5v123c26.667 -6 48.334 -9 65.001 -9c12 0 27 1.5 45 4.5
s34.333 4.5 49 4.5h58l-4 -29v-94c0 -42.667 -3.83301 -74.167 -11.5 -94.5s-20.5 -40.833 -38.5 -61.5c-28.667 -32.667 -43.667 -49.667 -45 -51c-16 -15.333 -40.333 -23 -73 -23c60 -86 90 -189.667 90 -311c0 -160 -41.333 -290.167 -124 -390.5
s-197 -150.5 -343 -150.5c-140.667 0 -252.334 44.833 -335.001 134.5s-124 210.167 -124 361.5c0 162.667 41 292.834 123 390.501s195.333 146.5 340 146.5c124 0 226.333 -38.333 307 -115zM531.999 908.996c-70.667 0 -122.001 -42.332 -154.001 -126.999
c-25.333 -69.333 -38 -173 -38 -311c0 -102.667 9.33301 -186.667 28 -252c30 -102 80.667 -153 152 -153c66.667 0 116.334 51 149.001 153c26 83.333 39 192 39 326c0 109.333 -13 194.666 -39 255.999c-30 72 -75.667 108 -137 108z" />
    <glyph glyph-name="Uhorn" unicode="&#x1af;" horiz-adv-x="1396" 
d="M1244 1368l25.001 0.000976562c16.667 0 31.667 7 45 21c10.667 16 16 37.667 16 65c0 12.667 -6.66699 27.667 -20 45c-4 6.66699 -16.333 10.667 -37 12s-31.667 4.33301 -33 9v122c16.667 -2.66699 28.667 -4.66699 36 -6s18.666 -2 33.999 -2s30.5 1.33301 45.5 4
s31.167 4 48.5 4h62l-4 -32v-86c0 -38.667 -3.16699 -69.834 -9.5 -93.501s-21.166 -48.5 -44.499 -74.5l-30 -39c-3.33301 -2.66699 -13.666 -9 -30.999 -19c-5.33301 -2.66699 -22 -6 -50 -10s-45.667 -6 -53 -6v-614c0 -153.333 -8 -263.333 -24 -330
c-26 -109.333 -82 -197.333 -168 -264c-46.667 -40 -99 -68.5 -157 -85.5s-120.333 -25.5 -187 -25.5c-126 0 -232 24 -318 72c-104.667 58.667 -172 149.334 -202 272.001c-10 41.333 -17.333 82 -22 122s-7 84 -7 132v836c45.333 -4 90.333 -8.33301 135 -13
c45.333 4.66699 90.333 9 135 13v-582c0 -65.333 0.333008 -131.833 1 -199.5s4.66699 -130.834 12 -189.501c13.333 -66.667 23.333 -109 30 -127c14 -38 36.667 -73.333 68 -106c56 -60.667 124.333 -91 205 -91c84.667 0 151.5 19.167 200.5 57.5
s89.833 102.5 122.5 192.5c11.333 30 19.666 78.5 24.999 145.5s8 159.167 8 276.5v623c16.667 -2.66699 28.667 -4.66699 36 -6s18.666 -2 33.999 -2c12 0 25.167 1 39.5 3s25.5 3.66699 33.5 5v-29z" />
    <glyph glyph-name="uhorn" unicode="&#x1b0;" horiz-adv-x="1048" 
d="M934 950c21.333 4 35.1699 6.83496 41.5029 8.50195s14.666 9.66699 24.999 24s15.5 33.5 15.5 57.5c0 27.333 -4.33301 45.333 -13 54c-4 6.66699 -16.167 10.667 -36.5 12s-31.166 4 -32.499 8v123c27.333 -5.33301 49 -8 65 -8l90 4h58l-4 -29v-94
c0 -30 -4.5 -58.333 -13.5 -85s-25.167 -54.334 -48.5 -83.001c-18 -22 -36.833 -37 -56.5 -45s-49.834 -12 -90.501 -12v-897l-131 12c-18 0 -39 -1.33301 -63 -4l-69 -8v151c-44.667 -48.667 -77.334 -81.334 -98.001 -98.001c-57.333 -46.667 -124.333 -70 -201 -70
c-52.667 0 -102.334 10.667 -149.001 32s-84.334 53 -113.001 95c-20 31.333 -34.5 68.833 -43.5 112.5s-13.5 89.5 -13.5 137.5l4 70v565l135 -8c16.667 0 43 1.33301 79 4s56.333 4 61 4v-565c0 -61.333 1 -99.833 3 -115.5s7.66699 -33.167 17 -52.5
c13.333 -35.333 31 -62 53 -80s50.667 -27 86 -27c75.333 0 125.333 35 150 105c14.667 42 22 109.667 22 203v532c22 -2.66699 43.333 -4.66699 64 -6s44.334 -2 71.001 -2c22 0 46.333 1 73 3s47.667 3.66699 63 5v-33z" />
    <glyph glyph-name="uni1EA0" unicode="&#x1ea0;" horiz-adv-x="1376" 
d="M843 418h-479.001c-27.333 -78 -46.333 -133.333 -57 -166c-40 -113.333 -68.667 -200 -86 -260c-12.667 1.33301 -26.834 3 -42.501 5s-33.167 3 -52.5 3c-16 0 -33.667 -1 -53 -3s-34.333 -3.66699 -45 -5l586 1421c12 -2.66699 24.5 -4 37.5 -4h40.5h28h23
c12 2.66699 20.667 4 26 4l570 -1425c-27.333 0 -48.666 0.666992 -63.999 2c-72 6.66699 -109.333 10 -112 10c-27.333 -0 -48.666 -0.666992 -63.999 -2c-72 -6.66699 -109.667 -10 -113 -10c-47.333 166.667 -95 310 -143 430zM420.999 545h373l-180 475zM447.999 -279
c0 44 15.667 81.667 47 113s69 47 113 47c43.333 0 81.333 -15.667 114 -47s49 -69 49 -113c0 -44.667 -16 -83 -48 -115s-70.333 -48 -115 -48c-44 0 -81.667 16.333 -113 49s-47 70.667 -47 114z" />
    <glyph glyph-name="uni1EA1" unicode="&#x1ea1;" 
d="M606 328l-0.000976562 200.002c-40.667 -14.667 -73.334 -26 -98.001 -34c-45.333 -16.667 -80.666 -34.834 -105.999 -54.501s-42.666 -42.834 -51.999 -69.501s-14 -60 -14 -100c0 -46 8.5 -84.833 25.5 -116.5s46.5 -47.5 88.5 -47.5c56 0 97 24 123 72
c22 40 33 90 33 150zM888.999 729.002l0.00390625 -557c0 -68 28.667 -102 86 -102l16 4v-45c-28.667 -14 -60.334 -27.167 -95.001 -39.5s-64.334 -18.5 -89.001 -18.5c-46.667 0 -87.667 13.667 -123 41s-61.333 64.333 -78 111c-26 -46.667 -62.833 -83.667 -110.5 -111
s-98.167 -41 -151.5 -41c-88.667 0 -160 23.333 -214 70s-81 113.667 -81 201c0 94 30 163.667 90 209c49.333 36.667 145 72 287 106c31.333 8 56 15 74 21c30 9.33301 54.333 20 73 32c11.333 10 19.666 21.833 24.999 35.5s8 27.834 8 42.501
c0 49.333 -20.5 91.666 -61.5 126.999s-86.167 53 -135.5 53c-58.667 0 -115.334 -16.333 -170.001 -49c-44.667 -27.333 -71 -53.333 -79 -78h-13l-28 123c46 42.667 104.5 76.667 175.5 102s139.5 38 205.5 38c102 0 188 -20 258 -60c87.333 -49.333 131 -121 131 -215z
M358.003 -278.998c0 44 15.667 81.667 47 113s69 47 113 47s82.333 -15.667 115 -47s49 -69 49 -113c0 -44.667 -16 -83 -48 -115s-70.667 -48 -116 -48c-44 0 -81.667 16.333 -113 49s-47 70.667 -47 114z" />
    <glyph glyph-name="uni1EA2" unicode="&#x1ea2;" horiz-adv-x="1376" 
d="M843 418h-479.001c-27.333 -78 -46.333 -133.333 -57 -166c-40 -113.333 -68.667 -200 -86 -260c-12.667 1.33301 -26.834 3 -42.501 5s-33.167 3 -52.5 3c-16 0 -33.667 -1 -53 -3s-34.333 -3.66699 -45 -5l586 1421c12 -2.66699 24.5 -4 37.5 -4h40.5h28h23
c12 2.66699 20.667 4 26 4l570 -1425c-27.333 0 -48.666 0.666992 -63.999 2c-72 6.66699 -109.333 10 -112 10c-27.333 -0 -48.666 -0.666992 -63.999 -2c-72 -6.66699 -109.667 -10 -113 -10c-47.333 166.667 -95 310 -143 430zM420.999 545h373l-180 475zM925.999 1890
l2 -17.9961l-2 -43c0 -27.333 -19.667 -59.333 -59 -96c-28.667 -27.333 -64.334 -53.333 -107.001 -78c-26 -12.667 -44.333 -26.334 -55 -41.001c-9.33301 -18 -15.666 -29.667 -18.999 -35l-8 -35v-28h-51v83c0 19.333 31.333 67.333 94 144c30 36.667 45 75 45 115
c0 16 -5.33301 36.333 -16 61s-23.667 41 -39 49c-16.667 12.667 -41.334 19 -74.001 19c-5.33301 0 -15.166 -5.83301 -29.499 -17.5s-23.5 -19.5 -27.5 -23.5c16.667 -12.667 28.667 -23.834 36 -33.501s11 -21.834 11 -36.501c0 -24.667 -10.5 -46.167 -31.5 -64.5
s-44.5 -27.5 -70.5 -27.5c-24.667 0 -45.167 8.83301 -61.5 26.5s-24.5 39.5 -24.5 65.5l4 22c16 34.667 39 63.667 69 87c46.667 35.333 104.667 53 174 53c75.333 0 135 -17.667 179 -53c30 -24.667 50.333 -56.334 61 -95.001z" />
    <glyph glyph-name="uni1EA3" unicode="&#x1ea3;" 
d="M606 328l-0.000976562 200.002c-40.667 -14.667 -73.334 -26 -98.001 -34c-45.333 -16.667 -80.666 -34.834 -105.999 -54.501s-42.666 -42.834 -51.999 -69.501s-14 -60 -14 -100c0 -46 8.5 -84.833 25.5 -116.5s46.5 -47.5 88.5 -47.5c56 0 97 24 123 72
c22 40 33 90 33 150zM888.999 729.002l0.00390625 -557c0 -68 28.667 -102 86 -102l16 4v-45c-28.667 -14 -60.334 -27.167 -95.001 -39.5s-64.334 -18.5 -89.001 -18.5c-46.667 0 -87.667 13.667 -123 41s-61.333 64.333 -78 111c-26 -46.667 -62.833 -83.667 -110.5 -111
s-98.167 -41 -151.5 -41c-88.667 0 -160 23.333 -214 70s-81 113.667 -81 201c0 94 30 163.667 90 209c49.333 36.667 145 72 287 106c31.333 8 56 15 74 21c30 9.33301 54.333 20 73 32c11.333 10 19.666 21.833 24.999 35.5s8 27.834 8 42.501
c0 49.333 -20.5 91.666 -61.5 126.999s-86.167 53 -135.5 53c-58.667 0 -115.334 -16.333 -170.001 -49c-44.667 -27.333 -71 -53.333 -79 -78h-13l-28 123c46 42.667 104.5 76.667 175.5 102s139.5 38 205.5 38c102 0 188 -20 258 -60c87.333 -49.333 131 -121 131 -215z
M763.003 1464l2.00098 -18l-2 -43c0 -27.333 -20 -59.333 -60 -96c-28.667 -27.333 -64 -53.333 -106 -78c-26 -12.667 -44.333 -26.334 -55 -41.001c-10 -18 -16.333 -29.667 -19 -35l-8 -35v-28h-51v84c0 18.667 31.333 66.334 94 143.001c30 36.667 45 75 45 115
c0 16 -5.5 36.333 -16.5 61s-23.833 41 -38.5 49c-16.667 12.667 -41.334 19 -74.001 19c-5.33301 0 -15.166 -5.83301 -29.499 -17.5s-23.5 -19.5 -27.5 -23.5c16 -12.667 27.833 -23.667 35.5 -33s11.5 -21.666 11.5 -36.999c0 -24.667 -10.667 -46.167 -32 -64.5
s-45 -27.5 -71 -27.5c-24.667 0 -45.167 8.83301 -61.5 26.5s-24.5 39.5 -24.5 65.5l4 23c16.667 34 40 62.667 70 86c46.667 35.333 104.667 53 174 53c75.333 0 134.666 -17.667 177.999 -53c30 -24.667 50.667 -56.334 62 -95.001z" />
    <glyph glyph-name="uni1EA4" unicode="&#x1ea4;" horiz-adv-x="1376" 
d="M843 418h-479.001c-27.333 -78 -46.333 -133.333 -57 -166c-40 -113.333 -68.667 -200 -86 -260c-12.667 1.33301 -26.834 3 -42.501 5s-33.167 3 -52.5 3c-16 0 -33.667 -1 -53 -3s-34.333 -3.66699 -45 -5l586 1421c12 -2.66699 24.5 -4 37.5 -4h40.5h28h23
c12 2.66699 20.667 4 26 4l570 -1425c-27.333 0 -48.666 0.666992 -63.999 2c-72 6.66699 -109.333 10 -112 10c-27.333 -0 -48.666 -0.666992 -63.999 -2c-72 -6.66699 -109.667 -10 -113 -10c-47.333 166.667 -95 310 -143 430zM420.999 545h373l-180 475zM584.999 1868
h193l249 -361h-114l-230 205l-233 -205h-111zM1200 2210c20.667 12.667 46.001 19 76.001 19c27.333 0 49.166 -9 65.499 -27s24.5 -39 24.5 -63c0 -28.667 -11.667 -54 -35 -76c-10.667 -9.33301 -34.667 -25 -72 -47l-266 -168h-115l262 307c26 28.667 46 47 60 55z" />
    <glyph glyph-name="uni1EA5" unicode="&#x1ea5;" 
d="M606 328l-0.000976562 200.002c-40.667 -14.667 -73.334 -26 -98.001 -34c-45.333 -16.667 -80.666 -34.834 -105.999 -54.501s-42.666 -42.834 -51.999 -69.501s-14 -60 -14 -100c0 -46 8.5 -84.833 25.5 -116.5s46.5 -47.5 88.5 -47.5c56 0 97 24 123 72
c22 40 33 90 33 150zM888.999 729.002l0.00390625 -557c0 -68 28.667 -102 86 -102l16 4v-45c-28.667 -14 -60.334 -27.167 -95.001 -39.5s-64.334 -18.5 -89.001 -18.5c-46.667 0 -87.667 13.667 -123 41s-61.333 64.333 -78 111c-26 -46.667 -62.833 -83.667 -110.5 -111
s-98.167 -41 -151.5 -41c-88.667 0 -160 23.333 -214 70s-81 113.667 -81 201c0 94 30 163.667 90 209c49.333 36.667 145 72 287 106c31.333 8 56 15 74 21c30 9.33301 54.333 20 73 32c11.333 10 19.666 21.833 24.999 35.5s8 27.834 8 42.501
c0 49.333 -20.5 91.666 -61.5 126.999s-86.167 53 -135.5 53c-58.667 0 -115.334 -16.333 -170.001 -49c-44.667 -27.333 -71 -53.333 -79 -78h-13l-28 123c46 42.667 104.5 76.667 175.5 102s139.5 38 205.5 38c102 0 188 -20 258 -60c87.333 -49.333 131 -121 131 -215z
M424.003 1458h188l254 -360h-119l-229 200l-229 -200h-115zM1082.5 1749.5c19 11.667 43.5 17.5 73.5 17.5c26 0 47.5 -8.5 64.5 -25.5s25.5 -38.5 25.5 -64.5c0 -27.333 -12.333 -52 -37 -74l-69 -49l-271 -164h-114l266 303c22 26 42.5 44.833 61.5 56.5z" />
    <glyph glyph-name="uni1EA6" unicode="&#x1ea6;" horiz-adv-x="1376" 
d="M843 418h-479.001c-27.333 -78 -46.333 -133.333 -57 -166c-40 -113.333 -68.667 -200 -86 -260c-12.667 1.33301 -26.834 3 -42.501 5s-33.167 3 -52.5 3c-16 0 -33.667 -1 -53 -3s-34.333 -3.66699 -45 -5l586 1421c12 -2.66699 24.5 -4 37.5 -4h40.5h28h23
c12 2.66699 20.667 4 26 4l570 -1425c-27.333 0 -48.666 0.666992 -63.999 2c-72 6.66699 -109.333 10 -112 10c-27.333 -0 -48.666 -0.666992 -63.999 -2c-72 -6.66699 -109.667 -10 -113 -10c-47.333 166.667 -95 310 -143 430zM420.999 545h373l-180 475zM584.999 1868
h193l249 -361h-114l-230 205l-233 -205h-111zM841.999 2155l261.999 -307h-115l-266 168c-36.667 22 -60.667 37.667 -72 47c-23.333 22 -35 47.333 -35 76c0 24 8.33301 45 25 63s38.334 27 65.001 27c30.667 0 56 -6.33301 76 -19c14 -8 34 -26.333 60 -55z" />
    <glyph glyph-name="uni1EA7" unicode="&#x1ea7;" 
d="M606 328l-0.000976562 200.002c-40.667 -14.667 -73.334 -26 -98.001 -34c-45.333 -16.667 -80.666 -34.834 -105.999 -54.501s-42.666 -42.834 -51.999 -69.501s-14 -60 -14 -100c0 -46 8.5 -84.833 25.5 -116.5s46.5 -47.5 88.5 -47.5c56 0 97 24 123 72
c22 40 33 90 33 150zM888.999 729.002l0.00390625 -557c0 -68 28.667 -102 86 -102l16 4v-45c-28.667 -14 -60.334 -27.167 -95.001 -39.5s-64.334 -18.5 -89.001 -18.5c-46.667 0 -87.667 13.667 -123 41s-61.333 64.333 -78 111c-26 -46.667 -62.833 -83.667 -110.5 -111
s-98.167 -41 -151.5 -41c-88.667 0 -160 23.333 -214 70s-81 113.667 -81 201c0 94 30 163.667 90 209c49.333 36.667 145 72 287 106c31.333 8 56 15 74 21c30 9.33301 54.333 20 73 32c11.333 10 19.666 21.833 24.999 35.5s8 27.834 8 42.501
c0 49.333 -20.5 91.666 -61.5 126.999s-86.167 53 -135.5 53c-58.667 0 -115.334 -16.333 -170.001 -49c-44.667 -27.333 -71 -53.333 -79 -78h-13l-28 123c46 42.667 104.5 76.667 175.5 102s139.5 38 205.5 38c102 0 188 -20 258 -60c87.333 -49.333 131 -121 131 -215z
M424.003 1458h188l254 -360h-119l-229 200l-229 -200h-115zM727.003 1761l266 -303h-115l-270 164l-70 49c-24 22 -36 46.667 -36 74c0 26 8.5 47.5 25.5 64.5s38.5 25.5 64.5 25.5c30 0 54.5 -5.83301 73.5 -17.5s39.5 -30.5 61.5 -56.5z" />
    <glyph glyph-name="uni1EA8" unicode="&#x1ea8;" horiz-adv-x="1376" 
d="M843 418h-479.001c-27.333 -78 -46.333 -133.333 -57 -166c-40 -113.333 -68.667 -200 -86 -260c-12.667 1.33301 -26.834 3 -42.501 5s-33.167 3 -52.5 3c-16 0 -33.667 -1 -53 -3s-34.333 -3.66699 -45 -5l586 1421c12 -2.66699 24.5 -4 37.5 -4h40.5h28h23
c12 2.66699 20.667 4 26 4l570 -1425c-27.333 0 -48.666 0.666992 -63.999 2c-72 6.66699 -109.333 10 -112 10c-27.333 -0 -48.666 -0.666992 -63.999 -2c-72 -6.66699 -109.667 -10 -113 -10c-47.333 166.667 -95 310 -143 430zM420.999 545h373l-180 475zM584.999 1868
h193l249 -361h-114l-230 205l-233 -205h-111zM1238 2074l2 -17.999l-2 -43c0 -27.333 -19.667 -59.333 -59 -96c-28.667 -27.333 -64.334 -53.333 -107.001 -78c-26 -12.667 -44.333 -26.334 -55 -41.001c-9.33301 -18 -15.666 -29.667 -18.999 -35l-8 -35v-28h-51v83
c0 19.333 31.333 67.333 94 144c30 36.667 45 75 45 115c0 16 -5.33301 36.333 -16 61s-23.667 41 -39 49c-16.667 12.667 -41.334 19 -74.001 19c-5.33301 0 -15.166 -5.83301 -29.499 -17.5s-23.5 -19.5 -27.5 -23.5c16.667 -12.667 28.667 -23.834 36 -33.5
c7.33301 -9.66699 11 -21.834 11 -36.5c0 -24.667 -10.5 -46.167 -31.5 -64.5s-44.5 -27.5 -70.5 -27.5c-24.667 0 -45.167 8.83301 -61.5 26.5s-24.5 39.5 -24.5 65.5l4 22c16 34.667 39 63.667 69 87c46.667 35.333 104.667 53 174 53c75.333 0 135 -17.667 179 -53
c30 -24.667 50.333 -56.334 61 -95z" />
    <glyph glyph-name="uni1EA9" unicode="&#x1ea9;" 
d="M606 328l-0.000976562 200.002c-40.667 -14.667 -73.334 -26 -98.001 -34c-45.333 -16.667 -80.666 -34.834 -105.999 -54.501s-42.666 -42.834 -51.999 -69.501s-14 -60 -14 -100c0 -46 8.5 -84.833 25.5 -116.5s46.5 -47.5 88.5 -47.5c56 0 97 24 123 72
c22 40 33 90 33 150zM888.999 729.002l0.00390625 -557c0 -68 28.667 -102 86 -102l16 4v-45c-28.667 -14 -60.334 -27.167 -95.001 -39.5s-64.334 -18.5 -89.001 -18.5c-46.667 0 -87.667 13.667 -123 41s-61.333 64.333 -78 111c-26 -46.667 -62.833 -83.667 -110.5 -111
s-98.167 -41 -151.5 -41c-88.667 0 -160 23.333 -214 70s-81 113.667 -81 201c0 94 30 163.667 90 209c49.333 36.667 145 72 287 106c31.333 8 56 15 74 21c30 9.33301 54.333 20 73 32c11.333 10 19.666 21.833 24.999 35.5s8 27.834 8 42.501
c0 49.333 -20.5 91.666 -61.5 126.999s-86.167 53 -135.5 53c-58.667 0 -115.334 -16.333 -170.001 -49c-44.667 -27.333 -71 -53.333 -79 -78h-13l-28 123c46 42.667 104.5 76.667 175.5 102s139.5 38 205.5 38c102 0 188 -20 258 -60c87.333 -49.333 131 -121 131 -215z
M424.003 1458h188l254 -360h-119l-229 200l-229 -200h-115zM1053 1716l2.00098 -18l-2 -43c0 -27.333 -20 -59.333 -60 -96c-28.667 -27.333 -64 -53.333 -106 -78c-26 -12.667 -44.333 -26.334 -55 -41.001c-10 -18 -16.333 -29.667 -19 -35l-8 -35v-28h-51v84
c0 18.667 31.333 66.334 94 143.001c30 36.667 45 75 45 115c0 16 -5.5 36.333 -16.5 61s-23.833 41 -38.5 49c-16.667 12.667 -41.334 19 -74.001 19c-5.33301 0 -15.166 -5.83301 -29.499 -17.5s-23.5 -19.5 -27.5 -23.5c16 -12.667 27.833 -23.667 35.5 -33
s11.5 -21.666 11.5 -36.999c0 -24.667 -10.667 -46.167 -32 -64.5s-45 -27.5 -71 -27.5c-24.667 0 -45.167 8.83301 -61.5 26.5s-24.5 39.5 -24.5 65.5l4 23c16.667 34 40 62.667 70 86c46.667 35.333 104.667 53 174 53c75.333 0 134.666 -17.667 177.999 -53
c30 -24.667 50.667 -56.334 62 -95.001z" />
    <glyph glyph-name="uni1EAA" unicode="&#x1eaa;" horiz-adv-x="1376" 
d="M843 418h-479.001c-27.333 -78 -46.333 -133.333 -57 -166c-40 -113.333 -68.667 -200 -86 -260c-12.667 1.33301 -26.834 3 -42.501 5s-33.167 3 -52.5 3c-16 0 -33.667 -1 -53 -3s-34.333 -3.66699 -45 -5l586 1421c12 -2.66699 24.5 -4 37.5 -4h40.5h28h23
c12 2.66699 20.667 4 26 4l570 -1425c-27.333 0 -48.666 0.666992 -63.999 2c-72 6.66699 -109.333 10 -112 10c-27.333 -0 -48.666 -0.666992 -63.999 -2c-72 -6.66699 -109.667 -10 -113 -10c-47.333 166.667 -95 310 -143 430zM420.999 545h373l-180 475zM584.999 1868
h193l249 -361h-114l-230 205l-233 -205h-111zM1055 2158h74.0029c-14.667 -76.667 -36.334 -135.334 -65.001 -176.001c-38.667 -54.667 -89.334 -82 -152.001 -82c-26 0 -50 4 -72 12l-61 30.5c-35.333 17.667 -61.333 30.167 -78 37.5c-32.667 14.667 -58 22 -76 22
c-27.333 0 -47.833 -11.5 -61.5 -34.5s-20.5 -44.167 -20.5 -63.5h-73c0 70.667 24.333 133.334 73 188.001c40 44 88 66 144 66c31.333 0 66.666 -9 105.999 -27c28.667 -14.667 49.334 -25 62.001 -31c20 -12 39 -21.667 57 -29s34.333 -11 49 -11
c23.333 0 43.333 10 60 30c9.33301 12.667 20.666 35.334 33.999 68z" />
    <glyph glyph-name="uni1EAB" unicode="&#x1eab;" 
d="M606 328l-0.000976562 200.002c-40.667 -14.667 -73.334 -26 -98.001 -34c-45.333 -16.667 -80.666 -34.834 -105.999 -54.501s-42.666 -42.834 -51.999 -69.501s-14 -60 -14 -100c0 -46 8.5 -84.833 25.5 -116.5s46.5 -47.5 88.5 -47.5c56 0 97 24 123 72
c22 40 33 90 33 150zM888.999 729.002l0.00390625 -557c0 -68 28.667 -102 86 -102l16 4v-45c-28.667 -14 -60.334 -27.167 -95.001 -39.5s-64.334 -18.5 -89.001 -18.5c-46.667 0 -87.667 13.667 -123 41s-61.333 64.333 -78 111c-26 -46.667 -62.833 -83.667 -110.5 -111
s-98.167 -41 -151.5 -41c-88.667 0 -160 23.333 -214 70s-81 113.667 -81 201c0 94 30 163.667 90 209c49.333 36.667 145 72 287 106c31.333 8 56 15 74 21c30 9.33301 54.333 20 73 32c11.333 10 19.666 21.833 24.999 35.5s8 27.834 8 42.501
c0 49.333 -20.5 91.666 -61.5 126.999s-86.167 53 -135.5 53c-58.667 0 -115.334 -16.333 -170.001 -49c-44.667 -27.333 -71 -53.333 -79 -78h-13l-28 123c46 42.667 104.5 76.667 175.5 102s139.5 38 205.5 38c102 0 188 -20 258 -60c87.333 -49.333 131 -121 131 -215z
M424.003 1458h188l254 -360h-119l-229 200l-229 -200h-115zM864.003 1733l73.999 -0.00195312c-15.333 -76.667 -37.333 -135.334 -66 -176.001c-38 -54.667 -88.333 -82 -151 -82c-26 0 -50 4 -72 12l-61.5 30.5c-35.667 17.667 -61.5 29.834 -77.5 36.501
c-32.667 15.333 -58 23 -76 23c-27.333 0 -47.833 -11.667 -61.5 -35s-20.5 -44.333 -20.5 -63h-74c0 70.667 24.667 133.334 74 188.001c39.333 44 87 66 143 66c32 0 67.667 -9 107 -27c28.667 -15.333 49 -25.666 61 -30.999c20.667 -12 39.834 -21.833 57.501 -29.5
s34.167 -11.5 49.5 -11.5c23.333 0 43 10.333 59 31c10 12 21.667 34.667 35 68z" />
    <glyph glyph-name="uni1EAC" unicode="&#x1eac;" horiz-adv-x="1376" 
d="M843 418h-479.001c-27.333 -78 -46.333 -133.333 -57 -166c-40 -113.333 -68.667 -200 -86 -260c-12.667 1.33301 -26.834 3 -42.501 5s-33.167 3 -52.5 3c-16 0 -33.667 -1 -53 -3s-34.333 -3.66699 -45 -5l586 1421c12 -2.66699 24.5 -4 37.5 -4h40.5h28h23
c12 2.66699 20.667 4 26 4l570 -1425c-27.333 0 -48.666 0.666992 -63.999 2c-72 6.66699 -109.333 10 -112 10c-27.333 -0 -48.666 -0.666992 -63.999 -2c-72 -6.66699 -109.667 -10 -113 -10c-47.333 166.667 -95 310 -143 430zM420.999 545h373l-180 475zM447.999 -279
c0 44 15.667 81.667 47 113s69 47 113 47c43.333 0 81.333 -15.667 114 -47s49 -69 49 -113c0 -44.667 -16 -83 -48 -115s-70.333 -48 -115 -48c-44 0 -81.667 16.333 -113 49s-47 70.667 -47 114zM584.999 1868h193l249 -361h-114l-230 205l-233 -205h-111z" />
    <glyph glyph-name="uni1EAD" unicode="&#x1ead;" 
d="M606 328l-0.000976562 200.002c-40.667 -14.667 -73.334 -26 -98.001 -34c-45.333 -16.667 -80.666 -34.834 -105.999 -54.501s-42.666 -42.834 -51.999 -69.501s-14 -60 -14 -100c0 -46 8.5 -84.833 25.5 -116.5s46.5 -47.5 88.5 -47.5c56 0 97 24 123 72
c22 40 33 90 33 150zM888.999 729.002l0.00390625 -557c0 -68 28.667 -102 86 -102l16 4v-45c-28.667 -14 -60.334 -27.167 -95.001 -39.5s-64.334 -18.5 -89.001 -18.5c-46.667 0 -87.667 13.667 -123 41s-61.333 64.333 -78 111c-26 -46.667 -62.833 -83.667 -110.5 -111
s-98.167 -41 -151.5 -41c-88.667 0 -160 23.333 -214 70s-81 113.667 -81 201c0 94 30 163.667 90 209c49.333 36.667 145 72 287 106c31.333 8 56 15 74 21c30 9.33301 54.333 20 73 32c11.333 10 19.666 21.833 24.999 35.5s8 27.834 8 42.501
c0 49.333 -20.5 91.666 -61.5 126.999s-86.167 53 -135.5 53c-58.667 0 -115.334 -16.333 -170.001 -49c-44.667 -27.333 -71 -53.333 -79 -78h-13l-28 123c46 42.667 104.5 76.667 175.5 102s139.5 38 205.5 38c102 0 188 -20 258 -60c87.333 -49.333 131 -121 131 -215z
M358.003 -278.998c0 44 15.667 81.667 47 113s69 47 113 47s82.333 -15.667 115 -47s49 -69 49 -113c0 -44.667 -16 -83 -48 -115s-70.667 -48 -116 -48c-44 0 -81.667 16.333 -113 49s-47 70.667 -47 114zM424.003 1458h188l254 -360h-119l-229 200l-229 -200h-115z" />
    <glyph glyph-name="uni1EAE" unicode="&#x1eae;" horiz-adv-x="1376" 
d="M843 418h-479.001c-27.333 -78 -46.333 -133.333 -57 -166c-40 -113.333 -68.667 -200 -86 -260c-12.667 1.33301 -26.834 3 -42.501 5s-33.167 3 -52.5 3c-16 0 -33.667 -1 -53 -3s-34.333 -3.66699 -45 -5l586 1421c12 -2.66699 24.5 -4 37.5 -4h40.5h28h23
c12 2.66699 20.667 4 26 4l570 -1425c-27.333 0 -48.666 0.666992 -63.999 2c-72 6.66699 -109.333 10 -112 10c-27.333 -0 -48.666 -0.666992 -63.999 -2c-72 -6.66699 -109.667 -10 -113 -10c-47.333 166.667 -95 310 -143 430zM420.999 545h373l-180 475zM985.999 1761
c-14.667 -77.333 -47.668 -139 -99.001 -185s-118 -69 -200 -69c-86 0 -155.5 22.5 -208.5 67.5s-85.833 107.167 -98.5 186.5h107c17.333 -35.333 42.833 -60.5 76.5 -75.5s74.834 -22.5 123.501 -22.5c46.667 0 85.667 7.83301 117 23.5s55.333 40.5 72 74.5h110z
M937.998 2161c20.667 12.667 46.001 19 76.001 19c27.333 0 49.166 -9 65.499 -27s24.5 -39 24.5 -63c0 -28.667 -11.667 -54 -35 -76c-10.667 -9.33301 -34.667 -25 -72 -47l-266 -168h-115l262 307c26 28.667 46 47 60 55z" />
    <glyph glyph-name="uni1EAF" unicode="&#x1eaf;" 
d="M606 328l-0.000976562 200.002c-40.667 -14.667 -73.334 -26 -98.001 -34c-45.333 -16.667 -80.666 -34.834 -105.999 -54.501s-42.666 -42.834 -51.999 -69.501s-14 -60 -14 -100c0 -46 8.5 -84.833 25.5 -116.5s46.5 -47.5 88.5 -47.5c56 0 97 24 123 72
c22 40 33 90 33 150zM888.999 729.002l0.00390625 -557c0 -68 28.667 -102 86 -102l16 4v-45c-28.667 -14 -60.334 -27.167 -95.001 -39.5s-64.334 -18.5 -89.001 -18.5c-46.667 0 -87.667 13.667 -123 41s-61.333 64.333 -78 111c-26 -46.667 -62.833 -83.667 -110.5 -111
s-98.167 -41 -151.5 -41c-88.667 0 -160 23.333 -214 70s-81 113.667 -81 201c0 94 30 163.667 90 209c49.333 36.667 145 72 287 106c31.333 8 56 15 74 21c30 9.33301 54.333 20 73 32c11.333 10 19.666 21.833 24.999 35.5s8 27.834 8 42.501
c0 49.333 -20.5 91.666 -61.5 126.999s-86.167 53 -135.5 53c-58.667 0 -115.334 -16.333 -170.001 -49c-44.667 -27.333 -71 -53.333 -79 -78h-13l-28 123c46 42.667 104.5 76.667 175.5 102s139.5 38 205.5 38c102 0 188 -20 258 -60c87.333 -49.333 131 -121 131 -215z
M823.003 1331c-14.667 -78 -47.666 -139.833 -98.999 -185.5s-118 -68.5 -200 -68.5c-86 0 -155.667 22.5 -209 67.5s-86 107.167 -98 186.5h106c18 -35.333 43.667 -60.5 77 -75.5s74.666 -22.5 123.999 -22.5c46.667 0 85.667 7.83301 117 23.5s55.333 40.5 72 74.5h110z
M780.504 1701.5c19 11.667 43.5 17.5 73.5 17.5c26 0 47.5 -8.5 64.5 -25.5s25.5 -38.5 25.5 -64.5c0 -27.333 -12.333 -52 -37 -74l-69 -49l-271 -164h-114l266 303c22 26 42.5 44.833 61.5 56.5z" />
    <glyph glyph-name="uni1EB0" unicode="&#x1eb0;" horiz-adv-x="1376" 
d="M843 418h-479.001c-27.333 -78 -46.333 -133.333 -57 -166c-40 -113.333 -68.667 -200 -86 -260c-12.667 1.33301 -26.834 3 -42.501 5s-33.167 3 -52.5 3c-16 0 -33.667 -1 -53 -3s-34.333 -3.66699 -45 -5l586 1421c12 -2.66699 24.5 -4 37.5 -4h40.5h28h23
c12 2.66699 20.667 4 26 4l570 -1425c-27.333 0 -48.666 0.666992 -63.999 2c-72 6.66699 -109.333 10 -112 10c-27.333 -0 -48.666 -0.666992 -63.999 -2c-72 -6.66699 -109.667 -10 -113 -10c-47.333 166.667 -95 310 -143 430zM420.999 545h373l-180 475zM985.999 1761
c-14.667 -77.333 -47.668 -139 -99.001 -185s-118 -69 -200 -69c-86 0 -155.5 22.5 -208.5 67.5s-85.833 107.167 -98.5 186.5h107c17.333 -35.333 42.833 -60.5 76.5 -75.5s74.834 -22.5 123.501 -22.5c46.667 0 85.667 7.83301 117 23.5s55.333 40.5 72 74.5h110z
M491.998 2106l261.999 -307h-115l-266 168c-36.667 22 -60.667 37.667 -72 47c-23.333 22 -35 47.333 -35 76c0 24 8.33301 45 25 63s38.334 27 65.001 27c30.667 0 56 -6.33301 76 -19c14 -8 34 -26.333 60 -55z" />
    <glyph glyph-name="uni1EB1" unicode="&#x1eb1;" 
d="M606 328l-0.000976562 200.002c-40.667 -14.667 -73.334 -26 -98.001 -34c-45.333 -16.667 -80.666 -34.834 -105.999 -54.501s-42.666 -42.834 -51.999 -69.501s-14 -60 -14 -100c0 -46 8.5 -84.833 25.5 -116.5s46.5 -47.5 88.5 -47.5c56 0 97 24 123 72
c22 40 33 90 33 150zM888.999 729.002l0.00390625 -557c0 -68 28.667 -102 86 -102l16 4v-45c-28.667 -14 -60.334 -27.167 -95.001 -39.5s-64.334 -18.5 -89.001 -18.5c-46.667 0 -87.667 13.667 -123 41s-61.333 64.333 -78 111c-26 -46.667 -62.833 -83.667 -110.5 -111
s-98.167 -41 -151.5 -41c-88.667 0 -160 23.333 -214 70s-81 113.667 -81 201c0 94 30 163.667 90 209c49.333 36.667 145 72 287 106c31.333 8 56 15 74 21c30 9.33301 54.333 20 73 32c11.333 10 19.666 21.833 24.999 35.5s8 27.834 8 42.501
c0 49.333 -20.5 91.666 -61.5 126.999s-86.167 53 -135.5 53c-58.667 0 -115.334 -16.333 -170.001 -49c-44.667 -27.333 -71 -53.333 -79 -78h-13l-28 123c46 42.667 104.5 76.667 175.5 102s139.5 38 205.5 38c102 0 188 -20 258 -60c87.333 -49.333 131 -121 131 -215z
M823.003 1331c-14.667 -78 -47.666 -139.833 -98.999 -185.5s-118 -68.5 -200 -68.5c-86 0 -155.667 22.5 -209 67.5s-86 107.167 -98 186.5h106c18 -35.333 43.667 -60.5 77 -75.5s74.666 -22.5 123.999 -22.5c46.667 0 85.667 7.83301 117 23.5s55.333 40.5 72 74.5h110z
M348.004 1645l266 -303h-114l-271 164l-69 49c-24.667 22 -37 46.667 -37 74c0 26 8.5 47.5 25.5 64.5s38.5 25.5 64.5 25.5c30 0 54.5 -5.83301 73.5 -17.5s39.5 -30.5 61.5 -56.5z" />
    <glyph glyph-name="uni1EB2" unicode="&#x1eb2;" horiz-adv-x="1376" 
d="M843 418h-479.001c-27.333 -78 -46.333 -133.333 -57 -166c-40 -113.333 -68.667 -200 -86 -260c-12.667 1.33301 -26.834 3 -42.501 5s-33.167 3 -52.5 3c-16 0 -33.667 -1 -53 -3s-34.333 -3.66699 -45 -5l586 1421c12 -2.66699 24.5 -4 37.5 -4h40.5h28h23
c12 2.66699 20.667 4 26 4l570 -1425c-27.333 0 -48.666 0.666992 -63.999 2c-72 6.66699 -109.333 10 -112 10c-27.333 -0 -48.666 -0.666992 -63.999 -2c-72 -6.66699 -109.667 -10 -113 -10c-47.333 166.667 -95 310 -143 430zM420.999 545h373l-180 475zM985.999 1761
c-14.667 -77.333 -47.668 -139 -99.001 -185s-118 -69 -200 -69c-86 0 -155.5 22.5 -208.5 67.5s-85.833 107.167 -98.5 186.5h107c17.333 -35.333 42.833 -60.5 76.5 -75.5s74.834 -22.5 123.501 -22.5c46.667 0 85.667 7.83301 117 23.5s55.333 40.5 72 74.5h110z
M945.998 2123l2 -17.999l-2 -43c0 -27.333 -19.667 -59.333 -59 -96c-28.667 -27.333 -64.334 -53.333 -107.001 -78c-26 -12.667 -44.333 -26.334 -55 -41.001c-9.33301 -18 -15.666 -29.667 -18.999 -35l-8 -35v-28h-51v83c0 19.333 31.333 67.333 94 144
c30 36.667 45 75 45 115c0 16 -5.33301 36.333 -16 61s-23.667 41 -39 49c-16.667 12.667 -41.334 19 -74.001 19c-5.33301 0 -15.166 -5.83301 -29.499 -17.5s-23.5 -19.5 -27.5 -23.5c16.667 -12.667 28.667 -23.834 36 -33.5c7.33301 -9.66699 11 -21.834 11 -36.5
c0 -24.667 -10.5 -46.167 -31.5 -64.5s-44.5 -27.5 -70.5 -27.5c-24.667 0 -45.167 8.83301 -61.5 26.5s-24.5 39.5 -24.5 65.5l4 22c16 34.667 39 63.667 69 87c46.667 35.333 104.667 53 174 53c75.333 0 135 -17.667 179 -53c30 -24.667 50.333 -56.334 61 -95z" />
    <glyph glyph-name="uni1EB3" unicode="&#x1eb3;" 
d="M606 328l-0.000976562 200.002c-40.667 -14.667 -73.334 -26 -98.001 -34c-45.333 -16.667 -80.666 -34.834 -105.999 -54.501s-42.666 -42.834 -51.999 -69.501s-14 -60 -14 -100c0 -46 8.5 -84.833 25.5 -116.5s46.5 -47.5 88.5 -47.5c56 0 97 24 123 72
c22 40 33 90 33 150zM888.999 729.002l0.00390625 -557c0 -68 28.667 -102 86 -102l16 4v-45c-28.667 -14 -60.334 -27.167 -95.001 -39.5s-64.334 -18.5 -89.001 -18.5c-46.667 0 -87.667 13.667 -123 41s-61.333 64.333 -78 111c-26 -46.667 -62.833 -83.667 -110.5 -111
s-98.167 -41 -151.5 -41c-88.667 0 -160 23.333 -214 70s-81 113.667 -81 201c0 94 30 163.667 90 209c49.333 36.667 145 72 287 106c31.333 8 56 15 74 21c30 9.33301 54.333 20 73 32c11.333 10 19.666 21.833 24.999 35.5s8 27.834 8 42.501
c0 49.333 -20.5 91.666 -61.5 126.999s-86.167 53 -135.5 53c-58.667 0 -115.334 -16.333 -170.001 -49c-44.667 -27.333 -71 -53.333 -79 -78h-13l-28 123c46 42.667 104.5 76.667 175.5 102s139.5 38 205.5 38c102 0 188 -20 258 -60c87.333 -49.333 131 -121 131 -215z
M823.003 1331c-14.667 -78 -47.666 -139.833 -98.999 -185.5s-118 -68.5 -200 -68.5c-86 0 -155.667 22.5 -209 67.5s-86 107.167 -98 186.5h106c18 -35.333 43.667 -60.5 77 -75.5s74.666 -22.5 123.999 -22.5c46.667 0 85.667 7.83301 117 23.5s55.333 40.5 72 74.5h110z
M773.004 1697l2.00098 -18l-2 -43c0 -27.333 -20 -59.333 -60 -96c-28.667 -27.333 -64 -53.333 -106 -78c-26 -12.667 -44.333 -26.334 -55 -41.001c-10 -18 -16.333 -29.667 -19 -35l-8 -35v-28h-51v84c0 18.667 31.333 66.334 94 143.001c30 36.667 45 75 45 115
c0 16 -5.5 36.333 -16.5 61s-23.833 41 -38.5 49c-16.667 12.667 -41.334 19 -74.001 19c-5.33301 0 -15.166 -5.83301 -29.499 -17.5s-23.5 -19.5 -27.5 -23.5c16 -12.667 27.833 -23.667 35.5 -33s11.5 -21.666 11.5 -36.999c0 -24.667 -10.667 -46.167 -32 -64.5
s-45 -27.5 -71 -27.5c-24.667 0 -45.167 8.83301 -61.5 26.5s-24.5 39.5 -24.5 65.5l4 23c16.667 34 40 62.667 70 86c46.667 35.333 104.667 53 174 53c75.333 0 134.666 -17.667 177.999 -53c30 -24.667 50.667 -56.334 62 -95.001z" />
    <glyph glyph-name="uni1EB4" unicode="&#x1eb4;" horiz-adv-x="1376" 
d="M843 418h-479.001c-27.333 -78 -46.333 -133.333 -57 -166c-40 -113.333 -68.667 -200 -86 -260c-12.667 1.33301 -26.834 3 -42.501 5s-33.167 3 -52.5 3c-16 0 -33.667 -1 -53 -3s-34.333 -3.66699 -45 -5l586 1421c12 -2.66699 24.5 -4 37.5 -4h40.5h28h23
c12 2.66699 20.667 4 26 4l570 -1425c-27.333 0 -48.666 0.666992 -63.999 2c-72 6.66699 -109.333 10 -112 10c-27.333 -0 -48.666 -0.666992 -63.999 -2c-72 -6.66699 -109.667 -10 -113 -10c-47.333 166.667 -95 310 -143 430zM420.999 545h373l-180 475zM985.999 1761
c-14.667 -77.333 -47.668 -139 -99.001 -185s-118 -69 -200 -69c-86 0 -155.5 22.5 -208.5 67.5s-85.833 107.167 -98.5 186.5h107c17.333 -35.333 42.833 -60.5 76.5 -75.5s74.834 -22.5 123.501 -22.5c46.667 0 85.667 7.83301 117 23.5s55.333 40.5 72 74.5h110z
M1039 2094l73.999 -0.00292969c-15.333 -76.667 -37.333 -135.667 -66 -177c-38 -54.667 -88.333 -82 -151 -82c-26 0 -50 4.33301 -72 13l-61.5 30.5c-35.667 17.667 -61.5 29.834 -77.5 36.501c-32.667 15.333 -58 23 -76 23c-27.333 0 -47.833 -11.667 -61.5 -35
s-20.5 -44.333 -20.5 -63h-74c0 70.667 24.667 133.334 74 188.001c39.333 44 87 66 143 66c32 0 67.667 -9 107 -27c28.667 -15.333 49 -25.666 61 -30.999c20.667 -12 39.834 -21.833 57.501 -29.5s34.167 -11.5 49.5 -11.5c23.333 0 43 10.333 59 31
c10 12 21.667 34.667 35 68z" />
    <glyph glyph-name="uni1EB5" unicode="&#x1eb5;" 
d="M606 328l-0.000976562 200.002c-40.667 -14.667 -73.334 -26 -98.001 -34c-45.333 -16.667 -80.666 -34.834 -105.999 -54.501s-42.666 -42.834 -51.999 -69.501s-14 -60 -14 -100c0 -46 8.5 -84.833 25.5 -116.5s46.5 -47.5 88.5 -47.5c56 0 97 24 123 72
c22 40 33 90 33 150zM888.999 729.002l0.00390625 -557c0 -68 28.667 -102 86 -102l16 4v-45c-28.667 -14 -60.334 -27.167 -95.001 -39.5s-64.334 -18.5 -89.001 -18.5c-46.667 0 -87.667 13.667 -123 41s-61.333 64.333 -78 111c-26 -46.667 -62.833 -83.667 -110.5 -111
s-98.167 -41 -151.5 -41c-88.667 0 -160 23.333 -214 70s-81 113.667 -81 201c0 94 30 163.667 90 209c49.333 36.667 145 72 287 106c31.333 8 56 15 74 21c30 9.33301 54.333 20 73 32c11.333 10 19.666 21.833 24.999 35.5s8 27.834 8 42.501
c0 49.333 -20.5 91.666 -61.5 126.999s-86.167 53 -135.5 53c-58.667 0 -115.334 -16.333 -170.001 -49c-44.667 -27.333 -71 -53.333 -79 -78h-13l-28 123c46 42.667 104.5 76.667 175.5 102s139.5 38 205.5 38c102 0 188 -20 258 -60c87.333 -49.333 131 -121 131 -215z
M823.003 1331c-14.667 -78 -47.666 -139.833 -98.999 -185.5s-118 -68.5 -200 -68.5c-86 0 -155.667 22.5 -209 67.5s-86 107.167 -98 186.5h106c18 -35.333 43.667 -60.5 77 -75.5s74.666 -22.5 123.999 -22.5c46.667 0 85.667 7.83301 117 23.5s55.333 40.5 72 74.5h110z
M874.004 1655l73.999 -0.00195312c-15.333 -76.667 -37.333 -135.334 -66 -176.001c-38 -54.667 -88.333 -82 -151 -82c-26 0 -50 4 -72 12l-61.5 30.5c-35.667 17.667 -61.5 29.834 -77.5 36.501c-32.667 15.333 -58 23 -76 23c-27.333 0 -47.833 -11.667 -61.5 -35
s-20.5 -44.333 -20.5 -63h-74c0 70.667 24.667 133.334 74 188.001c39.333 44 87 66 143 66c32 0 67.667 -9 107 -27c28.667 -15.333 49 -25.666 61 -30.999c20.667 -12 39.834 -21.833 57.501 -29.5s34.167 -11.5 49.5 -11.5c23.333 0 43 10.333 59 31
c10 12 21.667 34.667 35 68z" />
    <glyph glyph-name="uni1EB6" unicode="&#x1eb6;" horiz-adv-x="1376" 
d="M843 418h-479.001c-27.333 -78 -46.333 -133.333 -57 -166c-40 -113.333 -68.667 -200 -86 -260c-12.667 1.33301 -26.834 3 -42.501 5s-33.167 3 -52.5 3c-16 0 -33.667 -1 -53 -3s-34.333 -3.66699 -45 -5l586 1421c12 -2.66699 24.5 -4 37.5 -4h40.5h28h23
c12 2.66699 20.667 4 26 4l570 -1425c-27.333 0 -48.666 0.666992 -63.999 2c-72 6.66699 -109.333 10 -112 10c-27.333 -0 -48.666 -0.666992 -63.999 -2c-72 -6.66699 -109.667 -10 -113 -10c-47.333 166.667 -95 310 -143 430zM420.999 545h373l-180 475zM985.999 1761
c-14.667 -77.333 -47.668 -139 -99.001 -185s-118 -69 -200 -69c-86 0 -155.5 22.5 -208.5 67.5s-85.833 107.167 -98.5 186.5h107c17.333 -35.333 42.833 -60.5 76.5 -75.5s74.834 -22.5 123.501 -22.5c46.667 0 85.667 7.83301 117 23.5s55.333 40.5 72 74.5h110z
M447.998 -279c0 44 15.667 81.667 47 113s69 47 113 47c43.333 0 81.333 -15.667 114 -47s49 -69 49 -113c0 -44.667 -16 -83 -48 -115s-70.333 -48 -115 -48c-44 0 -81.667 16.333 -113 49s-47 70.667 -47 114z" />
    <glyph glyph-name="uni1EB7" unicode="&#x1eb7;" 
d="M606 328l-0.000976562 200.002c-40.667 -14.667 -73.334 -26 -98.001 -34c-45.333 -16.667 -80.666 -34.834 -105.999 -54.501s-42.666 -42.834 -51.999 -69.501s-14 -60 -14 -100c0 -46 8.5 -84.833 25.5 -116.5s46.5 -47.5 88.5 -47.5c56 0 97 24 123 72
c22 40 33 90 33 150zM888.999 729.002l0.00390625 -557c0 -68 28.667 -102 86 -102l16 4v-45c-28.667 -14 -60.334 -27.167 -95.001 -39.5s-64.334 -18.5 -89.001 -18.5c-46.667 0 -87.667 13.667 -123 41s-61.333 64.333 -78 111c-26 -46.667 -62.833 -83.667 -110.5 -111
s-98.167 -41 -151.5 -41c-88.667 0 -160 23.333 -214 70s-81 113.667 -81 201c0 94 30 163.667 90 209c49.333 36.667 145 72 287 106c31.333 8 56 15 74 21c30 9.33301 54.333 20 73 32c11.333 10 19.666 21.833 24.999 35.5s8 27.834 8 42.501
c0 49.333 -20.5 91.666 -61.5 126.999s-86.167 53 -135.5 53c-58.667 0 -115.334 -16.333 -170.001 -49c-44.667 -27.333 -71 -53.333 -79 -78h-13l-28 123c46 42.667 104.5 76.667 175.5 102s139.5 38 205.5 38c102 0 188 -20 258 -60c87.333 -49.333 131 -121 131 -215z
M823.003 1331c-14.667 -78 -47.666 -139.833 -98.999 -185.5s-118 -68.5 -200 -68.5c-86 0 -155.667 22.5 -209 67.5s-86 107.167 -98 186.5h106c18 -35.333 43.667 -60.5 77 -75.5s74.666 -22.5 123.999 -22.5c46.667 0 85.667 7.83301 117 23.5s55.333 40.5 72 74.5h110z
M358.004 -278.998c0 44 15.667 81.667 47 113s69 47 113 47s82.333 -15.667 115 -47s49 -69 49 -113c0 -44.667 -16 -83 -48 -115s-70.667 -48 -116 -48c-44 0 -81.667 16.333 -113 49s-47 70.667 -47 114z" />
    <glyph glyph-name="uni1EB8" unicode="&#x1eb8;" horiz-adv-x="1269" 
d="M159 1397l942.001 -0.000976562c-2.66699 -15.333 -5.33398 -33.166 -8.00098 -53.499s-4 -32.5 -4 -36.5l12 -86c-69.333 6.66699 -156.333 13 -261 19s-204.667 9 -300 9h-74v-442h328c64 0 112.333 1 145 3s84 7.66699 154 17l-16 -90
c0 -10.667 1.66699 -24.167 5 -40.5s7 -31.5 11 -45.5c-35.333 2.66699 -84.5 6.16699 -147.5 10.5s-113.5 6.5 -151.5 6.5h-328v-521c118.667 0 235 2.83301 349 8.5s209.333 12.5 286 20.5l-12 -86c0 -12 1.33301 -26.167 4 -42.5l8 -47.5h-942v1397zM448.001 -279.001
c0 44 15.667 81.667 47 113s69 47 113 47c43.333 0 81.333 -15.667 114 -47s49 -69 49 -113c0 -44.667 -16 -83 -48 -115s-70.333 -48 -115 -48c-44 0 -81.667 16.333 -113 49s-47 70.667 -47 114z" />
    <glyph glyph-name="uni1EB9" unicode="&#x1eb9;" 
d="M376 586l303 -0.000976562c0 83.333 -6.66699 150 -20 200c-22 82 -60.333 123 -115 123c-66.667 0 -113.667 -40.333 -141 -121c-18 -51.333 -27 -118.666 -27 -201.999zM962 486.999h-586.001l-4 -32c0 -106.667 22 -189.334 66 -248.001
c48.667 -67.333 122.334 -101 221.001 -101c42 0 83.833 8 125.5 24s80.167 38.333 115.5 67l25 -17l-45 -114c-90 -63.333 -188.333 -95 -295 -95c-168 0 -295.333 47.5 -382 142.5s-130 227.833 -130 398.5c0 146 41.667 264.5 125 355.5s197.333 136.5 342 136.5
c143.333 0 251.333 -43.333 324 -130c65.333 -77.333 98 -185.666 98 -324.999v-62zM357.999 -279.001c0 44 15.667 81.667 47 113s68.666 47 111.999 47c44 0 82.333 -15.667 115 -47s49 -69 49 -113c0 -44.667 -16 -83 -48 -115s-70.667 -48 -116 -48
c-43.333 0 -80.666 16.333 -111.999 49s-47 70.667 -47 114z" />
    <glyph glyph-name="uni1EBA" unicode="&#x1eba;" horiz-adv-x="1269" 
d="M159 1397l942.001 -0.000976562c-2.66699 -15.333 -5.33398 -33.166 -8.00098 -53.499s-4 -32.5 -4 -36.5l12 -86c-69.333 6.66699 -156.333 13 -261 19s-204.667 9 -300 9h-74v-442h328c64 0 112.333 1 145 3s84 7.66699 154 17l-16 -90
c0 -10.667 1.66699 -24.167 5 -40.5s7 -31.5 11 -45.5c-35.333 2.66699 -84.5 6.16699 -147.5 10.5s-113.5 6.5 -151.5 6.5h-328v-521c118.667 0 235 2.83301 349 8.5s209.333 12.5 286 20.5l-12 -86c0 -12 1.33301 -26.167 4 -42.5l8 -47.5h-942v1397zM873.001 1890
l2.00098 -17.9961l-2 -43c0 -27.333 -20 -59.333 -60 -96c-28.667 -27.333 -64 -53.333 -106 -78c-26 -12.667 -44.333 -26.334 -55 -41.001c-10 -18 -16.333 -29.667 -19 -35l-8 -35v-28h-51v83c0 19.333 31.333 67.333 94 144c30 36.667 45 75 45 115
c0 16 -5.5 36.333 -16.5 61s-23.833 41 -38.5 49c-16.667 12.667 -41.334 19 -74.001 19c-5.33301 0 -15.166 -5.83301 -29.499 -17.5s-23.5 -19.5 -27.5 -23.5c16 -12.667 27.833 -23.834 35.5 -33.501s11.5 -21.834 11.5 -36.501c0 -24.667 -10.667 -46.167 -32 -64.5
s-45 -27.5 -71 -27.5c-24.667 0 -45.167 8.83301 -61.5 26.5s-24.5 39.5 -24.5 65.5l4 22c16.667 34.667 40 63.667 70 87c46.667 35.333 104.667 53 174 53c75.333 0 134.666 -17.667 177.999 -53c30 -24.667 50.667 -56.334 62 -95.001z" />
    <glyph glyph-name="uni1EBB" unicode="&#x1ebb;" 
d="M376 586l303 -0.000976562c0 83.333 -6.66699 150 -20 200c-22 82 -60.333 123 -115 123c-66.667 0 -113.667 -40.333 -141 -121c-18 -51.333 -27 -118.666 -27 -201.999zM962 486.999h-586.001l-4 -32c0 -106.667 22 -189.334 66 -248.001
c48.667 -67.333 122.334 -101 221.001 -101c42 0 83.833 8 125.5 24s80.167 38.333 115.5 67l25 -17l-45 -114c-90 -63.333 -188.333 -95 -295 -95c-168 0 -295.333 47.5 -382 142.5s-130 227.833 -130 398.5c0 146 41.667 264.5 125 355.5s197.333 136.5 342 136.5
c143.333 0 251.333 -43.333 324 -130c65.333 -77.333 98 -185.666 98 -324.999v-62zM809.999 1464l2 -18l-2 -43c0 -27.333 -19.667 -59.333 -59 -96c-28.667 -27.333 -64.334 -53.333 -107.001 -78c-26 -12.667 -44.333 -26.334 -55 -41.001l-18 -35l-9 -35v-28h-51v84
c0 18.667 31.333 66.334 94 143.001c30 36.667 45 75 45 115c0 16 -5.33301 36.333 -16 61s-23.667 41 -39 49c-16 12.667 -40.667 19 -74 19c-5.33301 0 -15.166 -5.83301 -29.499 -17.5s-23.5 -19.5 -27.5 -23.5c16.667 -12.667 28.667 -23.667 36 -33
s11 -21.666 11 -36.999c0 -24.667 -10.5 -46.167 -31.5 -64.5s-44.5 -27.5 -70.5 -27.5c-24.667 0 -45.167 8.83301 -61.5 26.5s-24.5 39.5 -24.5 65.5l4 23c16 34 39 62.667 69 86c46.667 35.333 105 53 175 53c74.667 0 134 -17.667 178 -53
c30 -24.667 50.333 -56.334 61 -95.001z" />
    <glyph glyph-name="uni1EBC" unicode="&#x1ebc;" horiz-adv-x="1269" 
d="M159 1397l942.001 -0.000976562c-2.66699 -15.333 -5.33398 -33.166 -8.00098 -53.499s-4 -32.5 -4 -36.5l12 -86c-69.333 6.66699 -156.333 13 -261 19s-204.667 9 -300 9h-74v-442h328c64 0 112.333 1 145 3s84 7.66699 154 17l-16 -90
c0 -10.667 1.66699 -24.167 5 -40.5s7 -31.5 11 -45.5c-35.333 2.66699 -84.5 6.16699 -147.5 10.5s-113.5 6.5 -151.5 6.5h-328v-521c118.667 0 235 2.83301 349 8.5s209.333 12.5 286 20.5l-12 -86c0 -12 1.33301 -26.167 4 -42.5l8 -47.5h-942v1397zM886.001 1827
l73.999 -0.000976562c-15.333 -76.667 -37.333 -135.334 -66 -176.001c-38 -54.667 -88.333 -82 -151 -82c-26 0 -50 4 -72 12l-61.5 30.5c-35.667 17.667 -61.5 30.167 -77.5 37.5c-32.667 14.667 -58 22 -76 22c-27.333 0 -47.833 -11.5 -61.5 -34.5
s-20.5 -44.167 -20.5 -63.5h-74c0 70.667 24.667 133.334 74 188.001c39.333 44 87 66 143 66c32 0 67.667 -9 107 -27l61 -31c20.667 -12 39.834 -21.667 57.501 -29s34.167 -11 49.5 -11c23.333 0 43 10 59 30c10 12.667 21.667 35.334 35 68.001z" />
    <glyph glyph-name="uni1EBD" unicode="&#x1ebd;" 
d="M376 586l303 -0.000976562c0 83.333 -6.66699 150 -20 200c-22 82 -60.333 123 -115 123c-66.667 0 -113.667 -40.333 -141 -121c-18 -51.333 -27 -118.666 -27 -201.999zM962 486.999h-586.001l-4 -32c0 -106.667 22 -189.334 66 -248.001
c48.667 -67.333 122.334 -101 221.001 -101c42 0 83.833 8 125.5 24s80.167 38.333 115.5 67l25 -17l-45 -114c-90 -63.333 -188.333 -95 -295 -95c-168 0 -295.333 47.5 -382 142.5s-130 227.833 -130 398.5c0 146 41.667 264.5 125 355.5s197.333 136.5 342 136.5
c143.333 0 251.333 -43.333 324 -130c65.333 -77.333 98 -185.666 98 -324.999v-62zM772.999 1393l74.0029 -0.00195312c-14.667 -76.667 -36.334 -135.334 -65.001 -176.001c-38.667 -54.667 -89.334 -82 -152.001 -82c-26 0 -50 4 -72 12l-61 30.5
c-35.333 17.667 -61.333 29.834 -78 36.501c-32.667 15.333 -58 23 -76 23c-27.333 0 -47.833 -11.667 -61.5 -35s-20.5 -44.333 -20.5 -63h-73c0 70.667 24.333 133.334 73 188.001c40 44 88 66 144 66c31.333 0 66.666 -9 105.999 -27
c28.667 -15.333 49.334 -25.666 62.001 -30.999c20 -12 39 -21.833 57 -29.5s34.333 -11.5 49 -11.5c23.333 0 43.333 10.333 60 31c9.33301 12 20.666 34.667 33.999 68z" />
    <glyph glyph-name="uni1EBE" unicode="&#x1ebe;" horiz-adv-x="1269" 
d="M159 1397l942.001 -0.000976562c-2.66699 -15.333 -5.33398 -33.166 -8.00098 -53.499s-4 -32.5 -4 -36.5l12 -86c-69.333 6.66699 -156.333 13 -261 19s-204.667 9 -300 9h-74v-442h328c64 0 112.333 1 145 3s84 7.66699 154 17l-16 -90
c0 -10.667 1.66699 -24.167 5 -40.5s7 -31.5 11 -45.5c-35.333 2.66699 -84.5 6.16699 -147.5 10.5s-113.5 6.5 -151.5 6.5h-328v-521c118.667 0 235 2.83301 349 8.5s209.333 12.5 286 20.5l-12 -86c0 -12 1.33301 -26.167 4 -42.5l8 -47.5h-942v1397zM1179 2200
c20.667 12.667 46.001 19 76.001 19c27.333 0 49.166 -9 65.499 -27s24.5 -39 24.5 -63c0 -28.667 -11.667 -54 -35 -76c-10.667 -9.33301 -34.667 -25 -72 -47l-266 -168h-115l262 307c26 28.667 46 47 60 55zM532.002 1868h192l250 -361h-115l-229 205l-233 -205h-111z
" />
    <glyph glyph-name="uni1EBF" unicode="&#x1ebf;" 
d="M376 586l303 -0.000976562c0 83.333 -6.66699 150 -20 200c-22 82 -60.333 123 -115 123c-66.667 0 -113.667 -40.333 -141 -121c-18 -51.333 -27 -118.666 -27 -201.999zM962 486.999h-586.001l-4 -32c0 -106.667 22 -189.334 66 -248.001
c48.667 -67.333 122.334 -101 221.001 -101c42 0 83.833 8 125.5 24s80.167 38.333 115.5 67l25 -17l-45 -114c-90 -63.333 -188.333 -95 -295 -95c-168 0 -295.333 47.5 -382 142.5s-130 227.833 -130 398.5c0 146 41.667 264.5 125 355.5s197.333 136.5 342 136.5
c143.333 0 251.333 -43.333 324 -130c65.333 -77.333 98 -185.666 98 -324.999v-62zM440.999 1458h189l254 -360h-119l-230 200l-229 -200h-115zM1081.5 1749.5c19 11.667 43.5 17.5 73.5 17.5c26 0 47.667 -8.5 65 -25.5s26 -38.5 26 -64.5c0 -27.333 -12.333 -52 -37 -74
l-70 -49l-270 -164h-115l266 303c22 26 42.5 44.833 61.5 56.5z" />
    <glyph glyph-name="uni1EC0" unicode="&#x1ec0;" horiz-adv-x="1269" 
d="M159 1397l942.001 -0.000976562c-2.66699 -15.333 -5.33398 -33.166 -8.00098 -53.499s-4 -32.5 -4 -36.5l12 -86c-69.333 6.66699 -156.333 13 -261 19s-204.667 9 -300 9h-74v-442h328c64 0 112.333 1 145 3s84 7.66699 154 17l-16 -90
c0 -10.667 1.66699 -24.167 5 -40.5s7 -31.5 11 -45.5c-35.333 2.66699 -84.5 6.16699 -147.5 10.5s-113.5 6.5 -151.5 6.5h-328v-521c118.667 0 235 2.83301 349 8.5s209.333 12.5 286 20.5l-12 -86c0 -12 1.33301 -26.167 4 -42.5l8 -47.5h-942v1397zM792.001 2155
l262.001 -307h-115l-266 168c-37.333 22 -61.333 37.667 -72 47c-23.333 22 -35 47.333 -35 76c0 24 8.16699 45 24.5 63s38.166 27 65.499 27c30 0 55.333 -6.33301 76 -19c14 -8 34 -26.333 60 -55zM532.002 1868h192l250 -361h-115l-229 205l-233 -205h-111z" />
    <glyph glyph-name="uni1EC1" unicode="&#x1ec1;" 
d="M376 586l303 -0.000976562c0 83.333 -6.66699 150 -20 200c-22 82 -60.333 123 -115 123c-66.667 0 -113.667 -40.333 -141 -121c-18 -51.333 -27 -118.666 -27 -201.999zM962 486.999h-586.001l-4 -32c0 -106.667 22 -189.334 66 -248.001
c48.667 -67.333 122.334 -101 221.001 -101c42 0 83.833 8 125.5 24s80.167 38.333 115.5 67l25 -17l-45 -114c-90 -63.333 -188.333 -95 -295 -95c-168 0 -295.333 47.5 -382 142.5s-130 227.833 -130 398.5c0 146 41.667 264.5 125 355.5s197.333 136.5 342 136.5
c143.333 0 251.333 -43.333 324 -130c65.333 -77.333 98 -185.666 98 -324.999v-62zM725.999 1761l267.001 -303h-115l-270 164l-70 49c-24.667 22 -37 46.667 -37 74c0 26 8.5 47.5 25.5 64.5s38.5 25.5 64.5 25.5c30 0 54.667 -5.83301 74 -17.5
s39.666 -30.5 60.999 -56.5zM441 1458h189l254 -360h-119l-230 200l-229 -200h-115z" />
    <glyph glyph-name="uni1EC2" unicode="&#x1ec2;" horiz-adv-x="1269" 
d="M159 1397l942.001 -0.000976562c-2.66699 -15.333 -5.33398 -33.166 -8.00098 -53.499s-4 -32.5 -4 -36.5l12 -86c-69.333 6.66699 -156.333 13 -261 19s-204.667 9 -300 9h-74v-442h328c64 0 112.333 1 145 3s84 7.66699 154 17l-16 -90
c0 -10.667 1.66699 -24.167 5 -40.5s7 -31.5 11 -45.5c-35.333 2.66699 -84.5 6.16699 -147.5 10.5s-113.5 6.5 -151.5 6.5h-328v-521c118.667 0 235 2.83301 349 8.5s209.333 12.5 286 20.5l-12 -86c0 -12 1.33301 -26.167 4 -42.5l8 -47.5h-942v1397zM1178 2074l2 -17.998
l-2 -43c0 -27.333 -19.667 -59.333 -59 -96c-28.667 -27.333 -64.334 -53.333 -107.001 -78c-26 -12.667 -44.333 -26.334 -55 -41.001c-10 -18 -16.333 -29.667 -19 -35l-8 -35v-28h-51v83c0 19.333 31.333 67.333 94 144c30 36.667 45 75 45 115
c0 16 -5.5 36.333 -16.5 61s-23.833 41 -38.5 49c-16.667 12.667 -41.334 19 -74.001 19c-5.33301 0 -15.166 -5.83301 -29.499 -17.5s-23.5 -19.5 -27.5 -23.5c16 -12.667 27.833 -23.834 35.5 -33.5c7.66699 -9.66699 11.5 -21.834 11.5 -36.5
c0 -24.667 -10.667 -46.167 -32 -64.5s-44.666 -27.5 -69.999 -27.5c-24.667 0 -45.167 8.83301 -61.5 26.5s-24.5 39.5 -24.5 65.5l4 22c16 34.667 39 63.667 69 87c46.667 35.333 104.667 53 174 53c75.333 0 135 -17.667 179 -53c30 -24.667 50.333 -56.334 61 -95.001z
M532.001 1868h192l250 -361h-115l-229 205l-233 -205h-111z" />
    <glyph glyph-name="uni1EC3" unicode="&#x1ec3;" 
d="M376 586l303 -0.000976562c0 83.333 -6.66699 150 -20 200c-22 82 -60.333 123 -115 123c-66.667 0 -113.667 -40.333 -141 -121c-18 -51.333 -27 -118.666 -27 -201.999zM962 486.999h-586.001l-4 -32c0 -106.667 22 -189.334 66 -248.001
c48.667 -67.333 122.334 -101 221.001 -101c42 0 83.833 8 125.5 24s80.167 38.333 115.5 67l25 -17l-45 -114c-90 -63.333 -188.333 -95 -295 -95c-168 0 -295.333 47.5 -382 142.5s-130 227.833 -130 398.5c0 146 41.667 264.5 125 355.5s197.333 136.5 342 136.5
c143.333 0 251.333 -43.333 324 -130c65.333 -77.333 98 -185.666 98 -324.999v-62zM440.999 1458h189l254 -360h-119l-230 200l-229 -200h-115zM1072 1716l2 -18l-2 -43c0 -27.333 -19.667 -59.333 -59 -96c-28.667 -27.333 -64.334 -53.333 -107.001 -78
c-26 -12.667 -44.333 -26.334 -55 -41.001l-18 -35l-9 -35v-28h-51v84c0 18.667 31.333 66.334 94 143.001c30 36.667 45 75 45 115c0 16 -5.33301 36.333 -16 61s-23.667 41 -39 49c-16 12.667 -40.667 19 -74 19c-5.33301 0 -15.166 -5.83301 -29.499 -17.5
s-23.5 -19.5 -27.5 -23.5c16.667 -12.667 28.667 -23.667 36 -33s11 -21.666 11 -36.999c0 -24.667 -10.5 -46.167 -31.5 -64.5s-44.5 -27.5 -70.5 -27.5c-24.667 0 -45.167 8.83301 -61.5 26.5s-24.5 39.5 -24.5 65.5l4 23c16 34 39 62.667 69 86
c46.667 35.333 105 53 175 53c74.667 0 134 -17.667 178 -53c30 -24.667 50.333 -56.334 61 -95.001z" />
    <glyph glyph-name="uni1EC4" unicode="&#x1ec4;" horiz-adv-x="1269" 
d="M159 1397l942.001 -0.000976562c-2.66699 -15.333 -5.33398 -33.166 -8.00098 -53.499s-4 -32.5 -4 -36.5l12 -86c-69.333 6.66699 -156.333 13 -261 19s-204.667 9 -300 9h-74v-442h328c64 0 112.333 1 145 3s84 7.66699 154 17l-16 -90
c0 -10.667 1.66699 -24.167 5 -40.5s7 -31.5 11 -45.5c-35.333 2.66699 -84.5 6.16699 -147.5 10.5s-113.5 6.5 -151.5 6.5h-328v-521c118.667 0 235 2.83301 349 8.5s209.333 12.5 286 20.5l-12 -86c0 -12 1.33301 -26.167 4 -42.5l8 -47.5h-942v1397zM1015 2158
l74 -0.000976562c-15.333 -76.667 -37.333 -135.334 -66 -176.001c-38 -54.667 -88.333 -82 -151 -82c-26 0 -50 4 -72 12l-61 30.5c-35.333 17.667 -61.333 30.167 -78 37.5c-32.667 14.667 -58 22 -76 22c-27.333 0 -47.833 -11.5 -61.5 -34.5s-20.5 -44.167 -20.5 -63.5
h-73c0 70.667 24.333 133.334 73 188.001c40 44 88 66 144 66c31.333 0 66.666 -9 105.999 -27c28.667 -14.667 49.334 -25 62.001 -31c20 -12 39 -21.667 57 -29s34.333 -11 49 -11c23.333 0 43 10 59 30c10 12.667 21.667 35.334 35 68.001zM532.001 1868h192l250 -361
h-115l-229 205l-233 -205h-111z" />
    <glyph glyph-name="uni1EC5" unicode="&#x1ec5;" 
d="M376 586l303 -0.000976562c0 83.333 -6.66699 150 -20 200c-22 82 -60.333 123 -115 123c-66.667 0 -113.667 -40.333 -141 -121c-18 -51.333 -27 -118.666 -27 -201.999zM962 486.999h-586.001l-4 -32c0 -106.667 22 -189.334 66 -248.001
c48.667 -67.333 122.334 -101 221.001 -101c42 0 83.833 8 125.5 24s80.167 38.333 115.5 67l25 -17l-45 -114c-90 -63.333 -188.333 -95 -295 -95c-168 0 -295.333 47.5 -382 142.5s-130 227.833 -130 398.5c0 146 41.667 264.5 125 355.5s197.333 136.5 342 136.5
c143.333 0 251.333 -43.333 324 -130c65.333 -77.333 98 -185.666 98 -324.999v-62zM440.999 1458h189l254 -360h-119l-230 200l-229 -200h-115zM872.999 1733l74.0029 -0.00195312c-14.667 -76.667 -36.334 -135.334 -65.001 -176.001
c-38.667 -54.667 -89.334 -82 -152.001 -82c-26 0 -50 4 -72 12l-61 30.5c-35.333 17.667 -61.333 29.834 -78 36.501c-32.667 15.333 -58 23 -76 23c-27.333 0 -47.833 -11.667 -61.5 -35s-20.5 -44.333 -20.5 -63h-73c0 70.667 24.333 133.334 73 188.001
c40 44 88 66 144 66c31.333 0 66.666 -9 105.999 -27c28.667 -15.333 49.334 -25.666 62.001 -30.999c20 -12 39 -21.833 57 -29.5s34.333 -11.5 49 -11.5c23.333 0 43.333 10.333 60 31c9.33301 12 20.666 34.667 33.999 68z" />
    <glyph glyph-name="uni1EC6" unicode="&#x1ec6;" horiz-adv-x="1269" 
d="M159 1397l942.001 -0.000976562c-2.66699 -15.333 -5.33398 -33.166 -8.00098 -53.499s-4 -32.5 -4 -36.5l12 -86c-69.333 6.66699 -156.333 13 -261 19s-204.667 9 -300 9h-74v-442h328c64 0 112.333 1 145 3s84 7.66699 154 17l-16 -90
c0 -10.667 1.66699 -24.167 5 -40.5s7 -31.5 11 -45.5c-35.333 2.66699 -84.5 6.16699 -147.5 10.5s-113.5 6.5 -151.5 6.5h-328v-521c118.667 0 235 2.83301 349 8.5s209.333 12.5 286 20.5l-12 -86c0 -12 1.33301 -26.167 4 -42.5l8 -47.5h-942v1397zM532.001 1868h192
l250 -361h-115l-229 205l-233 -205h-111zM448.001 -279.001c0 44 15.667 81.667 47 113s69 47 113 47c43.333 0 81.333 -15.667 114 -47s49 -69 49 -113c0 -44.667 -16 -83 -48 -115s-70.333 -48 -115 -48c-44 0 -81.667 16.333 -113 49s-47 70.667 -47 114z" />
    <glyph glyph-name="uni1EC7" unicode="&#x1ec7;" 
d="M376 586l303 -0.000976562c0 83.333 -6.66699 150 -20 200c-22 82 -60.333 123 -115 123c-66.667 0 -113.667 -40.333 -141 -121c-18 -51.333 -27 -118.666 -27 -201.999zM962 486.999h-586.001l-4 -32c0 -106.667 22 -189.334 66 -248.001
c48.667 -67.333 122.334 -101 221.001 -101c42 0 83.833 8 125.5 24s80.167 38.333 115.5 67l25 -17l-45 -114c-90 -63.333 -188.333 -95 -295 -95c-168 0 -295.333 47.5 -382 142.5s-130 227.833 -130 398.5c0 146 41.667 264.5 125 355.5s197.333 136.5 342 136.5
c143.333 0 251.333 -43.333 324 -130c65.333 -77.333 98 -185.666 98 -324.999v-62zM440.999 1458h189l254 -360h-119l-230 200l-229 -200h-115zM357.999 -279.001c0 44 15.667 81.667 47 113s68.666 47 111.999 47c44 0 82.333 -15.667 115 -47s49 -69 49 -113
c0 -44.667 -16 -83 -48 -115s-70.667 -48 -116 -48c-43.333 0 -80.666 16.333 -111.999 49s-47 70.667 -47 114z" />
    <glyph glyph-name="uni1EC8" unicode="&#x1ec8;" horiz-adv-x="700" 
d="M189 -12v1409c16 0 41.167 -2.16699 75.5 -6.5s59.5 -6.5 75.5 -6.5c18 0 44 2.16699 78 6.5s60 6.5 78 6.5v-1409c-18 0 -44 2 -78 6s-60 6 -78 6c-16 0 -41.167 -2 -75.5 -6s-59.5 -6 -75.5 -6zM594 1890l2 -17.9961l-2 -43c0 -27.333 -19.667 -59.333 -59 -96
c-28.667 -27.333 -64 -53.333 -106 -78c-26 -12.667 -44.667 -26.334 -56 -41.001l-18 -35l-8 -35v-28h-52v83c0 19.333 31.667 67.333 95 144c30 36.667 45 75 45 115c0 16 -5.5 36.333 -16.5 61s-24.167 41 -39.5 49c-16 12.667 -40.333 19 -73 19
c-6 0 -16.167 -5.83301 -30.5 -17.5s-23.5 -19.5 -27.5 -23.5c16.667 -12.667 28.667 -23.834 36 -33.501s11 -21.834 11 -36.501c0 -24.667 -10.5 -46.167 -31.5 -64.5s-44.5 -27.5 -70.5 -27.5c-24.667 0 -45.167 8.83301 -61.5 26.5s-24.5 39.5 -24.5 65.5l4 22
c16.667 34.667 40 63.667 70 87c46 35.333 104 53 174 53c74.667 0 134 -17.667 178 -53c30 -24.667 50.333 -56.334 61 -95.001z" />
    <glyph glyph-name="uni1EC9" unicode="&#x1ec9;" horiz-adv-x="589" 
d="M143 -12l0.000976562 995c16 0 42.833 -1.33301 80.5 -4s58.5 -4 62.5 -4c23.333 0 48.666 1 75.999 3s48.333 3.66699 63 5v-995l-51 4c-48 5.33301 -77.333 8 -88 8c-16.667 0 -40.667 -2 -72 -6s-55 -6 -71 -6zM558.001 1423l2 -18l-2 -43
c0 -27.333 -19.667 -59.333 -59 -96c-28.667 -27.333 -64 -53.333 -106 -78c-26 -12.667 -44.667 -26.334 -56 -41.001l-18 -35l-8 -35v-28h-52v84c0 18.667 31.667 66.334 95 143.001c30 36.667 45 75 45 115c0 16 -5.5 36.333 -16.5 61s-24.167 41 -39.5 49
c-16 12.667 -40.333 19 -73 19c-6 0 -16.167 -5.83301 -30.5 -17.5s-23.5 -19.5 -27.5 -23.5c16.667 -12.667 28.667 -23.667 36 -33s11 -21.666 11 -36.999c0 -24.667 -10.5 -46.167 -31.5 -64.5s-44.5 -27.5 -70.5 -27.5c-24.667 0 -45.167 8.83301 -61.5 26.5
s-24.5 39.5 -24.5 65.5l4 23c16.667 34 40 62.667 70 86c46 35.333 104 53 174 53c74.667 0 134 -17.667 178 -53c30 -24.667 50.333 -56.334 61 -95.001z" />
    <glyph glyph-name="uni1ECA" unicode="&#x1eca;" horiz-adv-x="700" 
d="M189 -12v1409c16 0 41.167 -2.16699 75.5 -6.5s59.5 -6.5 75.5 -6.5c18 0 44 2.16699 78 6.5s60 6.5 78 6.5v-1409c-18 0 -44 2 -78 6s-60 6 -78 6c-16 0 -41.167 -2 -75.5 -6s-59.5 -6 -75.5 -6zM181 -279c0 44 15.667 81.667 47 113s69 47 113 47
c43.333 0 81.5 -15.667 114.5 -47s49.5 -69 49.5 -113c0 -44.667 -16.167 -83 -48.5 -115s-70.833 -48 -115.5 -48c-44 0 -81.667 16.333 -113 49s-47 70.667 -47 114z" />
    <glyph glyph-name="uni1ECB" unicode="&#x1ecb;" horiz-adv-x="589" 
d="M142 -12v995.001c16.667 0 43.834 -1.33301 81.501 -4s58.5 -4 62.5 -4c23.333 0 48.666 1 75.999 3s48.333 3.66699 63 5v-995c-18 1.33301 -35 2.66602 -51 3.99902c-48 5.33301 -77.333 8 -88 8c-16.667 0 -40.667 -2 -72 -6s-55.333 -6 -72 -6zM122 1360
c0 43.333 15.667 80.833 47 112.5s69 47.5 113 47.5c43.333 0 81.5 -15.833 114.5 -47.5s49.5 -69.167 49.5 -112.5c0 -45.333 -16.167 -84 -48.5 -116s-70.833 -48 -115.5 -48c-44 0 -81.667 16.333 -113 49s-47 71 -47 115zM122 -278.999c0 44 15.667 81.667 47 113
s69 47 113 47c43.333 0 81.5 -15.667 114.5 -47s49.5 -69 49.5 -113c0 -44.667 -16.167 -83 -48.5 -115s-70.833 -48 -115.5 -48c-44 0 -81.667 16.333 -113 49s-47 70.667 -47 114z" />
    <glyph glyph-name="uni1ECC" unicode="&#x1ecc;" horiz-adv-x="1396" 
d="M1347 705c0 -206.667 -59.3359 -380.334 -178.003 -521.001c-125.333 -147.333 -287 -221 -485 -221c-191.333 0 -343.666 64.5 -456.999 193.5s-170 308.833 -170 539.5c0 210.667 58 384.334 174 521.001c122.667 144.667 287.334 217 494.001 217
c216.667 0 380.334 -82 491.001 -246c87.333 -130 131 -291 131 -483zM711.997 1311c-118.667 0 -210.333 -55.999 -275 -167.999s-97 -281.333 -97 -508c0 -150 26.333 -275 79 -375c62 -116 151.667 -174 269 -174c124 0 220.333 66.333 289 199
c61.333 118.667 92 270.667 92 456c0 153.333 -27.333 281.666 -82 384.999c-64 123.333 -155.667 185 -275 185zM539.998 -278.999c0 44 15.833 81.667 47.5 113s69.167 47 112.5 47c44 0 82.333 -15.667 115 -47s49 -69 49 -113c0 -44.667 -16 -83 -48 -115
s-70.667 -48 -116 -48c-43.333 0 -80.833 16.333 -112.5 49s-47.5 70.667 -47.5 114z" />
    <glyph glyph-name="uni1ECD" unicode="&#x1ecd;" 
d="M520 -29c-140.667 0 -252.333 44.833 -335 134.5s-124 210.167 -124 361.5c0 162.667 41 292.834 123 390.501s195.333 146.5 340 146.5c142 0 254.667 -43.833 338 -131.5s125 -207.834 125 -360.501c0 -160 -41.333 -290.167 -124 -390.5s-197 -150.5 -343 -150.5z
M532.001 909c-70.667 0 -122.001 -42.332 -154.001 -126.999c-25.333 -69.333 -38 -173 -38 -311c0 -102.667 9.33301 -186.667 28 -252c30 -102 80.667 -153 152 -153c66.667 0 116.334 51 149.001 153c26 83.333 39 192 39 326c0 109.333 -13 194.666 -39 255.999
c-30 72 -75.667 108 -137 108zM362 -278.999c0 44 15.667 81.667 47 113s69 47 113 47c43.333 0 81.5 -15.667 114.5 -47s49.5 -69 49.5 -113c0 -44.667 -16.167 -83 -48.5 -115s-70.833 -48 -115.5 -48c-44 0 -81.667 16.333 -113 49s-47 70.667 -47 114z" />
    <glyph glyph-name="uni1ECE" unicode="&#x1ece;" horiz-adv-x="1396" 
d="M1347 705c0 -206.667 -59.3359 -380.334 -178.003 -521.001c-125.333 -147.333 -287 -221 -485 -221c-191.333 0 -343.666 64.5 -456.999 193.5s-170 308.833 -170 539.5c0 210.667 58 384.334 174 521.001c122.667 144.667 287.334 217 494.001 217
c216.667 0 380.334 -82 491.001 -246c87.333 -130 131 -291 131 -483zM711.997 1311c-118.667 0 -210.333 -55.999 -275 -167.999s-97 -281.333 -97 -508c0 -150 26.333 -275 79 -375c62 -116 151.667 -174 269 -174c124 0 220.333 66.333 289 199
c61.333 118.667 92 270.667 92 456c0 153.333 -27.333 281.666 -82 384.999c-64 123.333 -155.667 185 -275 185zM944.998 1890l2.00098 -17.9961l-2 -43c0 -27.333 -20 -59.333 -60 -96c-28.667 -27.333 -64 -53.333 -106 -78c-26 -12.667 -44.333 -26.334 -55 -41.001
c-10 -18 -16.333 -29.667 -19 -35l-8 -35v-28h-51v83c0 19.333 31.333 67.333 94 144c30 36.667 45 75 45 115c0 16 -5.5 36.333 -16.5 61s-23.833 41 -38.5 49c-16.667 12.667 -41.334 19 -74.001 19c-5.33301 0 -15.166 -5.83301 -29.499 -17.5s-23.5 -19.5 -27.5 -23.5
c16 -12.667 27.833 -23.834 35.5 -33.501s11.5 -21.834 11.5 -36.501c0 -24.667 -10.667 -46.167 -32 -64.5s-45 -27.5 -71 -27.5c-24 0 -44.333 8.83301 -61 26.5s-25 39.5 -25 65.5l4 22c16.667 34.667 40 63.667 70 87c46.667 35.333 104.667 53 174 53
c75.333 0 134.666 -17.667 177.999 -53c30 -24.667 50.667 -56.334 62 -95.001z" />
    <glyph glyph-name="uni1ECF" unicode="&#x1ecf;" 
d="M520 -29c-140.667 0 -252.333 44.833 -335 134.5s-124 210.167 -124 361.5c0 162.667 41 292.834 123 390.501s195.333 146.5 340 146.5c142 0 254.667 -43.833 338 -131.5s125 -207.834 125 -360.501c0 -160 -41.333 -290.167 -124 -390.5s-197 -150.5 -343 -150.5z
M532.001 909c-70.667 0 -122.001 -42.332 -154.001 -126.999c-25.333 -69.333 -38 -173 -38 -311c0 -102.667 9.33301 -186.667 28 -252c30 -102 80.667 -153 152 -153c66.667 0 116.334 51 149.001 153c26 83.333 39 192 39 326c0 109.333 -13 194.666 -39 255.999
c-30 72 -75.667 108 -137 108zM810 1464l2 -18l-2 -43c0 -27.333 -19.667 -59.333 -59 -96c-28.667 -27.333 -64 -53.333 -106 -78c-26 -12.667 -44.667 -26.334 -56 -41.001l-18 -35l-8 -35v-28h-52v84c0 18.667 31.667 66.334 95 143.001c30 36.667 45 75 45 115
c0 16 -5.5 36.333 -16.5 61s-24.167 41 -39.5 49c-16 12.667 -40.333 19 -73 19c-6 0 -16.167 -5.83301 -30.5 -17.5s-23.5 -19.5 -27.5 -23.5c16.667 -12.667 28.667 -23.667 36 -33s11 -21.666 11 -36.999c0 -24.667 -10.5 -46.167 -31.5 -64.5s-44.5 -27.5 -70.5 -27.5
c-24.667 0 -45.167 8.83301 -61.5 26.5s-24.5 39.5 -24.5 65.5l4 23c16.667 34 40 62.667 70 86c46 35.333 104 53 174 53c74.667 0 134 -17.667 178 -53c30 -24.667 50.333 -56.334 61 -95.001z" />
    <glyph glyph-name="uni1ED0" unicode="&#x1ed0;" horiz-adv-x="1396" 
d="M1347 705c0 -206.667 -59.3359 -380.334 -178.003 -521.001c-125.333 -147.333 -287 -221 -485 -221c-191.333 0 -343.666 64.5 -456.999 193.5s-170 308.833 -170 539.5c0 210.667 58 384.334 174 521.001c122.667 144.667 287.334 217 494.001 217
c216.667 0 380.334 -82 491.001 -246c87.333 -130 131 -291 131 -483zM711.997 1311c-118.667 0 -210.333 -55.999 -275 -167.999s-97 -281.333 -97 -508c0 -150 26.333 -275 79 -375c62 -116 151.667 -174 269 -174c124 0 220.333 66.333 289 199
c61.333 118.667 92 270.667 92 456c0 153.333 -27.333 281.666 -82 384.999c-64 123.333 -155.667 185 -275 185zM1230 2210c20.667 12.667 46.002 19 76.002 19c27.333 0 49.166 -9 65.499 -27s24.5 -39 24.5 -63c0 -28.667 -11.667 -54 -35 -76
c-10.667 -9.33301 -34.334 -25 -71.001 -47l-267 -168h-114l262 307c26 28.667 45.667 47 59 55zM604 1868h192l250 -361h-115l-229 205l-233 -205h-111z" />
    <glyph glyph-name="uni1ED1" unicode="&#x1ed1;" 
d="M520 -29c-140.667 0 -252.333 44.833 -335 134.5s-124 210.167 -124 361.5c0 162.667 41 292.834 123 390.501s195.333 146.5 340 146.5c142 0 254.667 -43.833 338 -131.5s125 -207.834 125 -360.501c0 -160 -41.333 -290.167 -124 -390.5s-197 -150.5 -343 -150.5z
M532.001 909c-70.667 0 -122.001 -42.332 -154.001 -126.999c-25.333 -69.333 -38 -173 -38 -311c0 -102.667 9.33301 -186.667 28 -252c30 -102 80.667 -153 152 -153c66.667 0 116.334 51 149.001 153c26 83.333 39 192 39 326c0 109.333 -13 194.666 -39 255.999
c-30 72 -75.667 108 -137 108zM1082 1749.5c19.333 11.667 44.001 17.5 74.001 17.5c26 0 47.5 -8.5 64.5 -25.5s25.5 -38.5 25.5 -64.5c0 -27.333 -12.333 -52 -37 -74l-70 -49l-270 -164h-115l267 303c21.333 26 41.666 44.833 60.999 56.5zM428.001 1458h188l254 -360
h-119l-229 200l-230 -200h-114z" />
    <glyph glyph-name="uni1ED2" unicode="&#x1ed2;" horiz-adv-x="1396" 
d="M1347 705c0 -206.667 -59.3359 -380.334 -178.003 -521.001c-125.333 -147.333 -287 -221 -485 -221c-191.333 0 -343.666 64.5 -456.999 193.5s-170 308.833 -170 539.5c0 210.667 58 384.334 174 521.001c122.667 144.667 287.334 217 494.001 217
c216.667 0 380.334 -82 491.001 -246c87.333 -130 131 -291 131 -483zM711.997 1311c-118.667 0 -210.333 -55.999 -275 -167.999s-97 -281.333 -97 -508c0 -150 26.333 -275 79 -375c62 -116 151.667 -174 269 -174c124 0 220.333 66.333 289 199
c61.333 118.667 92 270.667 92 456c0 153.333 -27.333 281.666 -82 384.999c-64 123.333 -155.667 185 -275 185zM861.998 2155l262.001 -307h-115l-266 168c-36.667 22 -60.667 37.667 -72 47c-22.667 22 -34 47.333 -34 76c0 24 8.16699 45 24.5 63s38.166 27 65.499 27
c30 0 55.333 -6.33301 76 -19c13.333 -8 33 -26.333 59 -55zM603.999 1868h192l250 -361h-115l-229 205l-233 -205h-111z" />
    <glyph glyph-name="uni1ED3" unicode="&#x1ed3;" 
d="M520 -29c-140.667 0 -252.333 44.833 -335 134.5s-124 210.167 -124 361.5c0 162.667 41 292.834 123 390.501s195.333 146.5 340 146.5c142 0 254.667 -43.833 338 -131.5s125 -207.834 125 -360.501c0 -160 -41.333 -290.167 -124 -390.5s-197 -150.5 -343 -150.5z
M532.001 909c-70.667 0 -122.001 -42.332 -154.001 -126.999c-25.333 -69.333 -38 -173 -38 -311c0 -102.667 9.33301 -186.667 28 -252c30 -102 80.667 -153 152 -153c66.667 0 116.334 51 149.001 153c26 83.333 39 192 39 326c0 109.333 -13 194.666 -39 255.999
c-30 72 -75.667 108 -137 108zM707 1761l266.001 -303h-115l-270 164l-70 49c-24.667 22 -37 46.667 -37 74c0 26 8.66699 47.5 26 64.5s38.666 25.5 63.999 25.5c30 0 54.667 -5.83301 74 -17.5s40 -30.5 62 -56.5zM428.001 1458h188l254 -360h-119l-229 200l-230 -200
h-114z" />
    <glyph glyph-name="uni1ED4" unicode="&#x1ed4;" horiz-adv-x="1396" 
d="M1347 705c0 -206.667 -59.3359 -380.334 -178.003 -521.001c-125.333 -147.333 -287 -221 -485 -221c-191.333 0 -343.666 64.5 -456.999 193.5s-170 308.833 -170 539.5c0 210.667 58 384.334 174 521.001c122.667 144.667 287.334 217 494.001 217
c216.667 0 380.334 -82 491.001 -246c87.333 -130 131 -291 131 -483zM711.997 1311c-118.667 0 -210.333 -55.999 -275 -167.999s-97 -281.333 -97 -508c0 -150 26.333 -275 79 -375c62 -116 151.667 -174 269 -174c124 0 220.333 66.333 289 199
c61.333 118.667 92 270.667 92 456c0 153.333 -27.333 281.666 -82 384.999c-64 123.333 -155.667 185 -275 185zM1248 2074l2 -17.998l-2 -43c0 -27.333 -19.667 -59.333 -59 -96c-28.667 -27.333 -64.334 -53.333 -107.001 -78
c-25.333 -12.667 -43.666 -26.334 -54.999 -41.001l-18 -35l-8 -35v-28h-52v83c0 19.333 31.667 67.333 95 144c30 36.667 45 75 45 115c0 16 -5.5 36.333 -16.5 61s-24.167 41 -39.5 49c-16 12.667 -40.333 19 -73 19c-6 0 -16.167 -5.83301 -30.5 -17.5
s-23.5 -19.5 -27.5 -23.5c16.667 -12.667 28.667 -23.834 36 -33.5c7.33301 -9.66699 11 -21.834 11 -36.5c0 -24.667 -10.5 -46.167 -31.5 -64.5s-44.5 -27.5 -70.5 -27.5c-24.667 0 -45.167 8.83301 -61.5 26.5s-24.5 39.5 -24.5 65.5l4 22c16.667 34.667 40 63.667 70 87
c46 35.333 104 53 174 53c74.667 0 134 -17.667 178 -53c30 -24.667 50.333 -56.334 61 -95.001zM603.998 1868h192l250 -361h-115l-229 205l-233 -205h-111z" />
    <glyph glyph-name="uni1ED5" unicode="&#x1ed5;" 
d="M520 -29c-140.667 0 -252.333 44.833 -335 134.5s-124 210.167 -124 361.5c0 162.667 41 292.834 123 390.501s195.333 146.5 340 146.5c142 0 254.667 -43.833 338 -131.5s125 -207.834 125 -360.501c0 -160 -41.333 -290.167 -124 -390.5s-197 -150.5 -343 -150.5z
M532.001 909c-70.667 0 -122.001 -42.332 -154.001 -126.999c-25.333 -69.333 -38 -173 -38 -311c0 -102.667 9.33301 -186.667 28 -252c30 -102 80.667 -153 152 -153c66.667 0 116.334 51 149.001 153c26 83.333 39 192 39 326c0 109.333 -13 194.666 -39 255.999
c-30 72 -75.667 108 -137 108zM1052 1716l2 -18l-2 -43c0 -27.333 -19.667 -59.333 -59 -96c-28.667 -27.333 -64 -53.333 -106 -78c-26 -12.667 -44.667 -26.334 -56 -41.001l-18 -35l-8 -35v-28h-52v84c0 18.667 31.667 66.334 95 143.001c30 36.667 45 75 45 115
c0 16 -5.5 36.333 -16.5 61s-24.167 41 -39.5 49c-16 12.667 -40.333 19 -73 19c-6 0 -16.167 -5.83301 -30.5 -17.5s-23.5 -19.5 -27.5 -23.5c16.667 -12.667 28.667 -23.667 36 -33s11 -21.666 11 -36.999c0 -24.667 -10.5 -46.167 -31.5 -64.5s-44.5 -27.5 -70.5 -27.5
c-24.667 0 -45.167 8.83301 -61.5 26.5s-24.5 39.5 -24.5 65.5l4 23c16.667 34 40 62.667 70 86c46 35.333 104 53 174 53c74.667 0 134 -17.667 178 -53c30 -24.667 50.333 -56.334 61 -95.001zM428 1458h188l254 -360h-119l-229 200l-230 -200h-114z" />
    <glyph glyph-name="uni1ED6" unicode="&#x1ed6;" horiz-adv-x="1396" 
d="M1347 705c0 -206.667 -59.3359 -380.334 -178.003 -521.001c-125.333 -147.333 -287 -221 -485 -221c-191.333 0 -343.666 64.5 -456.999 193.5s-170 308.833 -170 539.5c0 210.667 58 384.334 174 521.001c122.667 144.667 287.334 217 494.001 217
c216.667 0 380.334 -82 491.001 -246c87.333 -130 131 -291 131 -483zM711.997 1311c-118.667 0 -210.333 -55.999 -275 -167.999s-97 -281.333 -97 -508c0 -150 26.333 -275 79 -375c62 -116 151.667 -174 269 -174c124 0 220.333 66.333 289 199
c61.333 118.667 92 270.667 92 456c0 153.333 -27.333 281.666 -82 384.999c-64 123.333 -155.667 185 -275 185zM1086 2158l72.999 -0.00195312c-14.667 -76.667 -36.334 -135.334 -65.001 -176.001c-38 -54.667 -88.667 -82 -152 -82c-26 0 -49.667 4 -71 12
c-6 2.66699 -26.667 12.834 -62 30.501s-61.333 30.167 -78 37.5c-32.667 14.667 -57.667 22 -75 22c-27.333 0 -47.833 -11.5 -61.5 -34.5s-20.5 -44.167 -20.5 -63.5h-74c0 70.667 24.667 133.334 74 188.001c39.333 44 87 66 143 66c31.333 0 67 -9 107 -27l61 -31
c20.667 -12 39.834 -21.667 57.501 -29s33.834 -11 48.501 -11c23.333 0 43.333 10 60 30c9.33301 12.667 21 35.334 35 68.001zM603.997 1868h192l250 -361h-115l-229 205l-233 -205h-111z" />
    <glyph glyph-name="uni1ED7" unicode="&#x1ed7;" 
d="M520 -29c-140.667 0 -252.333 44.833 -335 134.5s-124 210.167 -124 361.5c0 162.667 41 292.834 123 390.501s195.333 146.5 340 146.5c142 0 254.667 -43.833 338 -131.5s125 -207.834 125 -360.501c0 -160 -41.333 -290.167 -124 -390.5s-197 -150.5 -343 -150.5z
M532.001 909c-70.667 0 -122.001 -42.332 -154.001 -126.999c-25.333 -69.333 -38 -173 -38 -311c0 -102.667 9.33301 -186.667 28 -252c30 -102 80.667 -153 152 -153c66.667 0 116.334 51 149.001 153c26 83.333 39 192 39 326c0 109.333 -13 194.666 -39 255.999
c-30 72 -75.667 108 -137 108zM854 1733l73 -0.00195312c-14.667 -76.667 -36.334 -135.334 -65.001 -176.001c-38 -54.667 -88.667 -82 -152 -82c-26 0 -49.667 4 -71 12l-61.5 30.5c-35.667 17.667 -61.834 29.834 -78.501 36.501c-32.667 15.333 -57.667 23 -75 23
c-27.333 0 -47.833 -11.667 -61.5 -35s-20.5 -44.333 -20.5 -63h-74c0 70.667 24.667 133.334 74 188.001c39.333 44 87 66 143 66c31.333 0 67 -9 107 -27c28.667 -15.333 49 -25.666 61 -30.999c20.667 -12 39.834 -21.833 57.501 -29.5s34.167 -11.5 49.5 -11.5
c22.667 0 42.334 10.333 59.001 31c9.33301 12 21 34.667 35 68zM428 1458h188l254 -360h-119l-229 200l-230 -200h-114z" />
    <glyph glyph-name="uni1ED8" unicode="&#x1ed8;" horiz-adv-x="1396" 
d="M1347 705c0 -206.667 -59.3359 -380.334 -178.003 -521.001c-125.333 -147.333 -287 -221 -485 -221c-191.333 0 -343.666 64.5 -456.999 193.5s-170 308.833 -170 539.5c0 210.667 58 384.334 174 521.001c122.667 144.667 287.334 217 494.001 217
c216.667 0 380.334 -82 491.001 -246c87.333 -130 131 -291 131 -483zM711.997 1311c-118.667 0 -210.333 -55.999 -275 -167.999s-97 -281.333 -97 -508c0 -150 26.333 -275 79 -375c62 -116 151.667 -174 269 -174c124 0 220.333 66.333 289 199
c61.333 118.667 92 270.667 92 456c0 153.333 -27.333 281.666 -82 384.999c-64 123.333 -155.667 185 -275 185zM603.998 1868h192l250 -361h-115l-229 205l-233 -205h-111zM539.998 -278.999c0 44 15.833 81.667 47.5 113s69.167 47 112.5 47c44 0 82.333 -15.667 115 -47
s49 -69 49 -113c0 -44.667 -16 -83 -48 -115s-70.667 -48 -116 -48c-43.333 0 -80.833 16.333 -112.5 49s-47.5 70.667 -47.5 114z" />
    <glyph glyph-name="uni1ED9" unicode="&#x1ed9;" 
d="M520 -29c-140.667 0 -252.333 44.833 -335 134.5s-124 210.167 -124 361.5c0 162.667 41 292.834 123 390.501s195.333 146.5 340 146.5c142 0 254.667 -43.833 338 -131.5s125 -207.834 125 -360.501c0 -160 -41.333 -290.167 -124 -390.5s-197 -150.5 -343 -150.5z
M532.001 909c-70.667 0 -122.001 -42.332 -154.001 -126.999c-25.333 -69.333 -38 -173 -38 -311c0 -102.667 9.33301 -186.667 28 -252c30 -102 80.667 -153 152 -153c66.667 0 116.334 51 149.001 153c26 83.333 39 192 39 326c0 109.333 -13 194.666 -39 255.999
c-30 72 -75.667 108 -137 108zM428 1458h188l254 -360h-119l-229 200l-230 -200h-114zM362 -278.999c0 44 15.667 81.667 47 113s69 47 113 47c43.333 0 81.5 -15.667 114.5 -47s49.5 -69 49.5 -113c0 -44.667 -16.167 -83 -48.5 -115s-70.833 -48 -115.5 -48
c-44 0 -81.667 16.333 -113 49s-47 70.667 -47 114z" />
    <glyph glyph-name="uni1EDA" unicode="&#x1eda;" horiz-adv-x="1396" 
d="M896 1890c20.667 12.667 46.001 19 76.001 19c27.333 0 49.166 -9 65.499 -27s24.5 -39 24.5 -63c0 -28.667 -11.667 -54 -35 -76c-10.667 -9.33301 -34.667 -25 -72 -47l-266 -168h-115l263 307c25.333 28.667 45 47 59 55zM1151 1262
c24 0 51.3281 15.0039 81.9951 45.0039c10.667 16 16 37.667 16 65c0 18 -1.66699 35.167 -5 51.5s-7.83301 28.666 -13.5 36.999s-18.667 13.166 -39 14.499s-31.166 4 -32.499 8v123c16 -2.66699 27.833 -4.83398 35.5 -6.50098s18.834 -2.5 33.501 -2.5
c16.667 0 40.334 1.5 71.001 4.5s49.334 4.5 56.001 4.5h62l-4 -33v-86c0 -38 -5.16699 -76.833 -15.5 -116.5s-25.333 -71.5 -45 -95.5s-38.5 -41.333 -56.5 -52c-28.667 -18 -60.667 -27 -96 -27c49.333 -72.667 86.166 -150.834 110.499 -234.501
s36.5 -169.167 36.5 -256.5c0 -206.667 -59.333 -380.334 -178 -521.001c-125.333 -147.333 -287 -221 -485 -221c-191.333 0 -343.666 64.5 -456.999 193.5s-170 308.833 -170 539.5c0 210.667 58 384.334 174 521.001c122.667 144.667 287.334 217 494.001 217
c92.667 0 174.167 -15.167 244.5 -45.5s130.833 -72.5 181.5 -126.5zM711.996 1311c-118.667 0 -210.333 -55.999 -275 -167.999s-97 -281.333 -97 -508c0 -150 26.333 -275 79 -375c62 -116 151.667 -174 269 -174c124 0 220.333 66.333 289 199
c61.333 118.667 92 270.667 92 456c0 153.333 -27.333 281.666 -82 384.999c-64 123.333 -155.667 185 -275 185z" />
    <glyph glyph-name="uni1EDB" unicode="&#x1edb;" 
d="M751 1477.5c19.333 11.667 44.001 17.5 74.001 17.5c26 0 47.5 -8.5 64.5 -25.5s25.5 -38.5 25.5 -64.5c0 -27.333 -12.333 -52 -37 -74l-70 -49l-270 -164h-115l267 303c21.333 26 41.666 44.833 60.999 56.5zM831.001 889c18 0 34.832 2.99609 50.499 8.99609
s29 16.833 40 32.5s16.5 31.834 16.5 48.501c0 24.667 -5.66699 42.334 -17 53.001c-4 6.66699 -16.167 10.834 -36.5 12.501s-31.166 4.5 -32.499 8.5v123c26.667 -6 48.334 -9 65.001 -9c12 0 27 1.5 45 4.5s34.333 4.5 49 4.5h58l-4 -29v-94
c0 -42.667 -3.83301 -74.167 -11.5 -94.5s-20.5 -40.833 -38.5 -61.5c-28.667 -32.667 -43.667 -49.667 -45 -51c-16 -15.333 -40.333 -23 -73 -23c60 -86 90 -189.667 90 -311c0 -160 -41.333 -290.167 -124 -390.5s-197 -150.5 -343 -150.5
c-140.667 0 -252.334 44.833 -335.001 134.5s-124 210.167 -124 361.5c0 162.667 41 292.834 123 390.501s195.333 146.5 340 146.5c124 0 226.333 -38.333 307 -115zM532 908.996c-70.667 0 -122.001 -42.332 -154.001 -126.999c-25.333 -69.333 -38 -173 -38 -311
c0 -102.667 9.33301 -186.667 28 -252c30 -102 80.667 -153 152 -153c66.667 0 116.334 51 149.001 153c26 83.333 39 192 39 326c0 109.333 -13 194.666 -39 255.999c-30 72 -75.667 108 -137 108z" />
    <glyph glyph-name="uni1EDC" unicode="&#x1edc;" horiz-adv-x="1396" 
d="M612 1835l262.002 -307h-115l-266 168c-36.667 22 -60.334 37.667 -71.001 47c-23.333 22 -35 47.333 -35 76c0 24 8.16699 45 24.5 63s38.166 27 65.499 27c30 0 55.333 -6.33301 76 -19c13.333 -8 33 -26.333 59 -55zM1151 1262c24 0 51.3281 15.0039 81.9951 45.0039
c10.667 16 16 37.667 16 65c0 18 -1.66699 35.167 -5 51.5s-7.83301 28.666 -13.5 36.999s-18.667 13.166 -39 14.499s-31.166 4 -32.499 8v123c16 -2.66699 27.833 -4.83398 35.5 -6.50098s18.834 -2.5 33.501 -2.5c16.667 0 40.334 1.5 71.001 4.5s49.334 4.5 56.001 4.5
h62l-4 -33v-86c0 -38 -5.16699 -76.833 -15.5 -116.5s-25.333 -71.5 -45 -95.5s-38.5 -41.333 -56.5 -52c-28.667 -18 -60.667 -27 -96 -27c49.333 -72.667 86.166 -150.834 110.499 -234.501s36.5 -169.167 36.5 -256.5c0 -206.667 -59.333 -380.334 -178 -521.001
c-125.333 -147.333 -287 -221 -485 -221c-191.333 0 -343.666 64.5 -456.999 193.5s-170 308.833 -170 539.5c0 210.667 58 384.334 174 521.001c122.667 144.667 287.334 217 494.001 217c92.667 0 174.167 -15.167 244.5 -45.5s130.833 -72.5 181.5 -126.5zM711.997 1311
c-118.667 0 -210.333 -55.999 -275 -167.999s-97 -281.333 -97 -508c0 -150 26.333 -275 79 -375c62 -116 151.667 -174 269 -174c124 0 220.333 66.333 289 199c61.333 118.667 92 270.667 92 456c0 153.333 -27.333 281.666 -82 384.999
c-64 123.333 -155.667 185 -275 185z" />
    <glyph glyph-name="uni1EDD" unicode="&#x1edd;" 
d="M397 1421l266 -303h-115l-270 164l-70 49c-24.667 22 -37 46.667 -37 74c0 26 8.66699 47.5 26 64.5s39 25.5 65 25.5c30 0 54.5 -5.83301 73.5 -17.5s39.5 -30.5 61.5 -56.5zM831 889c18 0 34.832 2.99609 50.499 8.99609s29 16.833 40 32.5s16.5 31.834 16.5 48.501
c0 24.667 -5.66699 42.334 -17 53.001c-4 6.66699 -16.167 10.834 -36.5 12.501s-31.166 4.5 -32.499 8.5v123c26.667 -6 48.334 -9 65.001 -9c12 0 27 1.5 45 4.5s34.333 4.5 49 4.5h58l-4 -29v-94c0 -42.667 -3.83301 -74.167 -11.5 -94.5s-20.5 -40.833 -38.5 -61.5
c-28.667 -32.667 -43.667 -49.667 -45 -51c-16 -15.333 -40.333 -23 -73 -23c60 -86 90 -189.667 90 -311c0 -160 -41.333 -290.167 -124 -390.5s-197 -150.5 -343 -150.5c-140.667 0 -252.334 44.833 -335.001 134.5s-124 210.167 -124 361.5
c0 162.667 41 292.834 123 390.501s195.333 146.5 340 146.5c124 0 226.333 -38.333 307 -115zM531.999 908.996c-70.667 0 -122.001 -42.332 -154.001 -126.999c-25.333 -69.333 -38 -173 -38 -311c0 -102.667 9.33301 -186.667 28 -252c30 -102 80.667 -153 152 -153
c66.667 0 116.334 51 149.001 153c26 83.333 39 192 39 326c0 109.333 -13 194.666 -39 255.999c-30 72 -75.667 108 -137 108z" />
    <glyph glyph-name="uni1EDE" unicode="&#x1ede;" horiz-adv-x="1396" 
d="M945 1890l2.00098 -17.9961l-2 -43c0 -27.333 -20 -59.333 -60 -96c-28.667 -27.333 -64 -53.333 -106 -78c-26 -12.667 -44.333 -26.334 -55 -41.001c-10 -18 -16.333 -29.667 -19 -35l-8 -35v-28h-51v83c0 19.333 31.333 67.333 94 144c30 36.667 45 75 45 115
c0 16 -5.5 36.333 -16.5 61s-23.833 41 -38.5 49c-16.667 12.667 -41.334 19 -74.001 19c-5.33301 0 -15.166 -5.83301 -29.499 -17.5s-23.5 -19.5 -27.5 -23.5c16 -12.667 27.833 -23.834 35.5 -33.501s11.5 -21.834 11.5 -36.501c0 -24.667 -10.667 -46.167 -32 -64.5
s-45 -27.5 -71 -27.5c-24 0 -44.333 8.83301 -61 26.5s-25 39.5 -25 65.5l4 22c16.667 34.667 40 63.667 70 87c46.667 35.333 104.667 53 174 53c75.333 0 134.666 -17.667 177.999 -53c30 -24.667 50.667 -56.334 62 -95.001zM1151 1262
c24 0 51.3281 15.0039 81.9951 45.0039c10.667 16 16 37.667 16 65c0 18 -1.66699 35.167 -5 51.5s-7.83301 28.666 -13.5 36.999s-18.667 13.166 -39 14.499s-31.166 4 -32.499 8v123c16 -2.66699 27.833 -4.83398 35.5 -6.50098s18.834 -2.5 33.501 -2.5
c16.667 0 40.334 1.5 71.001 4.5s49.334 4.5 56.001 4.5h62l-4 -33v-86c0 -38 -5.16699 -76.833 -15.5 -116.5s-25.333 -71.5 -45 -95.5s-38.5 -41.333 -56.5 -52c-28.667 -18 -60.667 -27 -96 -27c49.333 -72.667 86.166 -150.834 110.499 -234.501
s36.5 -169.167 36.5 -256.5c0 -206.667 -59.333 -380.334 -178 -521.001c-125.333 -147.333 -287 -221 -485 -221c-191.333 0 -343.666 64.5 -456.999 193.5s-170 308.833 -170 539.5c0 210.667 58 384.334 174 521.001c122.667 144.667 287.334 217 494.001 217
c92.667 0 174.167 -15.167 244.5 -45.5s130.833 -72.5 181.5 -126.5zM711.996 1311.01c-118.667 0 -210.333 -55.999 -275 -167.999s-97 -281.333 -97 -508c0 -150 26.333 -275 79 -375c62 -116 151.667 -174 269 -174c124 0 220.333 66.333 289 199
c61.333 118.667 92 270.667 92 456c0 153.333 -27.333 281.666 -82 384.999c-64 123.333 -155.667 185 -275 185z" />
    <glyph glyph-name="uni1EDF" unicode="&#x1edf;" 
d="M810 1464l2 -18l-2 -43c0 -27.333 -19.667 -59.333 -59 -96c-28.667 -27.333 -64 -53.333 -106 -78c-26 -12.667 -44.667 -26.334 -56 -41.001l-18 -35l-8 -35v-28h-52v84c0 18.667 31.667 66.334 95 143.001c30 36.667 45 75 45 115c0 16 -5.5 36.333 -16.5 61
s-24.167 41 -39.5 49c-16 12.667 -40.333 19 -73 19c-6 0 -16.167 -5.83301 -30.5 -17.5s-23.5 -19.5 -27.5 -23.5c16.667 -12.667 28.667 -23.667 36 -33s11 -21.666 11 -36.999c0 -24.667 -10.5 -46.167 -31.5 -64.5s-44.5 -27.5 -70.5 -27.5
c-24.667 0 -45.167 8.83301 -61.5 26.5s-24.5 39.5 -24.5 65.5l4 23c16.667 34 40 62.667 70 86c46 35.333 104 53 174 53c74.667 0 134 -17.667 178 -53c30 -24.667 50.333 -56.334 61 -95.001zM831 889c18 0 34.832 2.99609 50.499 8.99609s29 16.833 40 32.5
s16.5 31.834 16.5 48.501c0 24.667 -5.66699 42.334 -17 53.001c-4 6.66699 -16.167 10.834 -36.5 12.501s-31.166 4.5 -32.499 8.5v123c26.667 -6 48.334 -9 65.001 -9c12 0 27 1.5 45 4.5s34.333 4.5 49 4.5h58l-4 -29v-94c0 -42.667 -3.83301 -74.167 -11.5 -94.5
s-20.5 -40.833 -38.5 -61.5c-28.667 -32.667 -43.667 -49.667 -45 -51c-16 -15.333 -40.333 -23 -73 -23c60 -86 90 -189.667 90 -311c0 -160 -41.333 -290.167 -124 -390.5s-197 -150.5 -343 -150.5c-140.667 0 -252.334 44.833 -335.001 134.5s-124 210.167 -124 361.5
c0 162.667 41 292.834 123 390.501s195.333 146.5 340 146.5c124 0 226.333 -38.333 307 -115zM531.999 908.996c-70.667 0 -122.001 -42.332 -154.001 -126.999c-25.333 -69.333 -38 -173 -38 -311c0 -102.667 9.33301 -186.667 28 -252c30 -102 80.667 -153 152 -153
c66.667 0 116.334 51 149.001 153c26 83.333 39 192 39 326c0 109.333 -13 194.666 -39 255.999c-30 72 -75.667 108 -137 108z" />
    <glyph glyph-name="uni1EE0" unicode="&#x1ee0;" horiz-adv-x="1396" 
d="M993 1827l73.998 -0.000976562c-15.333 -76.667 -37.333 -135.334 -66 -176.001c-38 -54.667 -88.333 -82 -151 -82c-26 0 -50 4 -72 12l-61.5 30.5c-35.667 17.667 -61.5 30.167 -77.5 37.5c-33.333 14.667 -58.666 22 -75.999 22c-27.333 0 -47.833 -11.5 -61.5 -34.5
s-20.5 -44.167 -20.5 -63.5h-74c0 70.667 24.667 133.334 74 188.001c39.333 44 87 66 143 66c31.333 0 67 -9 107 -27l61 -31c20.667 -12 39.834 -21.667 57.501 -29s34.167 -11 49.5 -11c23.333 0 43 10 59 30c9.33301 12.667 21 35.334 35 68.001zM1151 1262
c24 0 51.3281 15.0039 81.9951 45.0039c10.667 16 16 37.667 16 65c0 18 -1.66699 35.167 -5 51.5s-7.83301 28.666 -13.5 36.999s-18.667 13.166 -39 14.499s-31.166 4 -32.499 8v123c16 -2.66699 27.833 -4.83398 35.5 -6.50098s18.834 -2.5 33.501 -2.5
c16.667 0 40.334 1.5 71.001 4.5s49.334 4.5 56.001 4.5h62l-4 -33v-86c0 -38 -5.16699 -76.833 -15.5 -116.5s-25.333 -71.5 -45 -95.5s-38.5 -41.333 -56.5 -52c-28.667 -18 -60.667 -27 -96 -27c49.333 -72.667 86.166 -150.834 110.499 -234.501
s36.5 -169.167 36.5 -256.5c0 -206.667 -59.333 -380.334 -178 -521.001c-125.333 -147.333 -287 -221 -485 -221c-191.333 0 -343.666 64.5 -456.999 193.5s-170 308.833 -170 539.5c0 210.667 58 384.334 174 521.001c122.667 144.667 287.334 217 494.001 217
c92.667 0 174.167 -15.167 244.5 -45.5s130.833 -72.5 181.5 -126.5zM711.993 1311c-118.667 0 -210.333 -55.999 -275 -167.999s-97 -281.333 -97 -508c0 -150 26.333 -275 79 -375c62 -116 151.667 -174 269 -174c124 0 220.333 66.333 289 199
c61.333 118.667 92 270.667 92 456c0 153.333 -27.333 281.666 -82 384.999c-64 123.333 -155.667 185 -275 185z" />
    <glyph glyph-name="uni1EE1" unicode="&#x1ee1;" 
d="M821 1393l73.9971 -0.00195312c-15.333 -76.667 -37.333 -135.334 -66 -176.001c-38 -54.667 -88.667 -82 -152 -82c-25.333 0 -49 4 -71 12l-61.5 30.5c-35.667 17.667 -61.5 29.834 -77.5 36.501c-33.333 15.333 -58.666 23 -75.999 23
c-27.333 0 -47.833 -11.667 -61.5 -35s-20.5 -44.333 -20.5 -63h-74c0 70.667 24.667 133.334 74 188.001c39.333 44 87 66 143 66c31.333 0 67 -9 107 -27c28.667 -15.333 49 -25.666 61 -30.999c20.667 -12 39.834 -21.833 57.501 -29.5s34.167 -11.5 49.5 -11.5
c22.667 0 42.334 10.333 59.001 31c9.33301 12 21 34.667 35 68zM830.997 888.998c18 0 34.832 2.99609 50.499 8.99609s29 16.833 40 32.5s16.5 31.834 16.5 48.501c0 24.667 -5.66699 42.334 -17 53.001c-4 6.66699 -16.167 10.834 -36.5 12.501s-31.166 4.5 -32.499 8.5
v123c26.667 -6 48.334 -9 65.001 -9c12 0 27 1.5 45 4.5s34.333 4.5 49 4.5h58l-4 -29v-94c0 -42.667 -3.83301 -74.167 -11.5 -94.5s-20.5 -40.833 -38.5 -61.5c-28.667 -32.667 -43.667 -49.667 -45 -51c-16 -15.333 -40.333 -23 -73 -23c60 -86 90 -189.667 90 -311
c0 -160 -41.333 -290.167 -124 -390.5s-197 -150.5 -343 -150.5c-140.667 0 -252.334 44.833 -335.001 134.5s-124 210.167 -124 361.5c0 162.667 41 292.834 123 390.501s195.333 146.5 340 146.5c124 0 226.333 -38.333 307 -115zM531.996 908.994
c-70.667 0 -122.001 -42.332 -154.001 -126.999c-25.333 -69.333 -38 -173 -38 -311c0 -102.667 9.33301 -186.667 28 -252c30 -102 80.667 -153 152 -153c66.667 0 116.334 51 149.001 153c26 83.333 39 192 39 326c0 109.333 -13 194.666 -39 255.999
c-30 72 -75.667 108 -137 108z" />
    <glyph glyph-name="uni1EE2" unicode="&#x1ee2;" horiz-adv-x="1396" 
d="M540 -279c0 44 15.833 81.667 47.5 113s69.167 47 112.5 47c44 0 82.333 -15.667 115 -47s49 -69 49 -113c0 -44.667 -16 -83 -48 -115s-70.667 -48 -116 -48c-43.333 0 -80.833 16.333 -112.5 49s-47.5 70.667 -47.5 114zM1151 1262
c24 0 51.3281 15.0039 81.9951 45.0039c10.667 16 16 37.667 16 65c0 18 -1.66699 35.167 -5 51.5s-7.83301 28.666 -13.5 36.999s-18.667 13.166 -39 14.499s-31.166 4 -32.499 8v123c16 -2.66699 27.833 -4.83398 35.5 -6.50098s18.834 -2.5 33.501 -2.5
c16.667 0 40.334 1.5 71.001 4.5s49.334 4.5 56.001 4.5h62l-4 -33v-86c0 -38 -5.16699 -76.833 -15.5 -116.5s-25.333 -71.5 -45 -95.5s-38.5 -41.333 -56.5 -52c-28.667 -18 -60.667 -27 -96 -27c49.333 -72.667 86.166 -150.834 110.499 -234.501
s36.5 -169.167 36.5 -256.5c0 -206.667 -59.333 -380.334 -178 -521.001c-125.333 -147.333 -287 -221 -485 -221c-191.333 0 -343.666 64.5 -456.999 193.5s-170 308.833 -170 539.5c0 210.667 58 384.334 174 521.001c122.667 144.667 287.334 217 494.001 217
c92.667 0 174.167 -15.167 244.5 -45.5s130.833 -72.5 181.5 -126.5zM711.995 1311c-118.667 0 -210.333 -55.999 -275 -167.999s-97 -281.333 -97 -508c0 -150 26.333 -275 79 -375c62 -116 151.667 -174 269 -174c124 0 220.333 66.333 289 199
c61.333 118.667 92 270.667 92 456c0 153.333 -27.333 281.666 -82 384.999c-64 123.333 -155.667 185 -275 185z" />
    <glyph glyph-name="uni1EE3" unicode="&#x1ee3;" 
d="M362 -279c0 44 15.667 81.667 47 113s69 47 113 47c43.333 0 81.5 -15.667 114.5 -47s49.5 -69 49.5 -113c0 -44.667 -16.167 -83 -48.5 -115s-70.833 -48 -115.5 -48c-44 0 -81.667 16.333 -113 49s-47 70.667 -47 114zM831 889c18 0 34.832 2.99609 50.499 8.99609
s29 16.833 40 32.5s16.5 31.834 16.5 48.501c0 24.667 -5.66699 42.334 -17 53.001c-4 6.66699 -16.167 10.834 -36.5 12.501s-31.166 4.5 -32.499 8.5v123c26.667 -6 48.334 -9 65.001 -9c12 0 27 1.5 45 4.5s34.333 4.5 49 4.5h58l-4 -29v-94
c0 -42.667 -3.83301 -74.167 -11.5 -94.5s-20.5 -40.833 -38.5 -61.5c-28.667 -32.667 -43.667 -49.667 -45 -51c-16 -15.333 -40.333 -23 -73 -23c60 -86 90 -189.667 90 -311c0 -160 -41.333 -290.167 -124 -390.5s-197 -150.5 -343 -150.5
c-140.667 0 -252.334 44.833 -335.001 134.5s-124 210.167 -124 361.5c0 162.667 41 292.834 123 390.501s195.333 146.5 340 146.5c124 0 226.333 -38.333 307 -115zM531.999 908.996c-70.667 0 -122.001 -42.332 -154.001 -126.999c-25.333 -69.333 -38 -173 -38 -311
c0 -102.667 9.33301 -186.667 28 -252c30 -102 80.667 -153 152 -153c66.667 0 116.334 51 149.001 153c26 83.333 39 192 39 326c0 109.333 -13 194.666 -39 255.999c-30 72 -75.667 108 -137 108z" />
    <glyph glyph-name="uni1EE4" unicode="&#x1ee4;" horiz-adv-x="1396" 
d="M159 561l0.00195312 836c45.333 -4 90.333 -8.33301 135 -13c45.333 4.66699 90.333 9 135 13v-582c0 -65.333 0.333008 -131.833 1 -199.5s4.66699 -130.834 12 -189.501c13.333 -66.667 23.333 -109 30 -127c14 -38 36.667 -73.333 68 -106
c56 -60.667 124.333 -91 205 -91c84.667 0 151.5 19.167 200.5 57.5s89.833 102.5 122.5 192.5c11.333 30 19.666 78.5 24.999 145.5s8 159.167 8 276.5v623c16.667 -2.66699 28.667 -4.66699 36 -6s18.666 -2 33.999 -2c12 0 25.167 1 39.5 3s25.5 3.66699 33.5 5v-729
c0 -153.333 -8 -263.333 -24 -330c-26 -109.333 -82 -197.333 -168 -264c-46.667 -40 -99 -68.5 -157 -85.5s-120.333 -25.5 -187 -25.5c-126 0 -232 24 -318 72c-104.667 58.667 -172 149.334 -202 272.001c-10 41.333 -17.333 82 -22 122s-7 84 -7 132zM540.002 -279
c0 44 15.667 81.667 47 113s69 47 113 47c43.333 0 81.5 -15.667 114.5 -47s49.5 -69 49.5 -113c0 -44.667 -16.167 -83 -48.5 -115s-70.833 -48 -115.5 -48c-44 0 -81.667 16.333 -113 49s-47 70.667 -47 114z" />
    <glyph glyph-name="uni1EE5" unicode="&#x1ee5;" horiz-adv-x="1048" 
d="M934 983l0.00195312 -994.999l-131 12c-18 0 -39 -1.33301 -63 -4l-69 -8v151c-44.667 -48.667 -77.334 -81.334 -98.001 -98.001c-57.333 -46.667 -124.333 -70 -201 -70c-52.667 0 -102.334 10.667 -149.001 32s-84.334 53 -113.001 95
c-20 31.333 -34.5 68.833 -43.5 112.5s-13.5 89.5 -13.5 137.5l4 70v565l135 -8c16.667 0 43 1.33301 79 4s56.333 4 61 4v-565c0 -61.333 1 -99.833 3 -115.5s7.66699 -33.167 17 -52.5c13.333 -35.333 31 -62 53 -80s50.667 -27 86 -27c75.333 0 125.333 35 150 105
c14.667 42 22 109.667 22 203v532c22 -2.66699 43.333 -4.66699 64 -6s44.334 -2 71.001 -2c22 0 46.333 1 73 3s47.667 3.66699 63 5zM362.002 -278.999c0 44 15.667 81.667 47 113s69 47 113 47s82.333 -15.667 115 -47s49 -69 49 -113c0 -44.667 -16 -83 -48 -115
s-70.667 -48 -116 -48c-44 0 -81.667 16.333 -113 49s-47 70.667 -47 114z" />
    <glyph glyph-name="uni1EE6" unicode="&#x1ee6;" horiz-adv-x="1396" 
d="M159 561l0.00195312 836c45.333 -4 90.333 -8.33301 135 -13c45.333 4.66699 90.333 9 135 13v-582c0 -65.333 0.333008 -131.833 1 -199.5s4.66699 -130.834 12 -189.501c13.333 -66.667 23.333 -109 30 -127c14 -38 36.667 -73.333 68 -106
c56 -60.667 124.333 -91 205 -91c84.667 0 151.5 19.167 200.5 57.5s89.833 102.5 122.5 192.5c11.333 30 19.666 78.5 24.999 145.5s8 159.167 8 276.5v623c16.667 -2.66699 28.667 -4.66699 36 -6s18.666 -2 33.999 -2c12 0 25.167 1 39.5 3s25.5 3.66699 33.5 5v-729
c0 -153.333 -8 -263.333 -24 -330c-26 -109.333 -82 -197.333 -168 -264c-46.667 -40 -99 -68.5 -157 -85.5s-120.333 -25.5 -187 -25.5c-126 0 -232 24 -318 72c-104.667 58.667 -172 149.334 -202 272.001c-10 41.333 -17.333 82 -22 122s-7 84 -7 132zM1002 1890
l2 -17.9961l-2 -43c0 -27.333 -19.667 -59.333 -59 -96c-28.667 -27.333 -64 -53.333 -106 -78c-26 -12.667 -44.667 -26.334 -56 -41.001l-18 -35l-8 -35v-28h-52v83c0 19.333 31.667 67.333 95 144c30 36.667 45 75 45 115c0 16 -5.5 36.333 -16.5 61s-24.167 41 -39.5 49
c-16 12.667 -40.333 19 -73 19c-6 0 -16.167 -5.83301 -30.5 -17.5s-23.5 -19.5 -27.5 -23.5c16.667 -12.667 28.667 -23.834 36 -33.501s11 -21.834 11 -36.501c0 -24.667 -10.5 -46.167 -31.5 -64.5s-44.5 -27.5 -70.5 -27.5c-24.667 0 -45.167 8.83301 -61.5 26.5
s-24.5 39.5 -24.5 65.5l4 22c16.667 34.667 40 63.667 70 87c46 35.333 104 53 174 53c74.667 0 134 -17.667 178 -53c30 -24.667 50.333 -56.334 61 -95.001z" />
    <glyph glyph-name="uni1EE7" unicode="&#x1ee7;" horiz-adv-x="1048" 
d="M934 983l0.00195312 -994.999l-131 12c-18 0 -39 -1.33301 -63 -4l-69 -8v151c-44.667 -48.667 -77.334 -81.334 -98.001 -98.001c-57.333 -46.667 -124.333 -70 -201 -70c-52.667 0 -102.334 10.667 -149.001 32s-84.334 53 -113.001 95
c-20 31.333 -34.5 68.833 -43.5 112.5s-13.5 89.5 -13.5 137.5l4 70v565l135 -8c16.667 0 43 1.33301 79 4s56.333 4 61 4v-565c0 -61.333 1 -99.833 3 -115.5s7.66699 -33.167 17 -52.5c13.333 -35.333 31 -62 53 -80s50.667 -27 86 -27c75.333 0 125.333 35 150 105
c14.667 42 22 109.667 22 203v532c22 -2.66699 43.333 -4.66699 64 -6s44.334 -2 71.001 -2c22 0 46.333 1 73 3s47.667 3.66699 63 5zM772.002 1464l2.00098 -18l-2 -43c0 -27.333 -20 -59.333 -60 -96c-28.667 -27.333 -64 -53.333 -106 -78
c-26 -12.667 -44.667 -26.334 -56 -41.001l-18 -35l-8 -35v-28h-51v84c0 18.667 31.333 66.334 94 143.001c30 36.667 45 75 45 115c0 16 -5.5 36.333 -16.5 61s-23.833 41 -38.5 49c-16.667 12.667 -41.334 19 -74.001 19c-5.33301 0 -15.166 -5.83301 -29.499 -17.5
s-23.5 -19.5 -27.5 -23.5c16 -12.667 27.833 -23.667 35.5 -33s11.5 -21.666 11.5 -36.999c0 -24.667 -10.667 -46.167 -32 -64.5s-45 -27.5 -71 -27.5c-24.667 0 -45.167 8.83301 -61.5 26.5s-24.5 39.5 -24.5 65.5l4 23c16.667 34 40 62.667 70 86
c46.667 35.333 104.667 53 174 53c75.333 0 134.666 -17.667 177.999 -53c30 -24.667 50.667 -56.334 62 -95.001z" />
    </font>
</defs>
</svg>
